  0
SECTION
  2
HEADER
  9
$ACADVER
  1
AC1009
  9
$EXTMIN
 10
0.0
 20
0.0
 30
0.0
  9
$EXTMAX
 10
1000.0
 20
1000.0
 30
0.0
  9
$FILLMODE
 70
 0
  9
$SPLFRAME
 70
 1
  0
ENDSEC
  0
SECTION
  2
TABLES
  0
TABLE
  2
LAYER
 70
1
  0
LAYER
  2
0
 70
     0
 62
     7
  6
CONTINUOUS
  0
ENDTAB
  0
ENDSEC
  0
SECTION
  2
ENTITIES
  0
LINE
  8
0
 62
     0
 10
46.7829
 20
75.9435
 30
0.0
 11
46.6852
 21
75.9354
 31
0.0
  0
LINE
  8
0
 62
     0
 10
46.6852
 20
75.9354
 30
0.0
 11
46.3243
 21
75.6902
 31
0.0
  0
LINE
  8
0
 62
     0
 10
46.3243
 20
75.6902
 30
0.0
 11
46.0555
 21
75.1554
 31
0.0
  0
LINE
  8
0
 62
     0
 10
46.0555
 20
75.1554
 30
0.0
 11
46.0058
 21
75.0013
 31
0.0
  0
LINE
  8
0
 62
     0
 10
46.0058
 20
75.0013
 30
0.0
 11
45.9602
 21
74.8661
 31
0.0
  0
LINE
  8
0
 62
     0
 10
45.9602
 20
74.8661
 30
0.0
 11
45.6904
 21
74.2569
 31
0.0
  0
LINE
  8
0
 62
     0
 10
45.6904
 20
74.2569
 30
0.0
 11
45.4283
 21
73.8699
 31
0.0
  0
LINE
  8
0
 62
     0
 10
45.4283
 20
73.8699
 30
0.0
 11
45.3884
 21
73.8449
 31
0.0
  0
LINE
  8
0
 62
     0
 10
45.3884
 20
73.8449
 30
0.0
 11
45.3263
 21
73.8078
 31
0.0
  0
LINE
  8
0
 62
     0
 10
45.3263
 20
73.8078
 30
0.0
 11
44.9957
 21
73.7485
 31
0.0
  0
LINE
  8
0
 62
     0
 10
44.9957
 20
73.7485
 30
0.0
 11
44.2764
 21
73.6865
 31
0.0
  0
LINE
  8
0
 62
     0
 10
44.2764
 20
73.6865
 30
0.0
 11
43.367
 21
73.6699
 31
0.0
  0
LINE
  8
0
 62
     0
 10
43.367
 20
73.6699
 30
0.0
 11
42.6462
 21
73.6893
 31
0.0
  0
LINE
  8
0
 62
     0
 10
42.6462
 20
73.6893
 30
0.0
 11
42.4078
 21
73.7044
 31
0.0
  0
LINE
  8
0
 62
     0
 10
42.4078
 20
73.7044
 30
0.0
 11
42.3594
 21
73.7087
 31
0.0
  0
LINE
  8
0
 62
     0
 10
42.3594
 20
73.7087
 30
0.0
 11
41.9901
 21
74.0615
 31
0.0
  0
LINE
  8
0
 62
     0
 10
41.9901
 20
74.0615
 30
0.0
 11
41.5533
 21
74.7268
 31
0.0
  0
LINE
  8
0
 62
     0
 10
41.5533
 20
74.7268
 30
0.0
 11
41.4736
 21
74.8852
 31
0.0
  0
LINE
  8
0
 62
     0
 10
41.4736
 20
74.8852
 30
0.0
 11
41.3893
 21
75.0507
 31
0.0
  0
LINE
  8
0
 62
     0
 10
41.3893
 20
75.0507
 30
0.0
 11
41.1194
 21
75.5329
 31
0.0
  0
LINE
  8
0
 62
     0
 10
41.1194
 20
75.5329
 30
0.0
 11
40.8189
 21
75.8582
 31
0.0
  0
LINE
  8
0
 62
     0
 10
40.8189
 20
75.8582
 30
0.0
 11
40.4372
 21
75.9396
 31
0.0
  0
LINE
  8
0
 62
     0
 10
40.4372
 20
75.9396
 30
0.0
 11
39.9891
 21
75.8832
 31
0.0
  0
LINE
  8
0
 62
     0
 10
39.9891
 20
75.8832
 30
0.0
 11
39.842
 21
75.8553
 31
0.0
  0
LINE
  8
0
 62
     0
 10
39.842
 20
75.8553
 30
0.0
 11
39.624
 21
75.8169
 31
0.0
  0
LINE
  8
0
 62
     0
 10
39.624
 20
75.8169
 30
0.0
 11
38.9805
 21
75.6433
 31
0.0
  0
LINE
  8
0
 62
     0
 10
38.9805
 20
75.6433
 30
0.0
 11
38.5339
 21
75.3251
 31
0.0
  0
LINE
  8
0
 62
     0
 10
38.5339
 20
75.3251
 30
0.0
 11
38.4238
 21
74.7832
 31
0.0
  0
LINE
  8
0
 62
     0
 10
38.4238
 20
74.7832
 30
0.0
 11
38.5216
 21
74.1179
 31
0.0
  0
LINE
  8
0
 62
     0
 10
38.5216
 20
74.1179
 30
0.0
 11
38.5713
 21
73.8988
 31
0.0
  0
LINE
  8
0
 62
     0
 10
38.5713
 20
73.8988
 30
0.0
 11
38.6182
 21
73.6921
 31
0.0
  0
LINE
  8
0
 62
     0
 10
38.6182
 20
73.6921
 30
0.0
 11
38.7382
 21
73.0635
 31
0.0
  0
LINE
  8
0
 62
     0
 10
38.7382
 20
73.0635
 30
0.0
 11
38.6828
 21
72.5166
 31
0.0
  0
LINE
  8
0
 62
     0
 10
38.6828
 20
72.5166
 30
0.0
 11
38.2944
 21
72.0037
 31
0.0
  0
LINE
  8
0
 62
     0
 10
38.2944
 20
72.0037
 30
0.0
 11
37.6784
 21
71.4498
 31
0.0
  0
LINE
  8
0
 62
     0
 10
37.6784
 20
71.4498
 30
0.0
 11
37.4689
 21
71.2692
 31
0.0
  0
LINE
  8
0
 62
     0
 10
37.4689
 20
71.2692
 30
0.0
 11
37.3144
 21
71.1383
 31
0.0
  0
LINE
  8
0
 62
     0
 10
37.3144
 20
71.1383
 30
0.0
 11
36.8406
 21
70.7552
 31
0.0
  0
LINE
  8
0
 62
     0
 10
36.8406
 20
70.7552
 30
0.0
 11
36.394
 21
70.5337
 31
0.0
  0
LINE
  8
0
 62
     0
 10
36.394
 20
70.5337
 30
0.0
 11
35.9227
 21
70.5584
 31
0.0
  0
LINE
  8
0
 62
     0
 10
35.9227
 20
70.5584
 30
0.0
 11
35.3935
 21
70.7238
 31
0.0
  0
LINE
  8
0
 62
     0
 10
35.3935
 20
70.7238
 30
0.0
 11
35.2199
 21
70.7842
 31
0.0
  0
LINE
  8
0
 62
     0
 10
35.2199
 20
70.7842
 30
0.0
 11
34.9994
 21
70.8628
 31
0.0
  0
LINE
  8
0
 62
     0
 10
34.9994
 20
70.8628
 30
0.0
 11
34.3242
 21
71.0477
 31
0.0
  0
LINE
  8
0
 62
     0
 10
34.3242
 20
71.0477
 30
0.0
 11
33.7234
 21
71.0364
 31
0.0
  0
LINE
  8
0
 62
     0
 10
33.7234
 20
71.0364
 30
0.0
 11
33.2796
 21
70.7087
 31
0.0
  0
LINE
  8
0
 62
     0
 10
33.2796
 20
70.7087
 30
0.0
 11
32.9489
 21
70.1971
 31
0.0
  0
LINE
  8
0
 62
     0
 10
32.9489
 20
70.1971
 30
0.0
 11
32.8566
 21
70.0183
 31
0.0
  0
LINE
  8
0
 62
     0
 10
32.8566
 20
70.0183
 30
0.0
 11
32.3798
 21
69.0922
 31
0.0
  0
LINE
  8
0
 62
     0
 10
32.3798
 20
69.0922
 30
0.0
 11
33.4216
 21
68.1923
 31
0.0
  0
LINE
  8
0
 62
     0
 10
33.4216
 20
68.1923
 30
0.0
 11
33.5718
 21
68.0628
 31
0.0
  0
LINE
  8
0
 62
     0
 10
33.5718
 20
68.0628
 30
0.0
 11
34.01
 21
67.6533
 31
0.0
  0
LINE
  8
0
 62
     0
 10
34.01
 20
67.6533
 30
0.0
 11
34.2952
 21
67.2137
 31
0.0
  0
LINE
  8
0
 62
     0
 10
34.2952
 20
67.2137
 30
0.0
 11
34.3531
 21
66.6641
 31
0.0
  0
LINE
  8
0
 62
     0
 10
34.3531
 20
66.6641
 30
0.0
 11
34.287
 21
66.004
 31
0.0
  0
LINE
  8
0
 62
     0
 10
34.287
 20
66.004
 30
0.0
 11
34.2594
 21
65.7849
 31
0.0
  0
LINE
  8
0
 62
     0
 10
34.2594
 20
65.7849
 30
0.0
 11
34.2263
 21
65.5366
 31
0.0
  0
LINE
  8
0
 62
     0
 10
34.2263
 20
65.5366
 30
0.0
 11
34.0927
 21
64.7968
 31
0.0
  0
LINE
  8
0
 62
     0
 10
34.0927
 20
64.7968
 30
0.0
 11
33.8212
 21
64.2112
 31
0.0
  0
LINE
  8
0
 62
     0
 10
33.8212
 20
64.2112
 30
0.0
 11
33.3017
 21
63.857
 31
0.0
  0
LINE
  8
0
 62
     0
 10
33.3017
 20
63.857
 30
0.0
 11
32.6195
 21
63.6266
 31
0.0
  0
LINE
  8
0
 62
     0
 10
32.6195
 20
63.6266
 30
0.0
 11
32.3894
 21
63.5621
 31
0.0
  0
LINE
  8
0
 62
     0
 10
32.3894
 20
63.5621
 30
0.0
 11
32.2144
 21
63.5138
 31
0.0
  0
LINE
  8
0
 62
     0
 10
32.2144
 20
63.5138
 30
0.0
 11
31.71
 21
63.2961
 31
0.0
  0
LINE
  8
0
 62
     0
 10
31.71
 20
63.2961
 30
0.0
 11
31.3793
 21
62.9087
 31
0.0
  0
LINE
  8
0
 62
     0
 10
31.3793
 20
62.9087
 30
0.0
 11
31.3642
 21
62.2999
 31
0.0
  0
LINE
  8
0
 62
     0
 10
31.3642
 20
62.2999
 30
0.0
 11
31.5502
 21
61.5943
 31
0.0
  0
LINE
  8
0
 62
     0
 10
31.5502
 20
61.5943
 30
0.0
 11
31.6301
 21
61.3653
 31
0.0
  0
LINE
  8
0
 62
     0
 10
31.6301
 20
61.3653
 30
0.0
 11
31.6714
 21
61.244
 31
0.0
  0
LINE
  8
0
 62
     0
 10
31.6714
 20
61.244
 30
0.0
 11
31.8341
 21
60.8887
 31
0.0
  0
LINE
  8
0
 62
     0
 10
31.8341
 20
60.8887
 30
0.0
 11
32.111
 21
60.6171
 31
0.0
  0
LINE
  8
0
 62
     0
 10
32.111
 20
60.6171
 30
0.0
 11
32.581
 21
60.482
 31
0.0
  0
LINE
  8
0
 62
     0
 10
32.581
 20
60.482
 30
0.0
 11
33.1707
 21
60.4255
 31
0.0
  0
LINE
  8
0
 62
     0
 10
33.1707
 20
60.4255
 30
0.0
 11
33.3678
 21
60.4132
 31
0.0
  0
LINE
  8
0
 62
     0
 10
33.3678
 20
60.4132
 30
0.0
 11
33.5732
 21
60.4023
 31
0.0
  0
LINE
  8
0
 62
     0
 10
33.5732
 20
60.4023
 30
0.0
 11
34.1878
 21
60.3373
 31
0.0
  0
LINE
  8
0
 62
     0
 10
34.1878
 20
60.3373
 30
0.0
 11
34.699
 21
60.1543
 31
0.0
  0
LINE
  8
0
 62
     0
 10
34.699
 20
60.1543
 30
0.0
 11
35.0848
 21
59.7489
 31
0.0
  0
LINE
  8
0
 62
     0
 10
35.0848
 20
59.7489
 30
0.0
 11
35.4224
 21
59.1922
 31
0.0
  0
LINE
  8
0
 62
     0
 10
35.4224
 20
59.1922
 30
0.0
 11
35.5286
 21
59.0021
 31
0.0
  0
LINE
  8
0
 62
     0
 10
35.5286
 20
59.0021
 30
0.0
 11
36.2603
 21
57.6873
 31
0.0
  0
LINE
  8
0
 62
     0
 10
36.2603
 20
57.6873
 30
0.0
 11
35.6263
 21
56.8332
 31
0.0
  0
LINE
  8
0
 62
     0
 10
35.6263
 20
56.8332
 30
0.0
 11
35.4969
 21
56.6593
 31
0.0
  0
LINE
  8
0
 62
     0
 10
35.4969
 20
56.6593
 30
0.0
 11
35.162
 21
56.0998
 31
0.0
  0
LINE
  8
0
 62
     0
 10
35.162
 20
56.0998
 30
0.0
 11
35.0394
 21
55.5308
 31
0.0
  0
LINE
  8
0
 62
     0
 10
35.0394
 20
55.5308
 30
0.0
 11
35.2695
 21
55.0101
 31
0.0
  0
LINE
  8
0
 62
     0
 10
35.2695
 20
55.0101
 30
0.0
 11
35.7036
 21
54.5578
 31
0.0
  0
LINE
  8
0
 62
     0
 10
35.7036
 20
54.5578
 30
0.0
 11
35.8634
 21
54.4241
 31
0.0
  0
LINE
  8
0
 62
     0
 10
35.8634
 20
54.4241
 30
0.0
 11
36.7372
 21
53.6843
 31
0.0
  0
LINE
  8
0
 62
     0
 10
36.7372
 20
53.6843
 30
0.0
 11
37.5931
 21
54.3278
 31
0.0
  0
LINE
  8
0
 62
     0
 10
37.5931
 20
54.3278
 30
0.0
 11
37.7102
 21
54.416
 31
0.0
  0
LINE
  8
0
 62
     0
 10
37.7102
 20
54.416
 30
0.0
 11
38.2972
 21
54.8513
 31
0.0
  0
LINE
  8
0
 62
     0
 10
38.2972
 20
54.8513
 30
0.0
 11
38.7505
 21
55.1836
 31
0.0
  0
LINE
  8
0
 62
     0
 10
38.7505
 20
55.1836
 30
0.0
 11
38.8013
 21
55.2178
 31
0.0
  0
LINE
  8
0
 62
     0
 10
38.8013
 20
55.2178
 30
0.0
 11
38.8592
 21
55.2609
 31
0.0
  0
LINE
  8
0
 62
     0
 10
38.8592
 20
55.2609
 30
0.0
 11
39.4229
 21
55.269
 31
0.0
  0
LINE
  8
0
 62
     0
 10
39.4229
 20
55.269
 30
0.0
 11
40.3144
 21
55.0115
 31
0.0
  0
LINE
  8
0
 62
     0
 10
40.3144
 20
55.0115
 30
0.0
 11
40.5377
 21
54.919
 31
0.0
  0
LINE
  8
0
 62
     0
 10
40.5377
 20
54.919
 30
0.0
 11
40.7307
 21
54.8404
 31
0.0
  0
LINE
  8
0
 62
     0
 10
40.7307
 20
54.8404
 30
0.0
 11
41.3025
 21
54.5772
 31
0.0
  0
LINE
  8
0
 62
     0
 10
41.3025
 20
54.5772
 30
0.0
 11
41.7435
 21
54.2466
 31
0.0
  0
LINE
  8
0
 62
     0
 10
41.7435
 20
54.2466
 30
0.0
 11
41.9848
 21
53.7834
 31
0.0
  0
LINE
  8
0
 62
     0
 10
41.9848
 20
53.7834
 30
0.0
 11
42.1185
 21
53.2282
 31
0.0
  0
LINE
  8
0
 62
     0
 10
42.1185
 20
53.2282
 30
0.0
 11
42.1527
 21
53.0408
 31
0.0
  0
LINE
  8
0
 62
     0
 10
42.1527
 20
53.0408
 30
0.0
 11
42.3898
 21
51.7179
 31
0.0
  0
LINE
  8
0
 62
     0
 10
42.3898
 20
51.7179
 30
0.0
 11
45.1598
 21
51.7179
 31
0.0
  0
LINE
  8
0
 62
     0
 10
45.1598
 20
51.7179
 30
0.0
 11
45.1598
 21
52.8105
 31
0.0
  0
LINE
  8
0
 62
     0
 10
45.1598
 20
52.8105
 30
0.0
 11
45.1598
 21
53.0077
 31
0.0
  0
LINE
  8
0
 62
     0
 10
45.1598
 20
53.0077
 30
0.0
 11
45.2258
 21
53.5989
 31
0.0
  0
LINE
  8
0
 62
     0
 10
45.2258
 20
53.5989
 30
0.0
 11
45.5097
 21
54.132
 31
0.0
  0
LINE
  8
0
 62
     0
 10
45.5097
 20
54.132
 30
0.0
 11
46.138
 21
54.5426
 31
0.0
  0
LINE
  8
0
 62
     0
 10
46.138
 20
54.5426
 30
0.0
 11
46.9607
 21
54.8693
 31
0.0
  0
LINE
  8
0
 62
     0
 10
46.9607
 20
54.8693
 30
0.0
 11
47.2405
 21
54.9631
 31
0.0
  0
LINE
  8
0
 62
     0
 10
47.2405
 20
54.9631
 30
0.0
 11
48.6075
 21
55.4302
 31
0.0
  0
LINE
  8
0
 62
     0
 10
48.6075
 20
55.4302
 30
0.0
 11
49.3931
 21
54.6806
 31
0.0
  0
LINE
  8
0
 62
     0
 10
49.3931
 20
54.6806
 30
0.0
 11
49.5184
 21
54.5606
 31
0.0
  0
LINE
  8
0
 62
     0
 10
49.5184
 20
54.5606
 30
0.0
 11
50.1442
 21
54.1472
 31
0.0
  0
LINE
  8
0
 62
     0
 10
50.1442
 20
54.1472
 30
0.0
 11
50.7326
 21
54.0039
 31
0.0
  0
LINE
  8
0
 62
     0
 10
50.7326
 20
54.0039
 30
0.0
 11
50.8399
 21
54.0191
 31
0.0
  0
LINE
  8
0
 62
     0
 10
50.8399
 20
54.0191
 30
0.0
 11
50.9446
 21
54.1154
 31
0.0
  0
LINE
  8
0
 62
     0
 10
50.9446
 20
54.1154
 30
0.0
 11
50.9446
 21
70.0705
 31
0.0
  0
LINE
  8
0
 62
     0
 10
50.9446
 20
70.0705
 30
0.0
 11
50.1343
 21
71.2431
 31
0.0
  0
LINE
  8
0
 62
     0
 10
50.1343
 20
71.2431
 30
0.0
 11
49.9332
 21
71.4156
 31
0.0
  0
LINE
  8
0
 62
     0
 10
49.9332
 20
71.4156
 30
0.0
 11
49.3448
 21
71.942
 31
0.0
  0
LINE
  8
0
 62
     0
 10
49.3448
 20
71.942
 30
0.0
 11
48.9574
 21
72.4394
 31
0.0
  0
LINE
  8
0
 62
     0
 10
48.9574
 20
72.4394
 30
0.0
 11
48.8597
 21
72.9738
 31
0.0
  0
LINE
  8
0
 62
     0
 10
48.8597
 20
72.9738
 30
0.0
 11
48.9162
 21
73.5817
 31
0.0
  0
LINE
  8
0
 62
     0
 10
48.9162
 20
73.5817
 30
0.0
 11
48.9437
 21
73.7828
 31
0.0
  0
LINE
  8
0
 62
     0
 10
48.9437
 20
73.7828
 30
0.0
 11
48.9701
 21
73.9828
 31
0.0
  0
LINE
  8
0
 62
     0
 10
48.9701
 20
73.9828
 30
0.0
 11
49.0319
 21
74.5808
 31
0.0
  0
LINE
  8
0
 62
     0
 10
49.0319
 20
74.5808
 30
0.0
 11
48.9783
 21
75.0369
 31
0.0
  0
LINE
  8
0
 62
     0
 10
48.9783
 20
75.0369
 30
0.0
 11
48.7056
 21
75.3138
 31
0.0
  0
LINE
  8
0
 62
     0
 10
48.7056
 20
75.3138
 30
0.0
 11
48.2836
 21
75.5153
 31
0.0
  0
LINE
  8
0
 62
     0
 10
48.2836
 20
75.5153
 30
0.0
 11
48.1404
 21
75.5745
 31
0.0
  0
LINE
  8
0
 62
     0
 10
48.1404
 20
75.5745
 30
0.0
 11
47.9806
 21
75.6405
 31
0.0
  0
LINE
  8
0
 62
     0
 10
47.9806
 20
75.6405
 30
0.0
 11
47.3357
 21
75.8694
 31
0.0
  0
LINE
  8
0
 62
     0
 10
47.3357
 20
75.8694
 30
0.0
 11
46.8574
 21
75.9506
 31
0.0
  0
LINE
  8
0
 62
     0
 10
46.8574
 20
75.9506
 30
0.0
 11
46.7829
 21
75.9435
 31
0.0
  0
LINE
  8
0
 62
     0
 10
43.7226
 20
69.1706
 30
0.0
 11
43.9843
 21
69.1706
 31
0.0
  0
LINE
  8
0
 62
     0
 10
43.9843
 20
69.1706
 30
0.0
 11
44.7738
 21
69.0644
 31
0.0
  0
LINE
  8
0
 62
     0
 10
44.7738
 20
69.0644
 30
0.0
 11
45.7535
 21
68.7613
 31
0.0
  0
LINE
  8
0
 62
     0
 10
45.7535
 20
68.7613
 30
0.0
 11
46.6397
 21
68.2791
 31
0.0
  0
LINE
  8
0
 62
     0
 10
46.6397
 20
68.2791
 30
0.0
 11
47.4126
 21
67.6409
 31
0.0
  0
LINE
  8
0
 62
     0
 10
47.4126
 20
67.6409
 30
0.0
 11
48.0508
 21
66.8694
 31
0.0
  0
LINE
  8
0
 62
     0
 10
48.0508
 20
66.8694
 30
0.0
 11
48.5331
 21
65.9818
 31
0.0
  0
LINE
  8
0
 62
     0
 10
48.5331
 20
65.9818
 30
0.0
 11
48.8364
 21
65.0021
 31
0.0
  0
LINE
  8
0
 62
     0
 10
48.8364
 20
65.0021
 30
0.0
 11
48.9437
 21
64.2126
 31
0.0
  0
LINE
  8
0
 62
     0
 10
48.9437
 20
64.2126
 30
0.0
 11
48.9437
 21
63.9491
 31
0.0
  0
LINE
  8
0
 62
     0
 10
48.9437
 20
63.9491
 30
0.0
 11
48.9437
 21
63.6873
 31
0.0
  0
LINE
  8
0
 62
     0
 10
48.9437
 20
63.6873
 30
0.0
 11
48.8364
 21
62.8978
 31
0.0
  0
LINE
  8
0
 62
     0
 10
48.8364
 20
62.8978
 30
0.0
 11
48.5331
 21
61.9181
 31
0.0
  0
LINE
  8
0
 62
     0
 10
48.5331
 20
61.9181
 30
0.0
 11
48.0508
 21
61.032
 31
0.0
  0
LINE
  8
0
 62
     0
 10
48.0508
 20
61.032
 30
0.0
 11
47.4126
 21
60.259
 31
0.0
  0
LINE
  8
0
 62
     0
 10
47.4126
 20
60.259
 30
0.0
 11
46.6397
 21
59.6223
 31
0.0
  0
LINE
  8
0
 62
     0
 10
46.6397
 20
59.6223
 30
0.0
 11
45.7535
 21
59.14
 31
0.0
  0
LINE
  8
0
 62
     0
 10
45.7535
 20
59.14
 30
0.0
 11
44.7738
 21
58.8366
 31
0.0
  0
LINE
  8
0
 62
     0
 10
44.7738
 20
58.8366
 30
0.0
 11
43.9843
 21
58.7294
 31
0.0
  0
LINE
  8
0
 62
     0
 10
43.9843
 20
58.7294
 30
0.0
 11
43.7226
 21
58.7294
 31
0.0
  0
LINE
  8
0
 62
     0
 10
43.7226
 20
58.7294
 30
0.0
 11
43.459
 21
58.7294
 31
0.0
  0
LINE
  8
0
 62
     0
 10
43.459
 20
58.7294
 30
0.0
 11
42.6695
 21
58.8366
 31
0.0
  0
LINE
  8
0
 62
     0
 10
42.6695
 20
58.8366
 30
0.0
 11
41.6899
 21
59.14
 31
0.0
  0
LINE
  8
0
 62
     0
 10
41.6899
 20
59.14
 30
0.0
 11
40.8023
 21
59.6223
 31
0.0
  0
LINE
  8
0
 62
     0
 10
40.8023
 20
59.6223
 30
0.0
 11
40.0308
 21
60.259
 31
0.0
  0
LINE
  8
0
 62
     0
 10
40.0308
 20
60.259
 30
0.0
 11
39.3926
 21
61.032
 31
0.0
  0
LINE
  8
0
 62
     0
 10
39.3926
 20
61.032
 30
0.0
 11
38.9103
 21
61.9181
 31
0.0
  0
LINE
  8
0
 62
     0
 10
38.9103
 20
61.9181
 30
0.0
 11
38.6073
 21
62.8978
 31
0.0
  0
LINE
  8
0
 62
     0
 10
38.6073
 20
62.8978
 30
0.0
 11
38.5011
 21
63.6873
 31
0.0
  0
LINE
  8
0
 62
     0
 10
38.5011
 20
63.6873
 30
0.0
 11
38.5011
 21
63.9491
 31
0.0
  0
LINE
  8
0
 62
     0
 10
38.5011
 20
63.9491
 30
0.0
 11
38.5011
 21
64.2126
 31
0.0
  0
LINE
  8
0
 62
     0
 10
38.5011
 20
64.2126
 30
0.0
 11
38.6073
 21
65.0021
 31
0.0
  0
LINE
  8
0
 62
     0
 10
38.6073
 20
65.0021
 30
0.0
 11
38.9103
 21
65.9818
 31
0.0
  0
LINE
  8
0
 62
     0
 10
38.9103
 20
65.9818
 30
0.0
 11
39.3926
 21
66.8694
 31
0.0
  0
LINE
  8
0
 62
     0
 10
39.3926
 20
66.8694
 30
0.0
 11
40.0308
 21
67.6409
 31
0.0
  0
LINE
  8
0
 62
     0
 10
40.0308
 20
67.6409
 30
0.0
 11
40.8023
 21
68.2791
 31
0.0
  0
LINE
  8
0
 62
     0
 10
40.8023
 20
68.2791
 30
0.0
 11
41.6899
 21
68.7613
 31
0.0
  0
LINE
  8
0
 62
     0
 10
41.6899
 20
68.7613
 30
0.0
 11
42.6695
 21
69.0644
 31
0.0
  0
LINE
  8
0
 62
     0
 10
42.6695
 20
69.0644
 30
0.0
 11
43.459
 21
69.1706
 31
0.0
  0
LINE
  8
0
 62
     0
 10
43.459
 20
69.1706
 30
0.0
 11
43.7226
 21
69.1706
 31
0.0
  0
LINE
  8
0
 62
     9
 10
55.5819
 20
133.703
 30
0.0
 11
52.7773
 21
128.623
 31
0.0
  0
LINE
  8
0
 62
     9
 10
52.7773
 20
128.623
 30
0.0
 11
52.7773
 21
30.1267
 31
0.0
  0
LINE
  8
0
 62
     9
 10
52.7773
 20
30.1267
 30
0.0
 11
52.488
 21
30.0729
 31
0.0
  0
LINE
  8
0
 62
     9
 10
52.488
 20
30.0729
 30
0.0
 11
51.1609
 21
30.128
 31
0.0
  0
LINE
  8
0
 62
     9
 10
51.1609
 20
30.128
 30
0.0
 11
49.8962
 21
30.5635
 31
0.0
  0
LINE
  8
0
 62
     9
 10
49.8962
 20
30.5635
 30
0.0
 11
49.6383
 21
30.6999
 31
0.0
  0
LINE
  8
0
 62
     9
 10
49.6383
 20
30.6999
 30
0.0
 11
49.5198
 21
30.8295
 31
0.0
  0
LINE
  8
0
 62
     9
 10
49.5198
 20
30.8295
 30
0.0
 11
49.0954
 21
31.1533
 31
0.0
  0
LINE
  8
0
 62
     9
 10
49.0954
 20
31.1533
 30
0.0
 11
48.5881
 21
31.3159
 31
0.0
  0
LINE
  8
0
 62
     9
 10
48.5881
 20
31.3159
 30
0.0
 11
48.1252
 21
31.2388
 31
0.0
  0
LINE
  8
0
 62
     9
 10
48.1252
 20
31.2388
 30
0.0
 11
47.7118
 21
30.9645
 31
0.0
  0
LINE
  8
0
 62
     9
 10
47.7118
 20
30.9645
 30
0.0
 11
47.3534
 21
30.5428
 31
0.0
  0
LINE
  8
0
 62
     9
 10
47.3534
 20
30.5428
 30
0.0
 11
47.0574
 21
30.0178
 31
0.0
  0
LINE
  8
0
 62
     9
 10
47.0574
 20
30.0178
 30
0.0
 11
46.8284
 21
29.4376
 31
0.0
  0
LINE
  8
0
 62
     9
 10
46.8284
 20
29.4376
 30
0.0
 11
46.7032
 21
28.9981
 31
0.0
  0
LINE
  8
0
 62
     9
 10
46.7032
 20
28.9981
 30
0.0
 11
46.6743
 21
28.8478
 31
0.0
  0
LINE
  8
0
 62
     9
 10
46.6743
 20
28.8478
 30
0.0
 11
46.6796
 21
28.7169
 31
0.0
  0
LINE
  8
0
 62
     9
 10
46.6796
 20
28.7169
 30
0.0
 11
46.7639
 21
28.3242
 31
0.0
  0
LINE
  8
0
 62
     9
 10
46.7639
 20
28.3242
 30
0.0
 11
46.9678
 21
27.8074
 31
0.0
  0
LINE
  8
0
 62
     9
 10
46.9678
 20
27.8074
 30
0.0
 11
47.2694
 21
27.3279
 31
0.0
  0
LINE
  8
0
 62
     9
 10
47.2694
 20
27.3279
 30
0.0
 11
47.6525
 21
26.9214
 31
0.0
  0
LINE
  8
0
 62
     9
 10
47.6525
 20
26.9214
 30
0.0
 11
48.0977
 21
26.6196
 31
0.0
  0
LINE
  8
0
 62
     9
 10
48.0977
 20
26.6196
 30
0.0
 11
48.5881
 21
26.4542
 31
0.0
  0
LINE
  8
0
 62
     9
 10
48.5881
 20
26.4542
 30
0.0
 11
49.1077
 21
26.4611
 31
0.0
  0
LINE
  8
0
 62
     9
 10
49.1077
 20
26.4611
 30
0.0
 11
49.5184
 21
26.5975
 31
0.0
  0
LINE
  8
0
 62
     9
 10
49.5184
 20
26.5975
 30
0.0
 11
49.6383
 21
26.6706
 31
0.0
  0
LINE
  8
0
 62
     9
 10
49.6383
 20
26.6706
 30
0.0
 11
49.7692
 21
26.7904
 31
0.0
  0
LINE
  8
0
 62
     9
 10
49.7692
 20
26.7904
 30
0.0
 11
50.2433
 21
27.0592
 31
0.0
  0
LINE
  8
0
 62
     9
 10
50.2433
 20
27.0592
 30
0.0
 11
51.048
 21
27.3527
 31
0.0
  0
LINE
  8
0
 62
     9
 10
51.048
 20
27.3527
 30
0.0
 11
51.9395
 21
27.5167
 31
0.0
  0
LINE
  8
0
 62
     9
 10
51.9395
 20
27.5167
 30
0.0
 11
52.59
 21
27.5415
 31
0.0
  0
LINE
  8
0
 62
     9
 10
52.59
 20
27.5415
 30
0.0
 11
52.8038
 21
27.5167
 31
0.0
  0
LINE
  8
0
 62
     9
 10
52.8038
 20
27.5167
 30
0.0
 11
54.0826
 21
26.7408
 31
0.0
  0
LINE
  8
0
 62
     9
 10
54.0826
 20
26.7408
 30
0.0
 11
54.0826
 21
13.0004
 31
0.0
  0
LINE
  8
0
 62
     9
 10
54.0826
 20
13.0004
 30
0.0
 11
54.0219
 21
8.45841
 31
0.0
  0
LINE
  8
0
 62
     9
 10
54.0219
 20
8.45841
 30
0.0
 11
53.7337
 21
8.34542
 31
0.0
  0
LINE
  8
0
 62
     9
 10
53.7337
 20
8.34542
 30
0.0
 11
52.9414
 21
7.83276
 31
0.0
  0
LINE
  8
0
 62
     9
 10
52.9414
 20
7.83276
 30
0.0
 11
52.0926
 21
6.92877
 31
0.0
  0
LINE
  8
0
 62
     9
 10
52.0926
 20
6.92877
 30
0.0
 11
51.5387
 21
5.80566
 31
0.0
  0
LINE
  8
0
 62
     9
 10
51.5387
 20
5.80566
 30
0.0
 11
51.3401
 21
4.84519
 31
0.0
  0
LINE
  8
0
 62
     9
 10
51.3401
 20
4.84519
 30
0.0
 11
51.3401
 21
4.52409
 31
0.0
  0
LINE
  8
0
 62
     9
 10
51.3401
 20
4.52409
 30
0.0
 11
51.3401
 21
4.3119
 31
0.0
  0
LINE
  8
0
 62
     9
 10
51.3401
 20
4.3119
 30
0.0
 11
51.4255
 21
3.67249
 31
0.0
  0
LINE
  8
0
 62
     9
 10
51.4255
 20
3.67249
 30
0.0
 11
51.6724
 21
2.87734
 31
0.0
  0
LINE
  8
0
 62
     9
 10
51.6724
 20
2.87734
 30
0.0
 11
52.0622
 21
2.15801
 31
0.0
  0
LINE
  8
0
 62
     9
 10
52.0622
 20
2.15801
 30
0.0
 11
52.5805
 21
1.531
 31
0.0
  0
LINE
  8
0
 62
     9
 10
52.5805
 20
1.531
 30
0.0
 11
53.2059
 21
1.01424
 31
0.0
  0
LINE
  8
0
 62
     9
 10
53.2059
 20
1.01424
 30
0.0
 11
53.9253
 21
0.624251
 31
0.0
  0
LINE
  8
0
 62
     9
 10
53.9253
 20
0.624251
 30
0.0
 11
54.7204
 21
0.377582
 31
0.0
  0
LINE
  8
0
 62
     9
 10
54.7204
 20
0.377582
 30
0.0
 11
55.36
 21
0.290766
 31
0.0
  0
LINE
  8
0
 62
     9
 10
55.36
 20
0.290766
 30
0.0
 11
55.5734
 21
0.290766
 31
0.0
  0
LINE
  8
0
 62
     9
 10
55.5734
 20
0.290766
 30
0.0
 11
55.7858
 21
0.290766
 31
0.0
  0
LINE
  8
0
 62
     9
 10
55.7858
 20
0.290766
 30
0.0
 11
56.425
 21
0.377582
 31
0.0
  0
LINE
  8
0
 62
     9
 10
56.425
 20
0.377582
 30
0.0
 11
57.2202
 21
0.624251
 31
0.0
  0
LINE
  8
0
 62
     9
 10
57.2202
 20
0.624251
 30
0.0
 11
57.9395
 21
1.01424
 31
0.0
  0
LINE
  8
0
 62
     9
 10
57.9395
 20
1.01424
 30
0.0
 11
58.5668
 21
1.531
 31
0.0
  0
LINE
  8
0
 62
     9
 10
58.5668
 20
1.531
 30
0.0
 11
59.0832
 21
2.15801
 31
0.0
  0
LINE
  8
0
 62
     9
 10
59.0832
 20
2.15801
 30
0.0
 11
59.4734
 21
2.87734
 31
0.0
  0
LINE
  8
0
 62
     9
 10
59.4734
 20
2.87734
 30
0.0
 11
59.72
 21
3.67249
 31
0.0
  0
LINE
  8
0
 62
     9
 10
59.72
 20
3.67249
 30
0.0
 11
59.8068
 21
4.3119
 31
0.0
  0
LINE
  8
0
 62
     9
 10
59.8068
 20
4.3119
 30
0.0
 11
59.8068
 21
4.52409
 31
0.0
  0
LINE
  8
0
 62
     9
 10
59.8068
 20
4.52409
 30
0.0
 11
59.8068
 21
4.84519
 31
0.0
  0
LINE
  8
0
 62
     9
 10
59.8068
 20
4.84519
 30
0.0
 11
59.6085
 21
5.80566
 31
0.0
  0
LINE
  8
0
 62
     9
 10
59.6085
 20
5.80566
 30
0.0
 11
59.0571
 21
6.92877
 31
0.0
  0
LINE
  8
0
 62
     9
 10
59.0571
 20
6.92877
 30
0.0
 11
58.2126
 21
7.83276
 31
0.0
  0
LINE
  8
0
 62
     9
 10
58.2126
 20
7.83276
 30
0.0
 11
57.4202
 21
8.34542
 31
0.0
  0
LINE
  8
0
 62
     9
 10
57.4202
 20
8.34542
 30
0.0
 11
57.1348
 21
8.45841
 31
0.0
  0
LINE
  8
0
 62
     9
 10
57.1348
 20
8.45841
 30
0.0
 11
57.0727
 21
13.0004
 31
0.0
  0
LINE
  8
0
 62
     9
 10
57.0727
 20
13.0004
 30
0.0
 11
57.0727
 21
26.7408
 31
0.0
  0
LINE
  8
0
 62
     9
 10
57.0727
 20
26.7408
 30
0.0
 11
58.3516
 21
27.5167
 31
0.0
  0
LINE
  8
0
 62
     9
 10
58.3516
 20
27.5167
 30
0.0
 11
58.5639
 21
27.5415
 31
0.0
  0
LINE
  8
0
 62
     9
 10
58.5639
 20
27.5415
 30
0.0
 11
59.2155
 21
27.5167
 31
0.0
  0
LINE
  8
0
 62
     9
 10
59.2155
 20
27.5167
 30
0.0
 11
60.1102
 21
27.3527
 31
0.0
  0
LINE
  8
0
 62
     9
 10
60.1102
 20
27.3527
 30
0.0
 11
60.9191
 21
27.0592
 31
0.0
  0
LINE
  8
0
 62
     9
 10
60.9191
 20
27.0592
 30
0.0
 11
61.3943
 21
26.7904
 31
0.0
  0
LINE
  8
0
 62
     9
 10
61.3943
 20
26.7904
 30
0.0
 11
61.5266
 21
26.6706
 31
0.0
  0
LINE
  8
0
 62
     9
 10
61.5266
 20
26.6706
 30
0.0
 11
61.6451
 21
26.5989
 31
0.0
  0
LINE
  8
0
 62
     9
 10
61.6451
 20
26.5989
 30
0.0
 11
62.0557
 21
26.4611
 31
0.0
  0
LINE
  8
0
 62
     9
 10
62.0557
 20
26.4611
 30
0.0
 11
62.574
 21
26.4542
 31
0.0
  0
LINE
  8
0
 62
     9
 10
62.574
 20
26.4542
 30
0.0
 11
63.0633
 21
26.6196
 31
0.0
  0
LINE
  8
0
 62
     9
 10
63.0633
 20
26.6196
 30
0.0
 11
63.5071
 21
26.9214
 31
0.0
  0
LINE
  8
0
 62
     9
 10
63.5071
 20
26.9214
 30
0.0
 11
63.8874
 21
27.3279
 31
0.0
  0
LINE
  8
0
 62
     9
 10
63.8874
 20
27.3279
 30
0.0
 11
64.1876
 21
27.8074
 31
0.0
  0
LINE
  8
0
 62
     9
 10
64.1876
 20
27.8074
 30
0.0
 11
64.3915
 21
28.3242
 31
0.0
  0
LINE
  8
0
 62
     9
 10
64.3915
 20
28.3242
 30
0.0
 11
64.4744
 21
28.7169
 31
0.0
  0
LINE
  8
0
 62
     9
 10
64.4744
 20
28.7169
 30
0.0
 11
64.4811
 21
28.8478
 31
0.0
  0
LINE
  8
0
 62
     9
 10
64.4811
 20
28.8478
 30
0.0
 11
64.4507
 21
28.9981
 31
0.0
  0
LINE
  8
0
 62
     9
 10
64.4507
 20
28.9981
 30
0.0
 11
64.3269
 21
29.4376
 31
0.0
  0
LINE
  8
0
 62
     9
 10
64.3269
 20
29.4376
 30
0.0
 11
64.0994
 21
30.0178
 31
0.0
  0
LINE
  8
0
 62
     9
 10
64.0994
 20
30.0178
 30
0.0
 11
63.803
 21
30.5428
 31
0.0
  0
LINE
  8
0
 62
     9
 10
63.803
 20
30.5428
 30
0.0
 11
63.4478
 21
30.9645
 31
0.0
  0
LINE
  8
0
 62
     9
 10
63.4478
 20
30.9645
 30
0.0
 11
63.0357
 21
31.2388
 31
0.0
  0
LINE
  8
0
 62
     9
 10
63.0357
 20
31.2388
 30
0.0
 11
62.574
 21
31.3159
 31
0.0
  0
LINE
  8
0
 62
     9
 10
62.574
 20
31.3159
 30
0.0
 11
62.0681
 21
31.1533
 31
0.0
  0
LINE
  8
0
 62
     9
 10
62.0681
 20
31.1533
 30
0.0
 11
61.6437
 21
30.8295
 31
0.0
  0
LINE
  8
0
 62
     9
 10
61.6437
 20
30.8295
 30
0.0
 11
61.5266
 21
30.6999
 31
0.0
  0
LINE
  8
0
 62
     9
 10
61.5266
 20
30.6999
 30
0.0
 11
61.2676
 21
30.5635
 31
0.0
  0
LINE
  8
0
 62
     9
 10
61.2676
 20
30.5635
 30
0.0
 11
60.0026
 21
30.128
 31
0.0
  0
LINE
  8
0
 62
     9
 10
60.0026
 20
30.128
 30
0.0
 11
58.6754
 21
30.0729
 31
0.0
  0
LINE
  8
0
 62
     9
 10
58.6754
 20
30.0729
 30
0.0
 11
58.3875
 21
30.1267
 31
0.0
  0
LINE
  8
0
 62
     9
 10
58.3875
 20
30.1267
 30
0.0
 11
58.3875
 21
128.623
 31
0.0
  0
LINE
  8
0
 62
     9
 10
58.3875
 20
128.623
 30
0.0
 11
55.5819
 21
133.703
 31
0.0
  0
LINE
  8
0
 62
     0
 10
26.6568
 20
98.2306
 30
0.0
 11
26.6209
 21
98.232
 31
0.0
  0
LINE
  8
0
 62
     0
 10
26.6209
 20
98.232
 30
0.0
 11
26.2034
 21
98.1798
 31
0.0
  0
LINE
  8
0
 62
     0
 10
26.2034
 20
98.1798
 30
0.0
 11
26.1538
 21
98.1685
 31
0.0
  0
LINE
  8
0
 62
     0
 10
26.1538
 20
98.1685
 30
0.0
 11
25.9388
 21
98.1258
 31
0.0
  0
LINE
  8
0
 62
     0
 10
25.9388
 20
98.1258
 30
0.0
 11
25.3104
 21
97.9191
 31
0.0
  0
LINE
  8
0
 62
     0
 10
25.3104
 20
97.9191
 30
0.0
 11
24.8364
 21
97.5335
 31
0.0
  0
LINE
  8
0
 62
     0
 10
24.8364
 20
97.5335
 30
0.0
 11
24.6793
 21
96.938
 31
0.0
  0
LINE
  8
0
 62
     0
 10
24.6793
 20
96.938
 30
0.0
 11
24.7468
 21
96.2766
 31
0.0
  0
LINE
  8
0
 62
     0
 10
24.7468
 20
96.2766
 30
0.0
 11
24.7951
 21
96.0617
 31
0.0
  0
LINE
  8
0
 62
     0
 10
24.7951
 20
96.0617
 30
0.0
 11
24.8309
 21
95.9019
 31
0.0
  0
LINE
  8
0
 62
     0
 10
24.8309
 20
95.9019
 30
0.0
 11
24.9177
 21
95.414
 31
0.0
  0
LINE
  8
0
 62
     0
 10
24.9177
 20
95.414
 30
0.0
 11
24.9163
 21
94.9731
 31
0.0
  0
LINE
  8
0
 62
     0
 10
24.9163
 20
94.9731
 30
0.0
 11
24.7716
 21
94.634
 31
0.0
  0
LINE
  8
0
 62
     0
 10
24.7716
 20
94.634
 30
0.0
 11
24.5429
 21
94.3681
 31
0.0
  0
LINE
  8
0
 62
     0
 10
24.5429
 20
94.3681
 30
0.0
 11
24.4602
 21
94.288
 31
0.0
  0
LINE
  8
0
 62
     0
 10
24.4602
 20
94.288
 30
0.0
 11
24.2452
 21
94.0841
 31
0.0
  0
LINE
  8
0
 62
     0
 10
24.2452
 20
94.0841
 30
0.0
 11
23.5672
 21
93.5013
 31
0.0
  0
LINE
  8
0
 62
     0
 10
23.5672
 20
93.5013
 30
0.0
 11
22.8644
 21
93.1016
 31
0.0
  0
LINE
  8
0
 62
     0
 10
22.8644
 20
93.1016
 30
0.0
 11
22.1616
 21
93.0271
 31
0.0
  0
LINE
  8
0
 62
     0
 10
22.1616
 20
93.0271
 30
0.0
 11
21.4864
 21
93.1527
 31
0.0
  0
LINE
  8
0
 62
     0
 10
21.4864
 20
93.1527
 30
0.0
 11
21.2673
 21
93.2134
 31
0.0
  0
LINE
  8
0
 62
     0
 10
21.2673
 20
93.2134
 30
0.0
 11
21.0881
 21
93.2642
 31
0.0
  0
LINE
  8
0
 62
     0
 10
21.0881
 20
93.2642
 30
0.0
 11
20.5466
 21
93.3979
 31
0.0
  0
LINE
  8
0
 62
     0
 10
20.5466
 20
93.3979
 30
0.0
 11
20.1028
 21
93.4378
 31
0.0
  0
LINE
  8
0
 62
     0
 10
20.1028
 20
93.4378
 30
0.0
 11
19.8162
 21
93.3221
 31
0.0
  0
LINE
  8
0
 62
     0
 10
19.8162
 20
93.3221
 30
0.0
 11
19.6205
 21
93.1139
 31
0.0
  0
LINE
  8
0
 62
     0
 10
19.6205
 20
93.1139
 30
0.0
 11
19.5654
 21
93.037
 31
0.0
  0
LINE
  8
0
 62
     0
 10
19.5654
 20
93.037
 30
0.0
 11
19.4372
 21
92.8617
 31
0.0
  0
LINE
  8
0
 62
     0
 10
19.4372
 20
92.8617
 30
0.0
 11
19.1189
 21
92.286
 31
0.0
  0
LINE
  8
0
 62
     0
 10
19.1189
 20
92.286
 30
0.0
 11
18.9935
 21
91.6506
 31
0.0
  0
LINE
  8
0
 62
     0
 10
18.9935
 20
91.6506
 30
0.0
 11
19.1933
 21
91.0759
 31
0.0
  0
LINE
  8
0
 62
     0
 10
19.1933
 20
91.0759
 30
0.0
 11
19.575
 21
90.6307
 31
0.0
  0
LINE
  8
0
 62
     0
 10
19.575
 20
90.6307
 30
0.0
 11
19.7239
 21
90.5055
 31
0.0
  0
LINE
  8
0
 62
     0
 10
19.7239
 20
90.5055
 30
0.0
 11
19.8961
 21
90.3609
 31
0.0
  0
LINE
  8
0
 62
     0
 10
19.8961
 20
90.3609
 30
0.0
 11
20.4198
 21
89.7075
 31
0.0
  0
LINE
  8
0
 62
     0
 10
20.4198
 20
89.7075
 30
0.0
 11
20.5975
 21
88.936
 31
0.0
  0
LINE
  8
0
 62
     0
 10
20.5975
 20
88.936
 30
0.0
 11
20.5975
 21
88.7317
 31
0.0
  0
LINE
  8
0
 62
     0
 10
20.5975
 20
88.7317
 30
0.0
 11
20.5962
 21
88.4851
 31
0.0
  0
LINE
  8
0
 62
     0
 10
20.5962
 20
88.4851
 30
0.0
 11
20.4914
 21
87.7411
 31
0.0
  0
LINE
  8
0
 62
     0
 10
20.4914
 20
87.7411
 30
0.0
 11
20.18
 21
86.9625
 31
0.0
  0
LINE
  8
0
 62
     0
 10
20.18
 20
86.9625
 30
0.0
 11
19.6564
 21
86.3879
 31
0.0
  0
LINE
  8
0
 62
     0
 10
19.6564
 20
86.3879
 30
0.0
 11
19.1079
 21
86.0735
 31
0.0
  0
LINE
  8
0
 62
     0
 10
19.1079
 20
86.0735
 30
0.0
 11
18.9136
 21
86.0076
 31
0.0
  0
LINE
  8
0
 62
     0
 10
18.9136
 20
86.0076
 30
0.0
 11
18.7441
 21
85.9511
 31
0.0
  0
LINE
  8
0
 62
     0
 10
18.7441
 20
85.9511
 30
0.0
 11
18.2687
 21
85.6851
 31
0.0
  0
LINE
  8
0
 62
     0
 10
18.2687
 20
85.6851
 30
0.0
 11
17.8938
 21
85.2181
 31
0.0
  0
LINE
  8
0
 62
     0
 10
17.8938
 20
85.2181
 30
0.0
 11
17.7753
 21
84.5785
 31
0.0
  0
LINE
  8
0
 62
     0
 10
17.7753
 20
84.5785
 30
0.0
 11
17.847
 21
83.9392
 31
0.0
  0
LINE
  8
0
 62
     0
 10
17.847
 20
83.9392
 30
0.0
 11
17.8993
 21
83.7325
 31
0.0
  0
LINE
  8
0
 62
     0
 10
17.8993
 20
83.7325
 30
0.0
 11
17.9214
 21
83.6443
 31
0.0
  0
LINE
  8
0
 62
     0
 10
17.9214
 20
83.6443
 30
0.0
 11
18.0358
 21
83.3864
 31
0.0
  0
LINE
  8
0
 62
     0
 10
18.0358
 20
83.3864
 30
0.0
 11
18.2893
 21
83.1755
 31
0.0
  0
LINE
  8
0
 62
     0
 10
18.2893
 20
83.1755
 30
0.0
 11
18.7468
 21
83.0584
 31
0.0
  0
LINE
  8
0
 62
     0
 10
18.7468
 20
83.0584
 30
0.0
 11
19.3077
 21
83.0019
 31
0.0
  0
LINE
  8
0
 62
     0
 10
19.3077
 20
83.0019
 30
0.0
 11
19.4951
 21
82.991
 31
0.0
  0
LINE
  8
0
 62
     0
 10
19.4951
 20
82.991
 30
0.0
 11
19.7005
 21
82.98
 31
0.0
  0
LINE
  8
0
 62
     0
 10
19.7005
 20
82.98
 30
0.0
 11
20.315
 21
82.9165
 31
0.0
  0
LINE
  8
0
 62
     0
 10
20.315
 20
82.9165
 30
0.0
 11
20.8263
 21
82.7334
 31
0.0
  0
LINE
  8
0
 62
     0
 10
20.8263
 20
82.7334
 30
0.0
 11
21.2135
 21
82.3172
 31
0.0
  0
LINE
  8
0
 62
     0
 10
21.2135
 20
82.3172
 30
0.0
 11
21.5567
 21
81.7411
 31
0.0
  0
LINE
  8
0
 62
     0
 10
21.5567
 20
81.7411
 30
0.0
 11
21.6642
 21
81.5439
 31
0.0
  0
LINE
  8
0
 62
     0
 10
21.6642
 20
81.5439
 30
0.0
 11
22.4138
 21
80.1769
 31
0.0
  0
LINE
  8
0
 62
     0
 10
22.4138
 20
80.1769
 30
0.0
 11
21.7358
 21
78.8899
 31
0.0
  0
LINE
  8
0
 62
     0
 10
21.7358
 20
78.8899
 30
0.0
 11
21.0468
 21
77.6111
 31
0.0
  0
LINE
  8
0
 62
     0
 10
21.0468
 20
77.6111
 30
0.0
 11
21.8846
 21
76.9415
 31
0.0
  0
LINE
  8
0
 62
     0
 10
21.8846
 20
76.9415
 30
0.0
 11
22.0486
 21
76.8103
 31
0.0
  0
LINE
  8
0
 62
     0
 10
22.0486
 20
76.8103
 30
0.0
 11
22.5805
 21
76.4632
 31
0.0
  0
LINE
  8
0
 62
     0
 10
22.5805
 20
76.4632
 30
0.0
 11
23.1442
 21
76.3157
 31
0.0
  0
LINE
  8
0
 62
     0
 10
23.1442
 20
76.3157
 30
0.0
 11
23.6871
 21
76.5044
 31
0.0
  0
LINE
  8
0
 62
     0
 10
23.6871
 20
76.5044
 30
0.0
 11
24.1791
 21
76.8876
 31
0.0
  0
LINE
  8
0
 62
     0
 10
24.1791
 20
76.8876
 30
0.0
 11
24.3279
 21
77.0297
 31
0.0
  0
LINE
  8
0
 62
     0
 10
24.3279
 20
77.0297
 30
0.0
 11
25.1134
 21
77.7875
 31
0.0
  0
LINE
  8
0
 62
     0
 10
25.1134
 20
77.7875
 30
0.0
 11
26.665
 21
77.2943
 31
0.0
  0
LINE
  8
0
 62
     0
 10
26.665
 20
77.2943
 30
0.0
 11
26.8511
 21
77.2365
 31
0.0
  0
LINE
  8
0
 62
     0
 10
26.8511
 20
77.2365
 30
0.0
 11
27.405
 21
77.0308
 31
0.0
  0
LINE
  8
0
 62
     0
 10
27.405
 20
77.0308
 30
0.0
 11
27.9053
 21
76.7761
 31
0.0
  0
LINE
  8
0
 62
     0
 10
27.9053
 20
76.7761
 30
0.0
 11
28.2029
 21
76.5016
 31
0.0
  0
LINE
  8
0
 62
     0
 10
28.2029
 20
76.5016
 30
0.0
 11
28.3242
 21
76.2663
 31
0.0
  0
LINE
  8
0
 62
     0
 10
28.3242
 20
76.2663
 30
0.0
 11
28.3407
 21
76.182
 31
0.0
  0
LINE
  8
0
 62
     0
 10
28.3407
 20
76.182
 30
0.0
 11
28.3573
 21
76.0966
 31
0.0
  0
LINE
  8
0
 62
     0
 10
28.3573
 20
76.0966
 30
0.0
 11
28.4772
 21
75.5177
 31
0.0
  0
LINE
  8
0
 62
     0
 10
28.4772
 20
75.5177
 30
0.0
 11
28.6081
 21
74.8965
 31
0.0
  0
LINE
  8
0
 62
     0
 10
28.6081
 20
74.8965
 30
0.0
 11
28.6315
 21
74.7889
 31
0.0
  0
LINE
  8
0
 62
     0
 10
28.6315
 20
74.7889
 30
0.0
 11
28.6536
 21
74.6827
 31
0.0
  0
LINE
  8
0
 62
     0
 10
28.6536
 20
74.6827
 30
0.0
 11
28.7569
 21
74.3712
 31
0.0
  0
LINE
  8
0
 62
     0
 10
28.7569
 20
74.3712
 30
0.0
 11
28.9719
 21
74.137
 31
0.0
  0
LINE
  8
0
 62
     0
 10
28.9719
 20
74.137
 30
0.0
 11
29.3743
 21
74.035
 31
0.0
  0
LINE
  8
0
 62
     0
 10
29.3743
 20
74.035
 30
0.0
 11
29.8883
 21
74.0131
 31
0.0
  0
LINE
  8
0
 62
     0
 10
29.8883
 20
74.0131
 30
0.0
 11
30.0605
 21
74.0131
 31
0.0
  0
LINE
  8
0
 62
     0
 10
30.0605
 20
74.0131
 30
0.0
 11
30.2245
 21
74.0131
 31
0.0
  0
LINE
  8
0
 62
     0
 10
30.2245
 20
74.0131
 30
0.0
 11
30.7165
 21
74.0364
 31
0.0
  0
LINE
  8
0
 62
     0
 10
30.7165
 20
74.0364
 30
0.0
 11
31.1161
 21
74.1274
 31
0.0
  0
LINE
  8
0
 62
     0
 10
31.1161
 20
74.1274
 30
0.0
 11
31.3338
 21
74.3204
 31
0.0
  0
LINE
  8
0
 62
     0
 10
31.3338
 20
74.3204
 30
0.0
 11
31.4275
 21
74.5642
 31
0.0
  0
LINE
  8
0
 62
     0
 10
31.4275
 20
74.5642
 30
0.0
 11
31.4454
 21
74.6485
 31
0.0
  0
LINE
  8
0
 62
     0
 10
31.4454
 20
74.6485
 30
0.0
 11
31.462
 21
74.7367
 31
0.0
  0
LINE
  8
0
 62
     0
 10
31.462
 20
74.7367
 30
0.0
 11
31.5805
 21
75.311
 31
0.0
  0
LINE
  8
0
 62
     0
 10
31.5805
 20
75.311
 30
0.0
 11
31.7059
 21
75.9146
 31
0.0
  0
LINE
  8
0
 62
     0
 10
31.7059
 20
75.9146
 30
0.0
 11
31.728
 21
76.0155
 31
0.0
  0
LINE
  8
0
 62
     0
 10
31.728
 20
76.0155
 30
0.0
 11
31.7569
 21
76.1559
 31
0.0
  0
LINE
  8
0
 62
     0
 10
31.7569
 20
76.1559
 30
0.0
 11
32.129
 21
76.7016
 31
0.0
  0
LINE
  8
0
 62
     0
 10
32.129
 20
76.7016
 30
0.0
 11
32.9351
 21
77.1564
 31
0.0
  0
LINE
  8
0
 62
     0
 10
32.9351
 20
77.1564
 30
0.0
 11
33.1832
 21
77.2502
 31
0.0
  0
LINE
  8
0
 62
     0
 10
33.1832
 20
77.2502
 30
0.0
 11
33.3885
 21
77.3285
 31
0.0
  0
LINE
  8
0
 62
     0
 10
33.3885
 20
77.3285
 30
0.0
 11
34.0196
 21
77.5324
 31
0.0
  0
LINE
  8
0
 62
     0
 10
34.0196
 20
77.5324
 30
0.0
 11
34.6604
 21
77.5575
 31
0.0
  0
LINE
  8
0
 62
     0
 10
34.6604
 20
77.5575
 30
0.0
 11
35.384
 21
77.2693
 31
0.0
  0
LINE
  8
0
 62
     0
 10
35.384
 20
77.2693
 30
0.0
 11
36.2038
 21
76.7842
 31
0.0
  0
LINE
  8
0
 62
     0
 10
36.2038
 20
76.7842
 30
0.0
 11
36.4726
 21
76.6149
 31
0.0
  0
LINE
  8
0
 62
     0
 10
36.4726
 20
76.6149
 30
0.0
 11
36.5827
 21
76.5457
 31
0.0
  0
LINE
  8
0
 62
     0
 10
36.5827
 20
76.5457
 30
0.0
 11
36.9288
 21
76.3545
 31
0.0
  0
LINE
  8
0
 62
     0
 10
36.9288
 20
76.3545
 30
0.0
 11
37.2565
 21
76.3104
 31
0.0
  0
LINE
  8
0
 62
     0
 10
37.2565
 20
76.3104
 30
0.0
 11
37.6054
 21
76.5168
 31
0.0
  0
LINE
  8
0
 62
     0
 10
37.6054
 20
76.5168
 30
0.0
 11
37.9952
 21
76.8862
 31
0.0
  0
LINE
  8
0
 62
     0
 10
37.9952
 20
76.8862
 30
0.0
 11
38.1222
 21
77.0117
 31
0.0
  0
LINE
  8
0
 62
     0
 10
38.1222
 20
77.0117
 30
0.0
 11
39.0042
 21
77.8937
 31
0.0
  0
LINE
  8
0
 62
     0
 10
39.0042
 20
77.8937
 30
0.0
 11
38.3427
 21
79.0582
 31
0.0
  0
LINE
  8
0
 62
     0
 10
38.3427
 20
79.0582
 30
0.0
 11
37.6813
 21
80.2308
 31
0.0
  0
LINE
  8
0
 62
     0
 10
37.6813
 20
80.2308
 30
0.0
 11
38.4129
 21
81.5619
 31
0.0
  0
LINE
  8
0
 62
     0
 10
38.4129
 20
81.5619
 30
0.0
 11
38.5177
 21
81.7548
 31
0.0
  0
LINE
  8
0
 62
     0
 10
38.5177
 20
81.7548
 30
0.0
 11
38.8567
 21
82.3214
 31
0.0
  0
LINE
  8
0
 62
     0
 10
38.8567
 20
82.3214
 30
0.0
 11
39.2437
 21
82.732
 31
0.0
  0
LINE
  8
0
 62
     0
 10
39.2437
 20
82.732
 30
0.0
 11
39.7605
 21
82.9151
 31
0.0
  0
LINE
  8
0
 62
     0
 10
39.7605
 20
82.9151
 30
0.0
 11
40.3835
 21
82.98
 31
0.0
  0
LINE
  8
0
 62
     0
 10
40.3835
 20
82.98
 30
0.0
 11
40.5917
 21
82.991
 31
0.0
  0
LINE
  8
0
 62
     0
 10
40.5917
 20
82.991
 30
0.0
 11
40.7956
 21
83.0033
 31
0.0
  0
LINE
  8
0
 62
     0
 10
40.7956
 20
83.0033
 30
0.0
 11
41.4087
 21
83.0584
 31
0.0
  0
LINE
  8
0
 62
     0
 10
41.4087
 20
83.0584
 30
0.0
 11
41.8592
 21
83.1935
 31
0.0
  0
LINE
  8
0
 62
     0
 10
41.8592
 20
83.1935
 30
0.0
 11
42.0811
 21
83.4912
 31
0.0
  0
LINE
  8
0
 62
     0
 10
42.0811
 20
83.4912
 30
0.0
 11
42.1873
 21
83.9033
 31
0.0
  0
LINE
  8
0
 62
     0
 10
42.1873
 20
83.9033
 30
0.0
 11
42.2134
 21
84.0412
 31
0.0
  0
LINE
  8
0
 62
     0
 10
42.2134
 20
84.0412
 30
0.0
 11
42.2508
 21
84.2451
 31
0.0
  0
LINE
  8
0
 62
     0
 10
42.2508
 20
84.2451
 30
0.0
 11
42.3058
 21
84.8678
 31
0.0
  0
LINE
  8
0
 62
     0
 10
42.3058
 20
84.8678
 30
0.0
 11
42.1968
 21
85.4273
 31
0.0
  0
LINE
  8
0
 62
     0
 10
42.1968
 20
85.4273
 30
0.0
 11
41.8525
 21
85.7843
 31
0.0
  0
LINE
  8
0
 62
     0
 10
41.8525
 20
85.7843
 30
0.0
 11
41.3992
 21
85.9649
 31
0.0
  0
LINE
  8
0
 62
     0
 10
41.3992
 20
85.9649
 30
0.0
 11
41.2433
 21
85.9977
 31
0.0
  0
LINE
  8
0
 62
     0
 10
41.2433
 20
85.9977
 30
0.0
 11
41.0778
 21
86.0351
 31
0.0
  0
LINE
  8
0
 62
     0
 10
41.0778
 20
86.0351
 30
0.0
 11
40.5955
 21
86.2005
 31
0.0
  0
LINE
  8
0
 62
     0
 10
40.5955
 20
86.2005
 30
0.0
 11
40.1588
 21
86.5463
 31
0.0
  0
LINE
  8
0
 62
     0
 10
40.1588
 20
86.5463
 30
0.0
 11
39.8336
 21
87.1608
 31
0.0
  0
LINE
  8
0
 62
     0
 10
39.8336
 20
87.1608
 30
0.0
 11
39.5912
 21
87.9147
 31
0.0
  0
LINE
  8
0
 62
     0
 10
39.5912
 20
87.9147
 30
0.0
 11
39.5235
 21
88.1683
 31
0.0
  0
LINE
  8
0
 62
     0
 10
39.5235
 20
88.1683
 30
0.0
 11
39.4628
 21
88.3941
 31
0.0
  0
LINE
  8
0
 62
     0
 10
39.4628
 20
88.3941
 30
0.0
 11
39.3277
 21
89.082
 31
0.0
  0
LINE
  8
0
 62
     0
 10
39.3277
 20
89.082
 30
0.0
 11
39.3594
 21
89.6867
 31
0.0
  0
LINE
  8
0
 62
     0
 10
39.3594
 20
89.6867
 30
0.0
 11
39.6543
 21
90.0892
 31
0.0
  0
LINE
  8
0
 62
     0
 10
39.6543
 20
90.0892
 30
0.0
 11
40.0925
 21
90.3333
 31
0.0
  0
LINE
  8
0
 62
     0
 10
40.0925
 20
90.3333
 30
0.0
 11
40.247
 21
90.3912
 31
0.0
  0
LINE
  8
0
 62
     0
 10
40.247
 20
90.3912
 30
0.0
 11
40.3973
 21
90.449
 31
0.0
  0
LINE
  8
0
 62
     0
 10
40.3973
 20
90.449
 30
0.0
 11
40.8132
 21
90.7175
 31
0.0
  0
LINE
  8
0
 62
     0
 10
40.8132
 20
90.7175
 30
0.0
 11
41.093
 21
91.1712
 31
0.0
  0
LINE
  8
0
 62
     0
 10
41.093
 20
91.1712
 30
0.0
 11
41.0905
 21
91.7744
 31
0.0
  0
LINE
  8
0
 62
     0
 10
41.0905
 20
91.7744
 30
0.0
 11
40.9004
 21
92.3671
 31
0.0
  0
LINE
  8
0
 62
     0
 10
40.9004
 20
92.3671
 30
0.0
 11
40.8122
 21
92.552
 31
0.0
  0
LINE
  8
0
 62
     0
 10
40.8122
 20
92.552
 30
0.0
 11
40.7472
 21
92.6853
 31
0.0
  0
LINE
  8
0
 62
     0
 10
40.7472
 20
92.6853
 30
0.0
 11
40.5324
 21
93.0755
 31
0.0
  0
LINE
  8
0
 62
     0
 10
40.5324
 20
93.0755
 30
0.0
 11
40.2759
 21
93.3524
 31
0.0
  0
LINE
  8
0
 62
     0
 10
40.2759
 20
93.3524
 30
0.0
 11
39.9577
 21
93.4339
 31
0.0
  0
LINE
  8
0
 62
     0
 10
39.9577
 20
93.4339
 30
0.0
 11
39.6102
 21
93.3951
 31
0.0
  0
LINE
  8
0
 62
     0
 10
39.6102
 20
93.3951
 30
0.0
 11
39.4974
 21
93.3718
 31
0.0
  0
LINE
  8
0
 62
     0
 10
39.4974
 20
93.3718
 30
0.0
 11
39.1527
 21
93.3016
 31
0.0
  0
LINE
  8
0
 62
     0
 10
39.1527
 20
93.3016
 30
0.0
 11
38.1152
 21
93.1072
 31
0.0
  0
LINE
  8
0
 62
     0
 10
38.1152
 20
93.1072
 30
0.0
 11
37.2967
 21
93.0684
 31
0.0
  0
LINE
  8
0
 62
     0
 10
37.2967
 20
93.0684
 30
0.0
 11
36.7164
 21
93.2974
 31
0.0
  0
LINE
  8
0
 62
     0
 10
36.7164
 20
93.2974
 30
0.0
 11
36.2109
 21
93.6985
 31
0.0
  0
LINE
  8
0
 62
     0
 10
36.2109
 20
93.6985
 30
0.0
 11
36.0497
 21
93.8389
 31
0.0
  0
LINE
  8
0
 62
     0
 10
36.0497
 20
93.8389
 30
0.0
 11
35.8951
 21
93.9726
 31
0.0
  0
LINE
  8
0
 62
     0
 10
35.8951
 20
93.9726
 30
0.0
 11
35.4471
 21
94.3903
 31
0.0
  0
LINE
  8
0
 62
     0
 10
35.4471
 20
94.3903
 30
0.0
 11
35.1593
 21
94.8171
 31
0.0
  0
LINE
  8
0
 62
     0
 10
35.1593
 20
94.8171
 30
0.0
 11
35.1138
 21
95.3188
 31
0.0
  0
LINE
  8
0
 62
     0
 10
35.1138
 20
95.3188
 30
0.0
 11
35.2006
 21
95.9033
 31
0.0
  0
LINE
  8
0
 62
     0
 10
35.2006
 20
95.9033
 30
0.0
 11
35.2378
 21
96.096
 31
0.0
  0
LINE
  8
0
 62
     0
 10
35.2378
 20
96.096
 30
0.0
 11
35.2806
 21
96.3291
 31
0.0
  0
LINE
  8
0
 62
     0
 10
35.2806
 20
96.3291
 30
0.0
 11
35.3452
 21
97.0361
 31
0.0
  0
LINE
  8
0
 62
     0
 10
35.3452
 20
97.0361
 30
0.0
 11
35.1923
 21
97.6256
 31
0.0
  0
LINE
  8
0
 62
     0
 10
35.1923
 20
97.6256
 30
0.0
 11
34.7059
 21
97.9703
 31
0.0
  0
LINE
  8
0
 62
     0
 10
34.7059
 20
97.9703
 30
0.0
 11
34.0417
 21
98.1438
 31
0.0
  0
LINE
  8
0
 62
     0
 10
34.0417
 20
98.1438
 30
0.0
 11
33.8184
 21
98.1784
 31
0.0
  0
LINE
  8
0
 62
     0
 10
33.8184
 20
98.1784
 30
0.0
 11
33.6875
 21
98.1989
 31
0.0
  0
LINE
  8
0
 62
     0
 10
33.6875
 20
98.1989
 30
0.0
 11
33.292
 21
98.2292
 31
0.0
  0
LINE
  8
0
 62
     0
 10
33.292
 20
98.2292
 30
0.0
 11
32.9379
 21
98.1329
 31
0.0
  0
LINE
  8
0
 62
     0
 10
32.9379
 20
98.1329
 30
0.0
 11
32.6499
 21
97.8256
 31
0.0
  0
LINE
  8
0
 62
     0
 10
32.6499
 20
97.8256
 30
0.0
 11
32.3963
 21
97.3914
 31
0.0
  0
LINE
  8
0
 62
     0
 10
32.3963
 20
97.3914
 30
0.0
 11
32.3191
 21
97.2425
 31
0.0
  0
LINE
  8
0
 62
     0
 10
32.3191
 20
97.2425
 30
0.0
 11
32.2378
 21
97.0883
 31
0.0
  0
LINE
  8
0
 62
     0
 10
32.2378
 20
97.0883
 30
0.0
 11
31.9664
 21
96.6364
 31
0.0
  0
LINE
  8
0
 62
     0
 10
31.9664
 20
96.6364
 30
0.0
 11
31.6067
 21
96.3027
 31
0.0
  0
LINE
  8
0
 62
     0
 10
31.6067
 20
96.3027
 30
0.0
 11
31.0569
 21
96.1499
 31
0.0
  0
LINE
  8
0
 62
     0
 10
31.0569
 20
96.1499
 30
0.0
 11
30.3692
 21
96.0921
 31
0.0
  0
LINE
  8
0
 62
     0
 10
30.3692
 20
96.0921
 30
0.0
 11
30.1405
 21
96.0797
 31
0.0
  0
LINE
  8
0
 62
     0
 10
30.1405
 20
96.0797
 30
0.0
 11
28.5268
 21
95.9997
 31
0.0
  0
LINE
  8
0
 62
     0
 10
28.5268
 20
95.9997
 30
0.0
 11
27.7854
 21
97.1723
 31
0.0
  0
LINE
  8
0
 62
     0
 10
27.7854
 20
97.1723
 30
0.0
 11
27.6586
 21
97.3737
 31
0.0
  0
LINE
  8
0
 62
     0
 10
27.6586
 20
97.3737
 30
0.0
 11
27.1859
 21
98.002
 31
0.0
  0
LINE
  8
0
 62
     0
 10
27.1859
 20
98.002
 30
0.0
 11
26.7601
 21
98.2292
 31
0.0
  0
LINE
  8
0
 62
     0
 10
26.7601
 20
98.2292
 30
0.0
 11
26.6568
 21
98.2306
 31
0.0
  0
LINE
  8
0
 62
     0
 10
30.0426
 20
91.3433
 30
0.0
 11
30.3044
 21
91.3433
 31
0.0
  0
LINE
  8
0
 62
     0
 10
30.3044
 20
91.3433
 30
0.0
 11
31.094
 21
91.2372
 31
0.0
  0
LINE
  8
0
 62
     0
 10
31.094
 20
91.2372
 30
0.0
 11
32.0738
 21
90.9341
 31
0.0
  0
LINE
  8
0
 62
     0
 10
32.0738
 20
90.9341
 30
0.0
 11
32.9613
 21
90.4515
 31
0.0
  0
LINE
  8
0
 62
     0
 10
32.9613
 20
90.4515
 30
0.0
 11
33.7344
 21
89.8137
 31
0.0
  0
LINE
  8
0
 62
     0
 10
33.7344
 20
89.8137
 30
0.0
 11
34.371
 21
89.0404
 31
0.0
  0
LINE
  8
0
 62
     0
 10
34.371
 20
89.0404
 30
0.0
 11
34.8534
 21
88.1546
 31
0.0
  0
LINE
  8
0
 62
     0
 10
34.8534
 20
88.1546
 30
0.0
 11
35.1565
 21
87.1746
 31
0.0
  0
LINE
  8
0
 62
     0
 10
35.1565
 20
87.1746
 30
0.0
 11
35.264
 21
86.385
 31
0.0
  0
LINE
  8
0
 62
     0
 10
35.264
 20
86.385
 30
0.0
 11
35.264
 21
86.1219
 31
0.0
  0
LINE
  8
0
 62
     0
 10
35.264
 20
86.1219
 30
0.0
 11
35.264
 21
85.8601
 31
0.0
  0
LINE
  8
0
 62
     0
 10
35.264
 20
85.8601
 30
0.0
 11
35.1565
 21
85.0706
 31
0.0
  0
LINE
  8
0
 62
     0
 10
35.1565
 20
85.0706
 30
0.0
 11
34.8534
 21
84.0906
 31
0.0
  0
LINE
  8
0
 62
     0
 10
34.8534
 20
84.0906
 30
0.0
 11
34.371
 21
83.2044
 31
0.0
  0
LINE
  8
0
 62
     0
 10
34.371
 20
83.2044
 30
0.0
 11
33.7344
 21
82.4315
 31
0.0
  0
LINE
  8
0
 62
     0
 10
33.7344
 20
82.4315
 30
0.0
 11
32.9613
 21
81.7933
 31
0.0
  0
LINE
  8
0
 62
     0
 10
32.9613
 20
81.7933
 30
0.0
 11
32.0738
 21
81.311
 31
0.0
  0
LINE
  8
0
 62
     0
 10
32.0738
 20
81.311
 30
0.0
 11
31.094
 21
81.008
 31
0.0
  0
LINE
  8
0
 62
     0
 10
31.094
 20
81.008
 30
0.0
 11
30.3044
 21
80.9004
 31
0.0
  0
LINE
  8
0
 62
     0
 10
30.3044
 20
80.9004
 30
0.0
 11
30.0426
 21
80.9004
 31
0.0
  0
LINE
  8
0
 62
     0
 10
30.0426
 20
80.9004
 30
0.0
 11
29.7794
 21
80.9004
 31
0.0
  0
LINE
  8
0
 62
     0
 10
29.7794
 20
80.9004
 30
0.0
 11
28.9898
 21
81.008
 31
0.0
  0
LINE
  8
0
 62
     0
 10
28.9898
 20
81.008
 30
0.0
 11
28.01
 21
81.311
 31
0.0
  0
LINE
  8
0
 62
     0
 10
28.01
 20
81.311
 30
0.0
 11
27.1239
 21
81.7933
 31
0.0
  0
LINE
  8
0
 62
     0
 10
27.1239
 20
81.7933
 30
0.0
 11
26.3508
 21
82.4315
 31
0.0
  0
LINE
  8
0
 62
     0
 10
26.3508
 20
82.4315
 30
0.0
 11
25.7142
 21
83.2044
 31
0.0
  0
LINE
  8
0
 62
     0
 10
25.7142
 20
83.2044
 30
0.0
 11
25.2319
 21
84.0906
 31
0.0
  0
LINE
  8
0
 62
     0
 10
25.2319
 20
84.0906
 30
0.0
 11
24.9287
 21
85.0706
 31
0.0
  0
LINE
  8
0
 62
     0
 10
24.9287
 20
85.0706
 30
0.0
 11
24.8226
 21
85.8601
 31
0.0
  0
LINE
  8
0
 62
     0
 10
24.8226
 20
85.8601
 30
0.0
 11
24.8226
 21
86.1219
 31
0.0
  0
LINE
  8
0
 62
     0
 10
24.8226
 20
86.1219
 30
0.0
 11
24.8226
 21
86.385
 31
0.0
  0
LINE
  8
0
 62
     0
 10
24.8226
 20
86.385
 30
0.0
 11
24.9287
 21
87.1746
 31
0.0
  0
LINE
  8
0
 62
     0
 10
24.9287
 20
87.1746
 30
0.0
 11
25.2319
 21
88.1546
 31
0.0
  0
LINE
  8
0
 62
     0
 10
25.2319
 20
88.1546
 30
0.0
 11
25.7142
 21
89.0404
 31
0.0
  0
LINE
  8
0
 62
     0
 10
25.7142
 20
89.0404
 30
0.0
 11
26.3508
 21
89.8137
 31
0.0
  0
LINE
  8
0
 62
     0
 10
26.3508
 20
89.8137
 30
0.0
 11
27.1239
 21
90.4515
 31
0.0
  0
LINE
  8
0
 62
     0
 10
27.1239
 20
90.4515
 30
0.0
 11
28.01
 21
90.9341
 31
0.0
  0
LINE
  8
0
 62
     0
 10
28.01
 20
90.9341
 30
0.0
 11
28.9898
 21
91.2372
 31
0.0
  0
LINE
  8
0
 62
     0
 10
28.9898
 20
91.2372
 30
0.0
 11
29.7794
 21
91.3433
 31
0.0
  0
LINE
  8
0
 62
     0
 10
29.7794
 20
91.3433
 30
0.0
 11
30.0426
 21
91.3433
 31
0.0
  0
LINE
  8
0
 62
     0
 10
59.6194
 20
69.3554
 30
0.0
 11
59.6194
 21
84.3361
 31
0.0
  0
LINE
  8
0
 62
     0
 10
59.6194
 20
84.3361
 30
0.0
 11
59.6194
 21
84.347
 31
0.0
  0
LINE
  8
0
 62
     0
 10
59.6194
 20
84.347
 30
0.0
 11
59.7683
 21
84.3802
 31
0.0
  0
LINE
  8
0
 62
     0
 10
59.7683
 20
84.3802
 30
0.0
 11
60.1595
 21
84.2864
 31
0.0
  0
LINE
  8
0
 62
     0
 10
60.1595
 20
84.2864
 30
0.0
 11
60.7025
 21
84.0863
 31
0.0
  0
LINE
  8
0
 62
     0
 10
60.7025
 20
84.0863
 30
0.0
 11
61.1614
 21
83.8824
 31
0.0
  0
LINE
  8
0
 62
     0
 10
61.1614
 20
83.8824
 30
0.0
 11
61.3117
 21
83.808
 31
0.0
  0
LINE
  8
0
 62
     0
 10
61.3117
 20
83.808
 30
0.0
 11
62.1122
 21
83.4101
 31
0.0
  0
LINE
  8
0
 62
     0
 10
62.1122
 20
83.4101
 30
0.0
 11
65.9652
 21
82.5253
 31
0.0
  0
LINE
  8
0
 62
     0
 10
65.9652
 20
82.5253
 30
0.0
 11
69.6599
 21
83.1233
 31
0.0
  0
LINE
  8
0
 62
     0
 10
69.6599
 20
83.1233
 30
0.0
 11
70.382
 21
83.4637
 31
0.0
  0
LINE
  8
0
 62
     0
 10
70.382
 20
83.4637
 30
0.0
 11
70.7983
 21
83.662
 31
0.0
  0
LINE
  8
0
 62
     0
 10
70.7983
 20
83.662
 30
0.0
 11
71.9709
 21
84.4254
 31
0.0
  0
LINE
  8
0
 62
     0
 10
71.9709
 20
84.4254
 30
0.0
 11
73.4893
 21
85.725
 31
0.0
  0
LINE
  8
0
 62
     0
 10
73.4893
 20
85.725
 30
0.0
 11
74.8069
 21
87.2367
 31
0.0
  0
LINE
  8
0
 62
     0
 10
74.8069
 20
87.2367
 30
0.0
 11
75.5897
 21
88.4107
 31
0.0
  0
LINE
  8
0
 62
     0
 10
75.5897
 20
88.4107
 30
0.0
 11
75.795
 21
88.8284
 31
0.0
  0
LINE
  8
0
 62
     0
 10
75.795
 20
88.8284
 30
0.0
 11
75.9121
 21
89.0693
 31
0.0
  0
LINE
  8
0
 62
     0
 10
75.9121
 20
89.0693
 30
0.0
 11
76.2317
 21
89.8052
 31
0.0
  0
LINE
  8
0
 62
     0
 10
76.2317
 20
89.8052
 30
0.0
 11
76.4812
 21
90.6667
 31
0.0
  0
LINE
  8
0
 62
     0
 10
76.4812
 20
90.6667
 30
0.0
 11
76.5955
 21
91.6672
 31
0.0
  0
LINE
  8
0
 62
     0
 10
76.5955
 20
91.6672
 30
0.0
 11
76.623
 21
92.7132
 31
0.0
  0
LINE
  8
0
 62
     0
 10
76.623
 20
92.7132
 30
0.0
 11
76.623
 21
93.0617
 31
0.0
  0
LINE
  8
0
 62
     0
 10
76.623
 20
93.0617
 30
0.0
 11
76.623
 21
93.4159
 31
0.0
  0
LINE
  8
0
 62
     0
 10
76.623
 20
93.4159
 30
0.0
 11
76.5955
 21
94.4757
 31
0.0
  0
LINE
  8
0
 62
     0
 10
76.5955
 20
94.4757
 30
0.0
 11
76.4741
 21
95.498
 31
0.0
  0
LINE
  8
0
 62
     0
 10
76.4741
 20
95.498
 30
0.0
 11
76.2014
 21
96.4131
 31
0.0
  0
LINE
  8
0
 62
     0
 10
76.2014
 20
96.4131
 30
0.0
 11
75.8486
 21
97.2358
 31
0.0
  0
LINE
  8
0
 62
     0
 10
75.8486
 20
97.2358
 30
0.0
 11
75.722
 21
97.5046
 31
0.0
  0
LINE
  8
0
 62
     0
 10
75.722
 20
97.5046
 30
0.0
 11
75.475
 21
98.0253
 31
0.0
  0
LINE
  8
0
 62
     0
 10
75.475
 20
98.0253
 30
0.0
 11
74.5437
 21
99.4929
 31
0.0
  0
LINE
  8
0
 62
     0
 10
74.5437
 20
99.4929
 30
0.0
 11
73.0885
 21
101.127
 31
0.0
  0
LINE
  8
0
 62
     0
 10
73.0885
 20
101.127
 30
0.0
 11
71.4005
 21
102.395
 31
0.0
  0
LINE
  8
0
 62
     0
 10
71.4005
 20
102.395
 30
0.0
 11
69.5276
 21
103.276
 31
0.0
  0
LINE
  8
0
 62
     0
 10
69.5276
 20
103.276
 30
0.0
 11
67.5171
 21
103.757
 31
0.0
  0
LINE
  8
0
 62
     0
 10
67.5171
 20
103.757
 30
0.0
 11
65.417
 21
103.819
 31
0.0
  0
LINE
  8
0
 62
     0
 10
65.417
 20
103.819
 30
0.0
 11
63.2725
 21
103.445
 31
0.0
  0
LINE
  8
0
 62
     0
 10
63.2725
 20
103.445
 30
0.0
 11
61.6423
 21
102.876
 31
0.0
  0
LINE
  8
0
 62
     0
 10
61.6423
 20
102.876
 30
0.0
 11
61.1325
 21
102.621
 31
0.0
  0
LINE
  8
0
 62
     0
 10
61.1325
 20
102.621
 30
0.0
 11
60.9946
 21
102.554
 31
0.0
  0
LINE
  8
0
 62
     0
 10
60.9946
 20
102.554
 30
0.0
 11
60.5758
 21
102.365
 31
0.0
  0
LINE
  8
0
 62
     0
 10
60.5758
 20
102.365
 30
0.0
 11
60.0922
 21
102.175
 31
0.0
  0
LINE
  8
0
 62
     0
 10
60.0922
 20
102.175
 30
0.0
 11
59.7503
 21
102.079
 31
0.0
  0
LINE
  8
0
 62
     0
 10
59.7503
 20
102.079
 30
0.0
 11
59.6194
 21
102.102
 31
0.0
  0
LINE
  8
0
 62
     0
 10
59.6194
 20
102.102
 30
0.0
 11
59.6194
 21
102.108
 31
0.0
  0
LINE
  8
0
 62
     0
 10
59.6194
 20
102.108
 30
0.0
 11
59.6194
 21
111.406
 31
0.0
  0
LINE
  8
0
 62
     0
 10
59.6194
 20
111.406
 30
0.0
 11
60.773
 21
111.839
 31
0.0
  0
LINE
  8
0
 62
     0
 10
60.773
 20
111.839
 30
0.0
 11
60.9604
 21
111.898
 31
0.0
  0
LINE
  8
0
 62
     0
 10
60.9604
 20
111.898
 30
0.0
 11
61.8091
 21
112.274
 31
0.0
  0
LINE
  8
0
 62
     0
 10
61.8091
 20
112.274
 30
0.0
 11
62.3507
 21
112.652
 31
0.0
  0
LINE
  8
0
 62
     0
 10
62.3507
 20
112.652
 30
0.0
 11
62.3852
 21
112.713
 31
0.0
  0
LINE
  8
0
 62
     0
 10
62.3852
 20
112.713
 30
0.0
 11
62.4184
 21
112.773
 31
0.0
  0
LINE
  8
0
 62
     0
 10
62.4184
 20
112.773
 30
0.0
 11
62.4953
 21
113.068
 31
0.0
  0
LINE
  8
0
 62
     0
 10
62.4953
 20
113.068
 30
0.0
 11
62.6166
 21
113.707
 31
0.0
  0
LINE
  8
0
 62
     0
 10
62.6166
 20
113.707
 30
0.0
 11
62.7309
 21
114.543
 31
0.0
  0
LINE
  8
0
 62
     0
 10
62.7309
 20
114.543
 30
0.0
 11
62.8068
 21
115.244
 31
0.0
  0
LINE
  8
0
 62
     0
 10
62.8068
 20
115.244
 30
0.0
 11
62.8262
 21
115.478
 31
0.0
  0
LINE
  8
0
 62
     0
 10
62.8262
 20
115.478
 30
0.0
 11
62.8442
 21
115.705
 31
0.0
  0
LINE
  8
0
 62
     0
 10
62.8442
 20
115.705
 30
0.0
 11
62.913
 21
116.386
 31
0.0
  0
LINE
  8
0
 62
     0
 10
62.913
 20
116.386
 30
0.0
 11
63.0273
 21
117.077
 31
0.0
  0
LINE
  8
0
 62
     0
 10
63.0273
 20
117.077
 30
0.0
 11
63.2051
 21
117.581
 31
0.0
  0
LINE
  8
0
 62
     0
 10
63.2051
 20
117.581
 30
0.0
 11
63.4834
 21
117.926
 31
0.0
  0
LINE
  8
0
 62
     0
 10
63.4834
 20
117.926
 30
0.0
 11
63.8983
 21
118.144
 31
0.0
  0
LINE
  8
0
 62
     0
 10
63.8983
 20
118.144
 30
0.0
 11
64.4839
 21
118.262
 31
0.0
  0
LINE
  8
0
 62
     0
 10
64.4839
 20
118.262
 30
0.0
 11
65.2791
 21
118.311
 31
0.0
  0
LINE
  8
0
 62
     0
 10
65.2791
 20
118.311
 30
0.0
 11
66.0605
 21
118.321
 31
0.0
  0
LINE
  8
0
 62
     0
 10
66.0605
 20
118.321
 30
0.0
 11
66.3208
 21
118.321
 31
0.0
  0
LINE
  8
0
 62
     0
 10
66.3208
 20
118.321
 30
0.0
 11
66.5289
 21
118.321
 31
0.0
  0
LINE
  8
0
 62
     0
 10
66.5289
 20
118.321
 30
0.0
 11
67.1558
 21
118.306
 31
0.0
  0
LINE
  8
0
 62
     0
 10
67.1558
 20
118.306
 30
0.0
 11
67.8064
 21
118.241
 31
0.0
  0
LINE
  8
0
 62
     0
 10
67.8064
 20
118.241
 30
0.0
 11
68.2971
 21
118.098
 31
0.0
  0
LINE
  8
0
 62
     0
 10
68.2971
 20
118.098
 30
0.0
 11
68.6551
 21
117.85
 31
0.0
  0
LINE
  8
0
 62
     0
 10
68.6551
 20
117.85
 30
0.0
 11
68.9074
 21
117.468
 31
0.0
  0
LINE
  8
0
 62
     0
 10
68.9074
 20
117.468
 30
0.0
 11
69.0809
 21
116.926
 31
0.0
  0
LINE
  8
0
 62
     0
 10
69.0809
 20
116.926
 30
0.0
 11
69.2023
 21
116.195
 31
0.0
  0
LINE
  8
0
 62
     0
 10
69.2023
 20
116.195
 30
0.0
 11
69.2796
 21
115.485
 31
0.0
  0
LINE
  8
0
 62
     0
 10
69.2796
 20
115.485
 30
0.0
 11
69.3
 21
115.248
 31
0.0
  0
LINE
  8
0
 62
     0
 10
69.3
 20
115.248
 30
0.0
 11
69.318
 21
115.028
 31
0.0
  0
LINE
  8
0
 62
     0
 10
69.318
 20
115.028
 30
0.0
 11
69.3896
 21
114.362
 31
0.0
  0
LINE
  8
0
 62
     0
 10
69.3896
 20
114.362
 30
0.0
 11
69.4916
 21
113.59
 31
0.0
  0
LINE
  8
0
 62
     0
 10
69.4916
 20
113.59
 30
0.0
 11
69.5925
 21
113.016
 31
0.0
  0
LINE
  8
0
 62
     0
 10
69.5925
 20
113.016
 30
0.0
 11
69.6556
 21
112.764
 31
0.0
  0
LINE
  8
0
 62
     0
 10
69.6556
 20
112.764
 30
0.0
 11
69.6817
 21
112.721
 31
0.0
  0
LINE
  8
0
 62
     0
 10
69.6817
 20
112.721
 30
0.0
 11
69.7068
 21
112.679
 31
0.0
  0
LINE
  8
0
 62
     0
 10
69.7068
 20
112.679
 30
0.0
 11
69.9837
 21
112.524
 31
0.0
  0
LINE
  8
0
 62
     0
 10
69.9837
 20
112.524
 30
0.0
 11
70.6699
 21
112.209
 31
0.0
  0
LINE
  8
0
 62
     0
 10
70.6699
 20
112.209
 30
0.0
 11
71.6372
 21
111.822
 31
0.0
  0
LINE
  8
0
 62
     0
 10
71.6372
 20
111.822
 30
0.0
 11
72.4958
 21
111.504
 31
0.0
  0
LINE
  8
0
 62
     0
 10
72.4958
 20
111.504
 30
0.0
 11
72.7837
 21
111.403
 31
0.0
  0
LINE
  8
0
 62
     0
 10
72.7837
 20
111.403
 30
0.0
 11
73.0511
 21
111.311
 31
0.0
  0
LINE
  8
0
 62
     0
 10
73.0511
 20
111.311
 30
0.0
 11
73.8533
 21
111.024
 31
0.0
  0
LINE
  8
0
 62
     0
 10
73.8533
 20
111.024
 30
0.0
 11
74.6471
 21
110.76
 31
0.0
  0
LINE
  8
0
 62
     0
 10
74.6471
 20
110.76
 30
0.0
 11
75.2436
 21
110.628
 31
0.0
  0
LINE
  8
0
 62
     0
 10
75.2436
 20
110.628
 30
0.0
 11
75.7273
 21
110.647
 31
0.0
  0
LINE
  8
0
 62
     0
 10
75.7273
 20
110.647
 30
0.0
 11
76.1792
 21
110.837
 31
0.0
  0
LINE
  8
0
 62
     0
 10
76.1792
 20
110.837
 30
0.0
 11
76.6822
 21
111.213
 31
0.0
  0
LINE
  8
0
 62
     0
 10
76.6822
 20
111.213
 30
0.0
 11
77.3176
 21
111.796
 31
0.0
  0
LINE
  8
0
 62
     0
 10
77.3176
 20
111.796
 30
0.0
 11
77.9558
 21
112.402
 31
0.0
  0
LINE
  8
0
 62
     0
 10
77.9558
 20
112.402
 30
0.0
 11
78.1706
 21
112.602
 31
0.0
  0
LINE
  8
0
 62
     0
 10
78.1706
 20
112.602
 30
0.0
 11
78.3911
 21
112.81
 31
0.0
  0
LINE
  8
0
 62
     0
 10
78.3911
 20
112.81
 30
0.0
 11
79.0924
 21
113.392
 31
0.0
  0
LINE
  8
0
 62
     0
 10
79.0924
 20
113.392
 30
0.0
 11
79.7899
 21
113.731
 31
0.0
  0
LINE
  8
0
 62
     0
 10
79.7899
 20
113.731
 30
0.0
 11
80.4263
 21
113.655
 31
0.0
  0
LINE
  8
0
 62
     0
 10
80.4263
 20
113.655
 30
0.0
 11
80.9971
 21
113.326
 31
0.0
  0
LINE
  8
0
 62
     0
 10
80.9971
 20
113.326
 30
0.0
 11
81.172
 21
113.195
 31
0.0
  0
LINE
  8
0
 62
     0
 10
81.172
 20
113.195
 30
0.0
 11
81.4215
 21
113.007
 31
0.0
  0
LINE
  8
0
 62
     0
 10
81.4215
 20
113.007
 30
0.0
 11
82.145
 21
112.401
 31
0.0
  0
LINE
  8
0
 62
     0
 10
82.145
 20
112.401
 30
0.0
 11
83.0957
 21
111.529
 31
0.0
  0
LINE
  8
0
 62
     0
 10
83.0957
 20
111.529
 30
0.0
 11
83.8151
 21
110.779
 31
0.0
  0
LINE
  8
0
 62
     0
 10
83.8151
 20
110.779
 30
0.0
 11
84.1015
 21
110.456
 31
0.0
  0
LINE
  8
0
 62
     0
 10
84.1015
 20
110.456
 30
0.0
 11
84.1015
 21
110.349
 31
0.0
  0
LINE
  8
0
 62
     0
 10
84.1015
 20
110.349
 30
0.0
 11
84.1015
 21
110.286
 31
0.0
  0
LINE
  8
0
 62
     0
 10
84.1015
 20
110.286
 30
0.0
 11
83.99
 21
110.093
 31
0.0
  0
LINE
  8
0
 62
     0
 10
83.99
 20
110.093
 30
0.0
 11
83.687
 21
109.568
 31
0.0
  0
LINE
  8
0
 62
     0
 10
83.687
 20
109.568
 30
0.0
 11
83.2376
 21
108.851
 31
0.0
  0
LINE
  8
0
 62
     0
 10
83.2376
 20
108.851
 30
0.0
 11
82.8298
 21
108.227
 31
0.0
  0
LINE
  8
0
 62
     0
 10
82.8298
 20
108.227
 30
0.0
 11
82.6904
 21
108.02
 31
0.0
  0
LINE
  8
0
 62
     0
 10
82.6904
 20
108.02
 30
0.0
 11
82.5514
 21
107.816
 31
0.0
  0
LINE
  8
0
 62
     0
 10
82.5514
 20
107.816
 30
0.0
 11
82.1422
 21
107.198
 31
0.0
  0
LINE
  8
0
 62
     0
 10
82.1422
 20
107.198
 30
0.0
 11
81.6928
 21
106.5
 31
0.0
  0
LINE
  8
0
 62
     0
 10
81.6928
 20
106.5
 30
0.0
 11
81.3897
 21
106.005
 31
0.0
  0
LINE
  8
0
 62
     0
 10
81.3897
 20
106.005
 30
0.0
 11
81.2793
 21
105.839
 31
0.0
  0
LINE
  8
0
 62
     0
 10
81.2793
 20
105.839
 30
0.0
 11
81.2793
 21
105.782
 31
0.0
  0
LINE
  8
0
 62
     0
 10
81.2793
 20
105.782
 30
0.0
 11
81.2793
 21
105.726
 31
0.0
  0
LINE
  8
0
 62
     0
 10
81.2793
 20
105.726
 30
0.0
 11
81.3827
 21
105.554
 31
0.0
  0
LINE
  8
0
 62
     0
 10
81.3827
 20
105.554
 30
0.0
 11
81.6666
 21
105.035
 31
0.0
  0
LINE
  8
0
 62
     0
 10
81.6666
 20
105.035
 30
0.0
 11
82.0857
 21
104.305
 31
0.0
  0
LINE
  8
0
 62
     0
 10
82.0857
 20
104.305
 30
0.0
 11
82.4699
 21
103.657
 31
0.0
  0
LINE
  8
0
 62
     0
 10
82.4699
 20
103.657
 30
0.0
 11
82.5997
 21
103.441
 31
0.0
  0
LINE
  8
0
 62
     0
 10
82.5997
 20
103.441
 30
0.0
 11
82.7334
 21
103.218
 31
0.0
  0
LINE
  8
0
 62
     0
 10
82.7334
 20
103.218
 30
0.0
 11
83.1384
 21
102.544
 31
0.0
  0
LINE
  8
0
 62
     0
 10
83.1384
 20
102.544
 30
0.0
 11
83.6316
 21
101.723
 31
0.0
  0
LINE
  8
0
 62
     0
 10
83.6316
 20
101.723
 30
0.0
 11
84.0246
 21
101.067
 31
0.0
  0
LINE
  8
0
 62
     0
 10
84.0246
 20
101.067
 30
0.0
 11
84.2148
 21
100.748
 31
0.0
  0
LINE
  8
0
 62
     0
 10
84.2148
 20
100.748
 30
0.0
 11
84.2627
 21
100.668
 31
0.0
  0
LINE
  8
0
 62
     0
 10
84.2627
 20
100.668
 30
0.0
 11
84.3125
 21
100.583
 31
0.0
  0
LINE
  8
0
 62
     0
 10
84.3125
 20
100.583
 30
0.0
 11
84.5206
 21
100.357
 31
0.0
  0
LINE
  8
0
 62
     0
 10
84.5206
 20
100.357
 30
0.0
 11
84.9658
 21
100.197
 31
0.0
  0
LINE
  8
0
 62
     0
 10
84.9658
 20
100.197
 30
0.0
 11
85.8146
 21
100.159
 31
0.0
  0
LINE
  8
0
 62
     0
 10
85.8146
 20
100.159
 30
0.0
 11
86.917
 21
100.192
 31
0.0
  0
LINE
  8
0
 62
     0
 10
86.917
 20
100.192
 30
0.0
 11
87.285
 21
100.207
 31
0.0
  0
LINE
  8
0
 62
     0
 10
87.285
 20
100.207
 30
0.0
 11
89.964
 21
100.324
 31
0.0
  0
LINE
  8
0
 62
     0
 10
89.964
 20
100.324
 30
0.0
 11
90.3069
 21
99.2837
 31
0.0
  0
LINE
  8
0
 62
     0
 10
90.3069
 20
99.2837
 30
0.0
 11
90.3538
 21
99.1415
 31
0.0
  0
LINE
  8
0
 62
     0
 10
90.3538
 20
99.1415
 30
0.0
 11
90.5605
 21
98.0073
 31
0.0
  0
LINE
  8
0
 62
     0
 10
90.5605
 20
98.0073
 30
0.0
 11
90.6861
 21
96.6488
 31
0.0
  0
LINE
  8
0
 62
     0
 10
90.6861
 20
96.6488
 30
0.0
 11
90.6914
 21
96.3937
 31
0.0
  0
LINE
  8
0
 62
     0
 10
90.6914
 20
96.3937
 30
0.0
 11
90.7341
 21
94.5416
 31
0.0
  0
LINE
  8
0
 62
     0
 10
90.7341
 20
94.5416
 30
0.0
 11
88.4396
 21
93.9105
 31
0.0
  0
LINE
  8
0
 62
     0
 10
88.4396
 20
93.9105
 30
0.0
 11
88.2096
 21
93.8484
 31
0.0
  0
LINE
  8
0
 62
     0
 10
88.2096
 20
93.8484
 30
0.0
 11
87.5235
 21
93.6502
 31
0.0
  0
LINE
  8
0
 62
     0
 10
87.5235
 20
93.6502
 30
0.0
 11
86.7255
 21
93.4074
 31
0.0
  0
LINE
  8
0
 62
     0
 10
86.7255
 20
93.4074
 30
0.0
 11
86.1328
 21
93.2106
 31
0.0
  0
LINE
  8
0
 62
     0
 10
86.1328
 20
93.2106
 30
0.0
 11
85.8725
 21
93.1115
 31
0.0
  0
LINE
  8
0
 62
     0
 10
85.8725
 20
93.1115
 30
0.0
 11
85.8298
 21
93.0836
 31
0.0
  0
LINE
  8
0
 62
     0
 10
85.8298
 20
93.0836
 30
0.0
 11
85.7857
 21
93.0575
 31
0.0
  0
LINE
  8
0
 62
     0
 10
85.7857
 20
93.0575
 30
0.0
 11
85.6051
 21
92.5985
 31
0.0
  0
LINE
  8
0
 62
     0
 10
85.6051
 20
92.5985
 30
0.0
 11
85.5102
 21
91.8683
 31
0.0
  0
LINE
  8
0
 62
     0
 10
85.5102
 20
91.8683
 30
0.0
 11
85.5102
 21
91.7056
 31
0.0
  0
LINE
  8
0
 62
     0
 10
85.5102
 20
91.7056
 30
0.0
 11
85.5087
 21
91.543
 31
0.0
  0
LINE
  8
0
 62
     0
 10
85.5087
 20
91.543
 30
0.0
 11
85.3846
 21
90.4628
 31
0.0
  0
LINE
  8
0
 62
     0
 10
85.3846
 20
90.4628
 30
0.0
 11
85.1447
 21
89.3286
 31
0.0
  0
LINE
  8
0
 62
     0
 10
85.1447
 20
89.3286
 30
0.0
 11
85.0868
 21
89.1371
 31
0.0
  0
LINE
  8
0
 62
     0
 10
85.0868
 20
89.1371
 30
0.0
 11
85.029
 21
88.9497
 31
0.0
  0
LINE
  8
0
 62
     0
 10
85.029
 20
88.9497
 30
0.0
 11
84.8554
 21
88.3832
 31
0.0
  0
LINE
  8
0
 62
     0
 10
84.8554
 20
88.3832
 30
0.0
 11
84.7245
 21
87.7962
 31
0.0
  0
LINE
  8
0
 62
     0
 10
84.7245
 20
87.7962
 30
0.0
 11
84.7411
 21
87.2973
 31
0.0
  0
LINE
  8
0
 62
     0
 10
84.7411
 20
87.2973
 30
0.0
 11
84.9602
 21
86.8094
 31
0.0
  0
LINE
  8
0
 62
     0
 10
84.9602
 20
86.8094
 30
0.0
 11
85.4329
 21
86.2556
 31
0.0
  0
LINE
  8
0
 62
     0
 10
85.4329
 20
86.2556
 30
0.0
 11
86.2087
 21
85.5567
 31
0.0
  0
LINE
  8
0
 62
     0
 10
86.2087
 20
85.5567
 30
0.0
 11
87.34
 21
84.6363
 31
0.0
  0
LINE
  8
0
 62
     0
 10
87.34
 20
84.6363
 30
0.0
 11
88.495
 21
83.7198
 31
0.0
  0
LINE
  8
0
 62
     0
 10
88.495
 20
83.7198
 30
0.0
 11
88.8806
 21
83.414
 31
0.0
  0
LINE
  8
0
 62
     0
 10
88.8806
 20
83.414
 30
0.0
 11
88.918
 21
83.385
 31
0.0
  0
LINE
  8
0
 62
     0
 10
88.918
 20
83.385
 30
0.0
 11
88.8891
 21
83.1152
 31
0.0
  0
LINE
  8
0
 62
     0
 10
88.8891
 20
83.1152
 30
0.0
 11
88.6615
 21
82.5183
 31
0.0
  0
LINE
  8
0
 62
     0
 10
88.6615
 20
82.5183
 30
0.0
 11
88.2608
 21
81.7301
 31
0.0
  0
LINE
  8
0
 62
     0
 10
88.2608
 20
81.7301
 30
0.0
 11
87.7507
 21
80.8535
 31
0.0
  0
LINE
  8
0
 62
     0
 10
87.7507
 20
80.8535
 30
0.0
 11
87.194
 21
79.991
 31
0.0
  0
LINE
  8
0
 62
     0
 10
87.194
 20
79.991
 30
0.0
 11
86.6553
 21
79.2469
 31
0.0
  0
LINE
  8
0
 62
     0
 10
86.6553
 20
79.2469
 30
0.0
 11
86.1977
 21
78.7259
 31
0.0
  0
LINE
  8
0
 62
     0
 10
86.1977
 20
78.7259
 30
0.0
 11
85.9621
 21
78.5276
 31
0.0
  0
LINE
  8
0
 62
     0
 10
85.9621
 20
78.5276
 30
0.0
 11
85.8834
 21
78.5276
 31
0.0
  0
LINE
  8
0
 62
     0
 10
85.8834
 20
78.5276
 30
0.0
 11
85.8051
 21
78.5276
 31
0.0
  0
LINE
  8
0
 62
     0
 10
85.8051
 20
78.5276
 30
0.0
 11
85.5694
 21
78.595
 31
0.0
  0
LINE
  8
0
 62
     0
 10
85.5694
 20
78.595
 30
0.0
 11
85.0223
 21
78.777
 31
0.0
  0
LINE
  8
0
 62
     0
 10
85.0223
 20
78.777
 30
0.0
 11
84.3195
 21
79.0469
 31
0.0
  0
LINE
  8
0
 62
     0
 10
84.3195
 20
79.0469
 30
0.0
 11
83.7311
 21
79.291
 31
0.0
  0
LINE
  8
0
 62
     0
 10
83.7311
 20
79.291
 30
0.0
 11
83.5381
 21
79.375
 31
0.0
  0
LINE
  8
0
 62
     0
 10
83.5381
 20
79.375
 30
0.0
 11
83.3423
 21
79.4618
 31
0.0
  0
LINE
  8
0
 62
     0
 10
83.3423
 20
79.4618
 30
0.0
 11
82.7497
 21
79.7045
 31
0.0
  0
LINE
  8
0
 62
     0
 10
82.7497
 20
79.7045
 30
0.0
 11
82.0318
 21
79.973
 31
0.0
  0
LINE
  8
0
 62
     0
 10
82.0318
 20
79.973
 30
0.0
 11
81.4627
 21
80.155
 31
0.0
  0
LINE
  8
0
 62
     0
 10
81.4627
 20
80.155
 30
0.0
 11
81.2063
 21
80.221
 31
0.0
  0
LINE
  8
0
 62
     0
 10
81.2063
 20
80.221
 30
0.0
 11
81.1209
 21
80.221
 31
0.0
  0
LINE
  8
0
 62
     0
 10
81.1209
 20
80.221
 30
0.0
 11
81.0479
 21
80.221
 31
0.0
  0
LINE
  8
0
 62
     0
 10
81.0479
 20
80.221
 30
0.0
 11
80.8288
 21
80.1275
 31
0.0
  0
LINE
  8
0
 62
     0
 10
80.8288
 20
80.1275
 30
0.0
 11
80.3949
 21
79.8696
 31
0.0
  0
LINE
  8
0
 62
     0
 10
80.3949
 20
79.8696
 30
0.0
 11
79.8766
 21
79.4879
 31
0.0
  0
LINE
  8
0
 62
     0
 10
79.8766
 20
79.4879
 30
0.0
 11
79.4646
 21
79.1422
 31
0.0
  0
LINE
  8
0
 62
     0
 10
79.4646
 20
79.1422
 30
0.0
 11
79.3337
 21
79.0208
 31
0.0
  0
LINE
  8
0
 62
     0
 10
79.3337
 20
79.0208
 30
0.0
 11
79.1545
 21
78.8568
 31
0.0
  0
LINE
  8
0
 62
     0
 10
79.1545
 20
78.8568
 30
0.0
 11
78.099
 21
77.9254
 31
0.0
  0
LINE
  8
0
 62
     0
 10
78.099
 20
77.9254
 30
0.0
 11
77.1052
 21
77.089
 31
0.0
  0
LINE
  8
0
 62
     0
 10
77.1052
 20
77.089
 30
0.0
 11
76.9578
 21
76.9719
 31
0.0
  0
LINE
  8
0
 62
     0
 10
76.9578
 20
76.9719
 30
0.0
 11
75.8804
 21
76.1213
 31
0.0
  0
LINE
  8
0
 62
     0
 10
75.8804
 20
76.1213
 30
0.0
 11
76.6163
 21
73.8671
 31
0.0
  0
LINE
  8
0
 62
     0
 10
76.6163
 20
73.8671
 30
0.0
 11
76.7553
 21
73.4413
 31
0.0
  0
LINE
  8
0
 62
     0
 10
76.7553
 20
73.4413
 30
0.0
 11
77.1052
 21
72.1402
 31
0.0
  0
LINE
  8
0
 62
     0
 10
77.1052
 20
72.1402
 30
0.0
 11
77.1673
 21
71.0572
 31
0.0
  0
LINE
  8
0
 62
     0
 10
77.1673
 20
71.0572
 30
0.0
 11
76.7595
 21
70.4219
 31
0.0
  0
LINE
  8
0
 62
     0
 10
76.7595
 20
70.4219
 30
0.0
 11
76.0815
 21
70.1051
 31
0.0
  0
LINE
  8
0
 62
     0
 10
76.0815
 20
70.1051
 30
0.0
 11
75.8444
 21
70.0401
 31
0.0
  0
LINE
  8
0
 62
     0
 10
75.8444
 20
70.0401
 30
0.0
 11
75.6789
 21
69.9961
 31
0.0
  0
LINE
  8
0
 62
     0
 10
75.6789
 20
69.9961
 30
0.0
 11
74.6524
 21
69.7025
 31
0.0
  0
LINE
  8
0
 62
     0
 10
74.6524
 20
69.7025
 30
0.0
 11
73.63
 21
69.3995
 31
0.0
  0
LINE
  8
0
 62
     0
 10
73.63
 20
69.3995
 30
0.0
 11
73.4688
 21
69.3484
 31
0.0
  0
LINE
  8
0
 62
     0
 10
73.4688
 20
69.3484
 30
0.0
 11
73.2384
 21
69.2781
 31
0.0
  0
LINE
  8
0
 62
     0
 10
73.2384
 20
69.2781
 30
0.0
 11
72.5248
 21
69.1473
 31
0.0
  0
LINE
  8
0
 62
     0
 10
72.5248
 20
69.1473
 30
0.0
 11
71.8425
 21
69.3593
 31
0.0
  0
LINE
  8
0
 62
     0
 10
71.8425
 20
69.3593
 30
0.0
 11
71.2156
 21
70.1463
 31
0.0
  0
LINE
  8
0
 62
     0
 10
71.2156
 20
70.1463
 30
0.0
 11
70.6191
 21
71.2805
 31
0.0
  0
LINE
  8
0
 62
     0
 10
70.6191
 20
71.2805
 30
0.0
 11
70.4356
 21
71.665
 31
0.0
  0
LINE
  8
0
 62
     0
 10
70.4356
 20
71.665
 30
0.0
 11
69.4669
 21
73.6935
 31
0.0
  0
LINE
  8
0
 62
     0
 10
69.4669
 20
73.6935
 30
0.0
 11
66.4132
 21
73.7817
 31
0.0
  0
LINE
  8
0
 62
     0
 10
66.4132
 20
73.7817
 30
0.0
 11
66.1088
 21
73.7912
 31
0.0
  0
LINE
  8
0
 62
     0
 10
66.1088
 20
73.7912
 30
0.0
 11
65.1965
 21
73.7969
 31
0.0
  0
LINE
  8
0
 62
     0
 10
65.1965
 20
73.7969
 30
0.0
 11
64.1449
 21
73.7676
 31
0.0
  0
LINE
  8
0
 62
     0
 10
64.1449
 20
73.7676
 30
0.0
 11
63.3691
 21
73.7016
 31
0.0
  0
LINE
  8
0
 62
     0
 10
63.3691
 20
73.7016
 30
0.0
 11
63.0343
 21
73.6424
 31
0.0
  0
LINE
  8
0
 62
     0
 10
63.0343
 20
73.6424
 30
0.0
 11
62.9832
 21
73.6053
 31
0.0
  0
LINE
  8
0
 62
     0
 10
62.9832
 20
73.6053
 30
0.0
 11
62.931
 21
73.5693
 31
0.0
  0
LINE
  8
0
 62
     0
 10
62.931
 20
73.5693
 30
0.0
 11
62.7736
 21
73.3792
 31
0.0
  0
LINE
  8
0
 62
     0
 10
62.7736
 20
73.3792
 30
0.0
 11
62.4844
 21
72.9576
 31
0.0
  0
LINE
  8
0
 62
     0
 10
62.4844
 20
72.9576
 30
0.0
 11
62.151
 21
72.402
 31
0.0
  0
LINE
  8
0
 62
     0
 10
62.151
 20
72.402
 30
0.0
 11
61.8945
 21
71.9307
 31
0.0
  0
LINE
  8
0
 62
     0
 10
61.8945
 20
71.9307
 30
0.0
 11
61.8148
 21
71.7709
 31
0.0
  0
LINE
  8
0
 62
     0
 10
61.8148
 20
71.7709
 30
0.0
 11
61.7058
 21
71.556
 31
0.0
  0
LINE
  8
0
 62
     0
 10
61.7058
 20
71.556
 30
0.0
 11
61.0856
 21
70.455
 31
0.0
  0
LINE
  8
0
 62
     0
 10
61.0856
 20
70.455
 30
0.0
 11
60.5261
 21
69.5935
 31
0.0
  0
LINE
  8
0
 62
     0
 10
60.5261
 20
69.5935
 30
0.0
 11
60.4478
 21
69.4958
 31
0.0
  0
LINE
  8
0
 62
     0
 10
60.4478
 20
69.4958
 30
0.0
 11
60.3663
 21
69.3981
 31
0.0
  0
LINE
  8
0
 62
     0
 10
60.3663
 20
69.3981
 30
0.0
 11
60.114
 21
69.1099
 31
0.0
  0
LINE
  8
0
 62
     0
 10
60.114
 20
69.1099
 30
0.0
 11
59.9087
 21
68.9652
 31
0.0
  0
LINE
  8
0
 62
     0
 10
59.9087
 20
68.9652
 30
0.0
 11
59.7641
 21
69.052
 31
0.0
  0
LINE
  8
0
 62
     0
 10
59.7641
 20
69.052
 30
0.0
 11
59.6512
 21
69.2781
 31
0.0
  0
LINE
  8
0
 62
     0
 10
59.6512
 20
69.2781
 30
0.0
 11
59.6194
 21
69.3554
 31
0.0
  0
LINE
  8
0
 62
     0
 10
44.9255
 20
79.8682
 30
0.0
 11
44.7051
 21
80.2157
 31
0.0
  0
LINE
  8
0
 62
     0
 10
44.7051
 20
80.2157
 30
0.0
 11
44.0806
 21
81.2793
 31
0.0
  0
LINE
  8
0
 62
     0
 10
44.0806
 20
81.2793
 30
0.0
 11
43.5211
 21
82.3969
 31
0.0
  0
LINE
  8
0
 62
     0
 10
43.5211
 20
82.3969
 30
0.0
 11
43.2689
 21
83.173
 31
0.0
  0
LINE
  8
0
 62
     0
 10
43.2689
 20
83.173
 30
0.0
 11
43.2883
 21
83.5159
 31
0.0
  0
LINE
  8
0
 62
     0
 10
43.2883
 20
83.5159
 30
0.0
 11
43.3462
 21
83.5547
 31
0.0
  0
LINE
  8
0
 62
     0
 10
43.3462
 20
83.5547
 30
0.0
 11
43.7596
 21
83.8359
 31
0.0
  0
LINE
  8
0
 62
     0
 10
43.7596
 20
83.8359
 30
0.0
 11
44.982
 21
84.7122
 31
0.0
  0
LINE
  8
0
 62
     0
 10
44.982
 20
84.7122
 30
0.0
 11
46.2689
 21
85.7098
 31
0.0
  0
LINE
  8
0
 62
     0
 10
46.2689
 20
85.7098
 30
0.0
 11
47.111
 21
86.4704
 31
0.0
  0
LINE
  8
0
 62
     0
 10
47.111
 20
86.4704
 30
0.0
 11
47.4126
 21
86.8056
 31
0.0
  0
LINE
  8
0
 62
     0
 10
47.4126
 20
86.8056
 30
0.0
 11
47.4126
 21
86.9156
 31
0.0
  0
LINE
  8
0
 62
     0
 10
47.4126
 20
86.9156
 30
0.0
 11
47.4126
 21
87.1305
 31
0.0
  0
LINE
  8
0
 62
     0
 10
47.4126
 20
87.1305
 30
0.0
 11
47.3234
 21
87.7743
 31
0.0
  0
LINE
  8
0
 62
     0
 10
47.3234
 20
87.7743
 30
0.0
 11
47.1509
 21
88.9635
 31
0.0
  0
LINE
  8
0
 62
     0
 10
47.1509
 20
88.9635
 30
0.0
 11
47.1096
 21
89.2196
 31
0.0
  0
LINE
  8
0
 62
     0
 10
47.1096
 20
89.2196
 30
0.0
 11
47.0669
 21
89.4775
 31
0.0
  0
LINE
  8
0
 62
     0
 10
47.0669
 20
89.4775
 30
0.0
 11
46.8545
 21
90.8128
 31
0.0
  0
LINE
  8
0
 62
     0
 10
46.8545
 20
90.8128
 30
0.0
 11
46.6894
 21
91.8905
 31
0.0
  0
LINE
  8
0
 62
     0
 10
46.6894
 20
91.8905
 30
0.0
 11
46.6714
 21
92.0171
 31
0.0
  0
LINE
  8
0
 62
     0
 10
46.6714
 20
92.0171
 30
0.0
 11
46.6577
 21
92.1053
 31
0.0
  0
LINE
  8
0
 62
     0
 10
46.6577
 20
92.1053
 30
0.0
 11
46.6079
 21
92.3685
 31
0.0
  0
LINE
  8
0
 62
     0
 10
46.6079
 20
92.3685
 30
0.0
 11
46.5074
 21
92.6511
 31
0.0
  0
LINE
  8
0
 62
     0
 10
46.5074
 20
92.6511
 30
0.0
 11
46.3381
 21
92.8853
 31
0.0
  0
LINE
  8
0
 62
     0
 10
46.3381
 20
92.8853
 30
0.0
 11
46.0622
 21
93.0935
 31
0.0
  0
LINE
  8
0
 62
     0
 10
46.0622
 20
93.0935
 30
0.0
 11
45.6463
 21
93.2946
 31
0.0
  0
LINE
  8
0
 62
     0
 10
45.6463
 20
93.2946
 30
0.0
 11
45.0564
 21
93.5094
 31
0.0
  0
LINE
  8
0
 62
     0
 10
45.0564
 20
93.5094
 30
0.0
 11
44.257
 21
93.7588
 31
0.0
  0
LINE
  8
0
 62
     0
 10
44.257
 20
93.7588
 30
0.0
 11
43.4742
 21
93.9878
 31
0.0
  0
LINE
  8
0
 62
     0
 10
43.4742
 20
93.9878
 30
0.0
 11
43.2139
 21
94.0622
 31
0.0
  0
LINE
  8
0
 62
     0
 10
43.2139
 20
94.0622
 30
0.0
 11
41.1318
 21
94.6602
 31
0.0
  0
LINE
  8
0
 62
     0
 10
41.1318
 20
94.6602
 30
0.0
 11
41.311
 21
96.4008
 31
0.0
  0
LINE
  8
0
 62
     0
 10
41.311
 20
96.4008
 30
0.0
 11
41.3357
 21
96.6403
 31
0.0
  0
LINE
  8
0
 62
     0
 10
41.3357
 20
96.6403
 30
0.0
 11
41.5258
 21
97.948
 31
0.0
  0
LINE
  8
0
 62
     0
 10
41.5258
 20
97.948
 30
0.0
 11
41.7491
 21
99.0755
 31
0.0
  0
LINE
  8
0
 62
     0
 10
41.7491
 20
99.0755
 30
0.0
 11
41.7904
 21
99.223
 31
0.0
  0
LINE
  8
0
 62
     0
 10
41.7904
 20
99.223
 30
0.0
 11
42.0896
 21
100.303
 31
0.0
  0
LINE
  8
0
 62
     0
 10
42.0896
 20
100.303
 30
0.0
 11
44.8744
 21
100.215
 31
0.0
  0
LINE
  8
0
 62
     0
 10
44.8744
 20
100.215
 30
0.0
 11
45.146
 21
100.207
 31
0.0
  0
LINE
  8
0
 62
     0
 10
45.146
 20
100.207
 30
0.0
 11
45.9645
 21
100.193
 31
0.0
  0
LINE
  8
0
 62
     0
 10
45.9645
 20
100.193
 30
0.0
 11
46.8768
 21
100.195
 31
0.0
  0
LINE
  8
0
 62
     0
 10
46.8768
 20
100.195
 30
0.0
 11
47.5149
 21
100.219
 31
0.0
  0
LINE
  8
0
 62
     0
 10
47.5149
 20
100.219
 30
0.0
 11
47.7654
 21
100.247
 31
0.0
  0
LINE
  8
0
 62
     0
 10
47.7654
 20
100.247
 30
0.0
 11
47.7834
 21
100.265
 31
0.0
  0
LINE
  8
0
 62
     0
 10
47.7834
 20
100.265
 30
0.0
 11
47.8
 21
100.284
 31
0.0
  0
LINE
  8
0
 62
     0
 10
47.8
 20
100.284
 30
0.0
 11
48.0564
 21
100.735
 31
0.0
  0
LINE
  8
0
 62
     0
 10
48.0564
 20
100.735
 30
0.0
 11
48.4491
 21
101.497
 31
0.0
  0
LINE
  8
0
 62
     0
 10
48.4491
 20
101.497
 30
0.0
 11
48.5359
 21
101.67
 31
0.0
  0
LINE
  8
0
 62
     0
 10
48.5359
 20
101.67
 30
0.0
 11
48.6103
 21
101.822
 31
0.0
  0
LINE
  8
0
 62
     0
 10
48.6103
 20
101.822
 30
0.0
 11
48.8474
 21
102.267
 31
0.0
  0
LINE
  8
0
 62
     0
 10
48.8474
 20
102.267
 30
0.0
 11
49.2125
 21
102.912
 31
0.0
  0
LINE
  8
0
 62
     0
 10
49.2125
 20
102.912
 30
0.0
 11
49.608
 21
103.569
 31
0.0
  0
LINE
  8
0
 62
     0
 10
49.608
 20
103.569
 30
0.0
 11
50.0063
 21
104.196
 31
0.0
  0
LINE
  8
0
 62
     0
 10
50.0063
 20
104.196
 30
0.0
 11
50.3813
 21
104.754
 31
0.0
  0
LINE
  8
0
 62
     0
 10
50.3813
 20
104.754
 30
0.0
 11
50.7062
 21
105.204
 31
0.0
  0
LINE
  8
0
 62
     0
 10
50.7062
 20
105.204
 30
0.0
 11
50.957
 21
105.503
 31
0.0
  0
LINE
  8
0
 62
     0
 10
50.957
 20
105.503
 30
0.0
 11
51.0688
 21
105.613
 31
0.0
  0
LINE
  8
0
 62
     0
 10
51.0688
 20
105.613
 30
0.0
 11
51.1073
 21
105.614
 31
0.0
  0
LINE
  8
0
 62
     0
 10
51.1073
 20
105.614
 30
0.0
 11
51.1073
 21
80.5476
 31
0.0
  0
LINE
  8
0
 62
     0
 10
51.1073
 20
80.5476
 30
0.0
 11
50.5919
 21
80.1991
 31
0.0
  0
LINE
  8
0
 62
     0
 10
50.5919
 20
80.1991
 30
0.0
 11
50.4458
 21
80.1522
 31
0.0
  0
LINE
  8
0
 62
     0
 10
50.4458
 20
80.1522
 30
0.0
 11
49.4316
 21
79.7595
 31
0.0
  0
LINE
  8
0
 62
     0
 10
49.4316
 20
79.7595
 30
0.0
 11
48.3168
 21
79.2826
 31
0.0
  0
LINE
  8
0
 62
     0
 10
48.3168
 20
79.2826
 30
0.0
 11
48.1224
 21
79.1916
 31
0.0
  0
LINE
  8
0
 62
     0
 10
48.1224
 20
79.1916
 30
0.0
 11
47.9266
 21
79.1023
 31
0.0
  0
LINE
  8
0
 62
     0
 10
47.9266
 20
79.1023
 30
0.0
 11
46.9858
 21
78.7259
 31
0.0
  0
LINE
  8
0
 62
     0
 10
46.9858
 20
78.7259
 30
0.0
 11
46.3063
 21
78.5315
 31
0.0
  0
LINE
  8
0
 62
     0
 10
46.3063
 20
78.5315
 30
0.0
 11
46.2428
 21
78.5301
 31
0.0
  0
LINE
  8
0
 62
     0
 10
46.2428
 20
78.5301
 30
0.0
 11
46.1807
 21
78.5301
 31
0.0
  0
LINE
  8
0
 62
     0
 10
46.1807
 20
78.5301
 30
0.0
 11
45.9948
 21
78.6363
 31
0.0
  0
LINE
  8
0
 62
     0
 10
45.9948
 20
78.6363
 30
0.0
 11
45.6639
 21
78.9231
 31
0.0
  0
LINE
  8
0
 62
     0
 10
45.6639
 20
78.9231
 30
0.0
 11
45.2935
 21
79.3489
 31
0.0
  0
LINE
  8
0
 62
     0
 10
45.2935
 20
79.3489
 30
0.0
 11
45.0109
 21
79.7348
 31
0.0
  0
LINE
  8
0
 62
     0
 10
45.0109
 20
79.7348
 30
0.0
 11
44.9255
 21
79.8682
 31
0.0
  0
LINE
  8
0
 62
     0
 10
49.7801
 20
107.534
 30
0.0
 11
49.615
 21
107.763
 31
0.0
  0
LINE
  8
0
 62
     0
 10
49.615
 20
107.763
 30
0.0
 11
49.1229
 21
108.45
 31
0.0
  0
LINE
  8
0
 62
     0
 10
49.1229
 20
108.45
 30
0.0
 11
48.6502
 21
109.146
 31
0.0
  0
LINE
  8
0
 62
     0
 10
48.6502
 20
109.146
 30
0.0
 11
48.3528
 21
109.675
 31
0.0
  0
LINE
  8
0
 62
     0
 10
48.3528
 20
109.675
 30
0.0
 11
48.2272
 21
110.091
 31
0.0
  0
LINE
  8
0
 62
     0
 10
48.2272
 20
110.091
 30
0.0
 11
48.2671
 21
110.444
 31
0.0
  0
LINE
  8
0
 62
     0
 10
48.2671
 20
110.444
 30
0.0
 11
48.4671
 21
110.79
 31
0.0
  0
LINE
  8
0
 62
     0
 10
48.4671
 20
110.79
 30
0.0
 11
48.8199
 21
111.179
 31
0.0
  0
LINE
  8
0
 62
     0
 10
48.8199
 20
111.179
 30
0.0
 11
49.1945
 21
111.544
 31
0.0
  0
LINE
  8
0
 62
     0
 10
49.1945
 20
111.544
 30
0.0
 11
49.3201
 21
111.664
 31
0.0
  0
LINE
  8
0
 62
     0
 10
49.3201
 20
111.664
 30
0.0
 11
49.4538
 21
111.794
 31
0.0
  0
LINE
  8
0
 62
     0
 10
49.4538
 20
111.794
 30
0.0
 11
49.8669
 21
112.165
 31
0.0
  0
LINE
  8
0
 62
     0
 10
49.8669
 20
112.165
 30
0.0
 11
50.3686
 21
112.575
 31
0.0
  0
LINE
  8
0
 62
     0
 10
50.3686
 20
112.575
 30
0.0
 11
50.7683
 21
112.853
 31
0.0
  0
LINE
  8
0
 62
     0
 10
50.7683
 20
112.853
 30
0.0
 11
50.9626
 21
112.955
 31
0.0
  0
LINE
  8
0
 62
     0
 10
50.9626
 20
112.955
 30
0.0
 11
51.0124
 21
112.955
 31
0.0
  0
LINE
  8
0
 62
     0
 10
51.0124
 20
112.955
 30
0.0
 11
51.0124
 21
105.912
 31
0.0
  0
LINE
  8
0
 62
     0
 10
51.0124
 20
105.912
 30
0.0
 11
50.982
 21
105.913
 31
0.0
  0
LINE
  8
0
 62
     0
 10
50.982
 20
105.913
 30
0.0
 11
50.8593
 21
106.043
 31
0.0
  0
LINE
  8
0
 62
     0
 10
50.8593
 20
106.043
 30
0.0
 11
50.5905
 21
106.393
 31
0.0
  0
LINE
  8
0
 62
     0
 10
50.5905
 20
106.393
 30
0.0
 11
50.2253
 21
106.907
 31
0.0
  0
LINE
  8
0
 62
     0
 10
50.2253
 20
106.907
 30
0.0
 11
49.8919
 21
107.378
 31
0.0
  0
LINE
  8
0
 62
     0
 10
49.8919
 20
107.378
 30
0.0
 11
49.7801
 21
107.534
 31
0.0
  0
LINE
  8
0
 62
     169
 10
58.1381
 20
12.9329
 30
0.0
 11
58.1381
 21
26.1786
 31
0.0
  0
LINE
  8
0
 62
     169
 10
58.1381
 20
26.1786
 30
0.0
 11
58.4232
 21
26.231
 31
0.0
  0
LINE
  8
0
 62
     169
 10
58.4232
 20
26.231
 30
0.0
 11
59.3122
 21
26.2158
 31
0.0
  0
LINE
  8
0
 62
     169
 10
59.3122
 20
26.2158
 30
0.0
 11
60.4601
 21
25.9774
 31
0.0
  0
LINE
  8
0
 62
     169
 10
60.4601
 20
25.9774
 30
0.0
 11
61.5929
 21
25.5943
 31
0.0
  0
LINE
  8
0
 62
     169
 10
61.5929
 20
25.5943
 30
0.0
 11
62.4388
 21
25.2843
 31
0.0
  0
LINE
  8
0
 62
     169
 10
62.4388
 20
25.2843
 30
0.0
 11
62.7257
 21
25.1919
 31
0.0
  0
LINE
  8
0
 62
     169
 10
62.7257
 20
25.1919
 30
0.0
 11
62.9969
 21
25.3022
 31
0.0
  0
LINE
  8
0
 62
     169
 10
62.9969
 20
25.3022
 30
0.0
 11
63.7551
 21
25.7735
 31
0.0
  0
LINE
  8
0
 62
     169
 10
63.7551
 20
25.7735
 30
0.0
 11
64.5047
 21
26.5576
 31
0.0
  0
LINE
  8
0
 62
     169
 10
64.5047
 20
26.5576
 30
0.0
 11
65.0064
 21
27.5346
 31
0.0
  0
LINE
  8
0
 62
     169
 10
65.0064
 20
27.5346
 30
0.0
 11
65.2473
 21
28.4
 31
0.0
  0
LINE
  8
0
 62
     169
 10
65.2473
 20
28.4
 30
0.0
 11
65.2928
 21
28.6935
 31
0.0
  0
LINE
  8
0
 62
     169
 10
65.2928
 20
28.6935
 30
0.0
 11
65.3383
 21
28.9939
 31
0.0
  0
LINE
  8
0
 62
     169
 10
65.3383
 20
28.9939
 30
0.0
 11
65.235
 21
29.9324
 31
0.0
  0
LINE
  8
0
 62
     169
 10
65.235
 20
29.9324
 30
0.0
 11
64.739
 21
31.0651
 31
0.0
  0
LINE
  8
0
 62
     169
 10
64.739
 20
31.0651
 30
0.0
 11
63.8761
 21
31.9581
 31
0.0
  0
LINE
  8
0
 62
     169
 10
63.8761
 20
31.9581
 30
0.0
 11
63.0259
 21
32.4073
 31
0.0
  0
LINE
  8
0
 62
     169
 10
63.0259
 20
32.4073
 30
0.0
 11
62.7257
 21
32.4749
 31
0.0
  0
LINE
  8
0
 62
     169
 10
62.7257
 20
32.4749
 30
0.0
 11
62.6085
 21
32.479
 31
0.0
  0
LINE
  8
0
 62
     169
 10
62.6085
 20
32.479
 30
0.0
 11
62.2543
 21
32.3825
 31
0.0
  0
LINE
  8
0
 62
     169
 10
62.2543
 20
32.3825
 30
0.0
 11
61.7153
 21
32.1262
 31
0.0
  0
LINE
  8
0
 62
     169
 10
61.7153
 20
32.1262
 30
0.0
 11
61.1491
 21
31.7789
 31
0.0
  0
LINE
  8
0
 62
     169
 10
61.1491
 20
31.7789
 30
0.0
 11
60.5952
 21
31.4096
 31
0.0
  0
LINE
  8
0
 62
     169
 10
60.5952
 20
31.4096
 30
0.0
 11
60.0936
 21
31.0885
 31
0.0
  0
LINE
  8
0
 62
     169
 10
60.0936
 20
31.0885
 30
0.0
 11
59.6858
 21
30.8846
 31
0.0
  0
LINE
  8
0
 62
     169
 10
59.6858
 20
30.8846
 30
0.0
 11
59.4099
 21
30.8708
 31
0.0
  0
LINE
  8
0
 62
     169
 10
59.4099
 20
30.8708
 30
0.0
 11
59.3108
 21
31.0541
 31
0.0
  0
LINE
  8
0
 62
     169
 10
59.3108
 20
31.0541
 30
0.0
 11
59.3108
 21
31.1147
 31
0.0
  0
LINE
  8
0
 62
     169
 10
59.3108
 20
31.1147
 30
0.0
 11
59.3108
 21
44.7795
 31
0.0
  0
LINE
  8
0
 62
     169
 10
59.3108
 20
44.7795
 30
0.0
 11
59.6194
 21
44.8649
 31
0.0
  0
LINE
  8
0
 62
     169
 10
59.6194
 20
44.8649
 30
0.0
 11
61.1822
 21
45.0508
 31
0.0
  0
LINE
  8
0
 62
     169
 10
61.1822
 20
45.0508
 30
0.0
 11
62.7599
 21
45.1679
 31
0.0
  0
LINE
  8
0
 62
     169
 10
62.7599
 20
45.1679
 30
0.0
 11
63.077
 21
45.2176
 31
0.0
  0
LINE
  8
0
 62
     169
 10
63.077
 20
45.2176
 30
0.0
 11
64.05
 21
45.3665
 31
0.0
  0
LINE
  8
0
 62
     169
 10
64.05
 20
45.3665
 30
0.0
 11
66.9272
 21
46.0887
 31
0.0
  0
LINE
  8
0
 62
     169
 10
66.9272
 20
46.0887
 30
0.0
 11
71.0046
 21
47.5174
 31
0.0
  0
LINE
  8
0
 62
     169
 10
71.0046
 20
47.5174
 30
0.0
 11
75.0454
 21
49.397
 31
0.0
  0
LINE
  8
0
 62
     169
 10
75.0454
 20
49.397
 30
0.0
 11
77.8866
 21
51.0148
 31
0.0
  0
LINE
  8
0
 62
     169
 10
77.8866
 20
51.0148
 30
0.0
 11
78.788
 21
51.6213
 31
0.0
  0
LINE
  8
0
 62
     169
 10
78.788
 20
51.6213
 30
0.0
 11
80.6235
 21
52.8574
 31
0.0
  0
LINE
  8
0
 62
     169
 10
80.6235
 20
52.8574
 30
0.0
 11
85.6738
 21
57.2505
 31
0.0
  0
LINE
  8
0
 62
     169
 10
85.6738
 20
57.2505
 30
0.0
 11
91.0537
 21
63.8362
 31
0.0
  0
LINE
  8
0
 62
     169
 10
91.0537
 20
63.8362
 30
0.0
 11
94.9068
 21
71.3507
 31
0.0
  0
LINE
  8
0
 62
     169
 10
94.9068
 20
71.3507
 30
0.0
 11
96.847
 21
77.6249
 31
0.0
  0
LINE
  8
0
 62
     169
 10
96.847
 20
77.6249
 30
0.0
 11
97.2164
 21
79.7638
 31
0.0
  0
LINE
  8
0
 62
     169
 10
97.2164
 20
79.7638
 30
0.0
 11
97.3406
 21
80.4884
 31
0.0
  0
LINE
  8
0
 62
     169
 10
97.3406
 20
80.4884
 30
0.0
 11
97.5141
 21
82.6989
 31
0.0
  0
LINE
  8
0
 62
     169
 10
97.5141
 20
82.6989
 30
0.0
 11
97.6394
 21
86.5036
 31
0.0
  0
LINE
  8
0
 62
     169
 10
97.6394
 20
86.5036
 30
0.0
 11
97.5857
 21
90.3206
 31
0.0
  0
LINE
  8
0
 62
     169
 10
97.5857
 20
90.3206
 30
0.0
 11
97.4535
 21
92.5558
 31
0.0
  0
LINE
  8
0
 62
     169
 10
97.4535
 20
92.5558
 30
0.0
 11
97.3434
 21
93.2903
 31
0.0
  0
LINE
  8
0
 62
     169
 10
97.3434
 20
93.2903
 30
0.0
 11
97.2069
 21
94.1959
 31
0.0
  0
LINE
  8
0
 62
     169
 10
97.2069
 20
94.1959
 30
0.0
 11
96.6445
 21
96.8872
 31
0.0
  0
LINE
  8
0
 62
     169
 10
96.6445
 20
96.8872
 30
0.0
 11
95.6592
 21
100.478
 31
0.0
  0
LINE
  8
0
 62
     169
 10
95.6592
 20
100.478
 30
0.0
 11
94.4577
 21
103.835
 31
0.0
  0
LINE
  8
0
 62
     169
 10
94.4577
 20
103.835
 30
0.0
 11
93.4903
 21
106.029
 31
0.0
  0
LINE
  8
0
 62
     169
 10
93.4903
 20
106.029
 30
0.0
 11
93.1125
 21
106.729
 31
0.0
  0
LINE
  8
0
 62
     169
 10
93.1125
 20
106.729
 30
0.0
 11
92.9845
 21
106.966
 31
0.0
  0
LINE
  8
0
 62
     169
 10
92.9845
 20
106.966
 30
0.0
 11
92.6275
 21
107.688
 31
0.0
  0
LINE
  8
0
 62
     169
 10
92.6275
 20
107.688
 30
0.0
 11
92.3685
 21
108.348
 31
0.0
  0
LINE
  8
0
 62
     169
 10
92.3685
 20
108.348
 30
0.0
 11
92.3396
 21
108.707
 31
0.0
  0
LINE
  8
0
 62
     169
 10
92.3396
 20
108.707
 30
0.0
 11
92.5421
 21
108.765
 31
0.0
  0
LINE
  8
0
 62
     169
 10
92.5421
 20
108.765
 30
0.0
 11
92.9778
 21
108.522
 31
0.0
  0
LINE
  8
0
 62
     169
 10
92.9778
 20
108.522
 30
0.0
 11
93.6502
 21
107.976
 31
0.0
  0
LINE
  8
0
 62
     169
 10
93.6502
 20
107.976
 30
0.0
 11
94.5596
 21
107.127
 31
0.0
  0
LINE
  8
0
 62
     169
 10
94.5596
 20
107.127
 30
0.0
 11
95.4264
 21
106.266
 31
0.0
  0
LINE
  8
0
 62
     169
 10
95.4264
 20
106.266
 30
0.0
 11
95.7118
 21
105.974
 31
0.0
  0
LINE
  8
0
 62
     169
 10
95.7118
 20
105.974
 30
0.0
 11
96.9162
 21
104.739
 31
0.0
  0
LINE
  8
0
 62
     169
 10
96.9162
 20
104.739
 30
0.0
 11
100.149
 21
100.663
 31
0.0
  0
LINE
  8
0
 62
     169
 10
100.149
 20
100.663
 30
0.0
 11
103.281
 21
95.0793
 31
0.0
  0
LINE
  8
0
 62
     169
 10
103.281
 20
95.0793
 30
0.0
 11
105.206
 21
88.9991
 31
0.0
  0
LINE
  8
0
 62
     169
 10
105.206
 20
88.9991
 30
0.0
 11
105.953
 21
83.9033
 31
0.0
  0
LINE
  8
0
 62
     169
 10
105.953
 20
83.9033
 30
0.0
 11
106.022
 21
82.1972
 31
0.0
  0
LINE
  8
0
 62
     169
 10
106.022
 20
82.1972
 30
0.0
 11
106.044
 21
81.6225
 31
0.0
  0
LINE
  8
0
 62
     169
 10
106.044
 20
81.6225
 30
0.0
 11
106.087
 21
79.8961
 31
0.0
  0
LINE
  8
0
 62
     169
 10
106.087
 20
79.8961
 30
0.0
 11
106.037
 21
78.1279
 31
0.0
  0
LINE
  8
0
 62
     169
 10
106.037
 20
78.1279
 30
0.0
 11
105.836
 21
76.3845
 31
0.0
  0
LINE
  8
0
 62
     169
 10
105.836
 20
76.3845
 30
0.0
 11
105.552
 21
74.7102
 31
0.0
  0
LINE
  8
0
 62
     169
 10
105.552
 20
74.7102
 30
0.0
 11
105.449
 21
74.1535
 31
0.0
  0
LINE
  8
0
 62
     169
 10
105.449
 20
74.1535
 30
0.0
 11
105.374
 21
73.7581
 31
0.0
  0
LINE
  8
0
 62
     169
 10
105.374
 20
73.7581
 30
0.0
 11
105.147
 21
72.5703
 31
0.0
  0
LINE
  8
0
 62
     169
 10
105.147
 20
72.5703
 30
0.0
 11
104.874
 21
71.1771
 31
0.0
  0
LINE
  8
0
 62
     169
 10
104.874
 20
71.1771
 30
0.0
 11
104.659
 21
70.1255
 31
0.0
  0
LINE
  8
0
 62
     169
 10
104.659
 20
70.1255
 30
0.0
 11
104.556
 21
69.6556
 31
0.0
  0
LINE
  8
0
 62
     169
 10
104.556
 20
69.6556
 30
0.0
 11
104.533
 21
69.5674
 31
0.0
  0
LINE
  8
0
 62
     169
 10
104.533
 20
69.5674
 30
0.0
 11
104.497
 21
69.4422
 31
0.0
  0
LINE
  8
0
 62
     169
 10
104.497
 20
69.4422
 30
0.0
 11
104.481
 21
69.0383
 31
0.0
  0
LINE
  8
0
 62
     169
 10
104.481
 20
69.0383
 30
0.0
 11
104.71
 21
68.9197
 31
0.0
  0
LINE
  8
0
 62
     169
 10
104.71
 20
68.9197
 30
0.0
 11
105.155
 21
69.154
 31
0.0
  0
LINE
  8
0
 62
     169
 10
105.155
 20
69.154
 30
0.0
 11
105.756
 21
69.6778
 31
0.0
  0
LINE
  8
0
 62
     169
 10
105.756
 20
69.6778
 30
0.0
 11
106.451
 21
70.4314
 31
0.0
  0
LINE
  8
0
 62
     169
 10
106.451
 20
70.4314
 30
0.0
 11
107.178
 21
71.355
 31
0.0
  0
LINE
  8
0
 62
     169
 10
107.178
 20
71.355
 30
0.0
 11
107.876
 21
72.3868
 31
0.0
  0
LINE
  8
0
 62
     169
 10
107.876
 20
72.3868
 30
0.0
 11
108.345
 21
73.1905
 31
0.0
  0
LINE
  8
0
 62
     169
 10
108.345
 20
73.1905
 30
0.0
 11
108.485
 21
73.466
 31
0.0
  0
LINE
  8
0
 62
     169
 10
108.485
 20
73.466
 30
0.0
 11
108.595
 21
73.6865
 31
0.0
  0
LINE
  8
0
 62
     169
 10
108.595
 20
73.6865
 30
0.0
 11
108.884
 21
74.3687
 31
0.0
  0
LINE
  8
0
 62
     169
 10
108.884
 20
74.3687
 30
0.0
 11
109.266
 21
75.4063
 31
0.0
  0
LINE
  8
0
 62
     169
 10
109.266
 20
75.4063
 30
0.0
 11
109.586
 21
76.4522
 31
0.0
  0
LINE
  8
0
 62
     169
 10
109.586
 20
76.4522
 30
0.0
 11
109.758
 21
77.1454
 31
0.0
  0
LINE
  8
0
 62
     169
 10
109.758
 20
77.1454
 30
0.0
 11
109.801
 21
77.3783
 31
0.0
  0
LINE
  8
0
 62
     169
 10
109.801
 20
77.3783
 30
0.0
 11
109.852
 21
77.6647
 31
0.0
  0
LINE
  8
0
 62
     169
 10
109.852
 20
77.6647
 30
0.0
 11
110.042
 21
78.5153
 31
0.0
  0
LINE
  8
0
 62
     169
 10
110.042
 20
78.5153
 30
0.0
 11
110.272
 21
79.182
 31
0.0
  0
LINE
  8
0
 62
     169
 10
110.272
 20
79.182
 30
0.0
 11
110.484
 21
79.3983
 31
0.0
  0
LINE
  8
0
 62
     169
 10
110.484
 20
79.3983
 30
0.0
 11
110.67
 21
79.1792
 31
0.0
  0
LINE
  8
0
 62
     169
 10
110.67
 20
79.1792
 30
0.0
 11
110.824
 21
78.5442
 31
0.0
  0
LINE
  8
0
 62
     169
 10
110.824
 20
78.5442
 30
0.0
 11
110.94
 21
77.5063
 31
0.0
  0
LINE
  8
0
 62
     169
 10
110.94
 20
77.5063
 30
0.0
 11
111.011
 21
76.0843
 31
0.0
  0
LINE
  8
0
 62
     169
 10
111.011
 20
76.0843
 30
0.0
 11
111.031
 21
74.742
 31
0.0
  0
LINE
  8
0
 62
     169
 10
111.031
 20
74.742
 30
0.0
 11
111.03
 21
74.2943
 31
0.0
  0
LINE
  8
0
 62
     169
 10
111.03
 20
74.2943
 30
0.0
 11
111.026
 21
73.5803
 31
0.0
  0
LINE
  8
0
 62
     169
 10
111.026
 20
73.5803
 30
0.0
 11
110.897
 21
71.4361
 31
0.0
  0
LINE
  8
0
 62
     169
 10
110.897
 20
71.4361
 30
0.0
 11
110.51
 21
68.7998
 31
0.0
  0
LINE
  8
0
 62
     169
 10
110.51
 20
68.7998
 30
0.0
 11
109.83
 21
66.2037
 31
0.0
  0
LINE
  8
0
 62
     169
 10
109.83
 20
66.2037
 30
0.0
 11
109.095
 21
64.1339
 31
0.0
  0
LINE
  8
0
 62
     169
 10
109.095
 20
64.1339
 30
0.0
 11
108.817
 21
63.4587
 31
0.0
  0
LINE
  8
0
 62
     169
 10
108.817
 20
63.4587
 30
0.0
 11
108.584
 21
62.8978
 31
0.0
  0
LINE
  8
0
 62
     169
 10
108.584
 20
62.8978
 30
0.0
 11
107.796
 21
61.2525
 31
0.0
  0
LINE
  8
0
 62
     169
 10
107.796
 20
61.2525
 30
0.0
 11
106.532
 21
58.9153
 31
0.0
  0
LINE
  8
0
 62
     169
 10
106.532
 20
58.9153
 30
0.0
 11
105.176
 21
56.7034
 31
0.0
  0
LINE
  8
0
 62
     169
 10
105.176
 20
56.7034
 30
0.0
 11
104.221
 21
55.3145
 31
0.0
  0
LINE
  8
0
 62
     169
 10
104.221
 20
55.3145
 30
0.0
 11
103.874
 21
54.8749
 31
0.0
  0
LINE
  8
0
 62
     169
 10
103.874
 20
54.8749
 30
0.0
 11
103.682
 21
54.6336
 31
0.0
  0
LINE
  8
0
 62
     169
 10
103.682
 20
54.6336
 30
0.0
 11
103.136
 21
53.8882
 31
0.0
  0
LINE
  8
0
 62
     169
 10
103.136
 20
53.8882
 30
0.0
 11
102.796
 21
53.2638
 31
0.0
  0
LINE
  8
0
 62
     169
 10
102.796
 20
53.2638
 30
0.0
 11
102.832
 21
52.9399
 31
0.0
  0
LINE
  8
0
 62
     169
 10
102.832
 20
52.9399
 30
0.0
 11
103.125
 21
52.8479
 31
0.0
  0
LINE
  8
0
 62
     169
 10
103.125
 20
52.8479
 30
0.0
 11
103.223
 21
52.8479
 31
0.0
  0
LINE
  8
0
 62
     169
 10
103.223
 20
52.8479
 30
0.0
 11
103.612
 21
52.8507
 31
0.0
  0
LINE
  8
0
 62
     169
 10
103.612
 20
52.8507
 30
0.0
 11
104.811
 21
53.3647
 31
0.0
  0
LINE
  8
0
 62
     169
 10
104.811
 20
53.3647
 30
0.0
 11
106.859
 21
54.6283
 31
0.0
  0
LINE
  8
0
 62
     169
 10
106.859
 20
54.6283
 30
0.0
 11
108.795
 21
56.2282
 31
0.0
  0
LINE
  8
0
 62
     169
 10
108.795
 20
56.2282
 30
0.0
 11
109.821
 21
57.3278
 31
0.0
  0
LINE
  8
0
 62
     169
 10
109.821
 20
57.3278
 30
0.0
 11
110.05
 21
57.755
 31
0.0
  0
LINE
  8
0
 62
     169
 10
110.05
 20
57.755
 30
0.0
 11
110.104
 21
57.857
 31
0.0
  0
LINE
  8
0
 62
     169
 10
110.104
 20
57.857
 30
0.0
 11
110.447
 21
58.2747
 31
0.0
  0
LINE
  8
0
 62
     169
 10
110.447
 20
58.2747
 30
0.0
 11
110.75
 21
58.4895
 31
0.0
  0
LINE
  8
0
 62
     169
 10
110.75
 20
58.4895
 30
0.0
 11
110.852
 21
58.4895
 31
0.0
  0
LINE
  8
0
 62
     169
 10
110.852
 20
58.4895
 30
0.0
 11
110.9
 21
58.4895
 31
0.0
  0
LINE
  8
0
 62
     169
 10
110.9
 20
58.4895
 30
0.0
 11
111.049
 21
58.4137
 31
0.0
  0
LINE
  8
0
 62
     169
 10
111.049
 20
58.4137
 30
0.0
 11
111.144
 21
58.1325
 31
0.0
  0
LINE
  8
0
 62
     169
 10
111.144
 20
58.1325
 30
0.0
 11
111.144
 21
57.5635
 31
0.0
  0
LINE
  8
0
 62
     169
 10
111.144
 20
57.5635
 30
0.0
 11
111.087
 21
56.8593
 31
0.0
  0
LINE
  8
0
 62
     169
 10
111.087
 20
56.8593
 30
0.0
 11
111.062
 21
56.6251
 31
0.0
  0
LINE
  8
0
 62
     169
 10
111.062
 20
56.6251
 30
0.0
 11
110.968
 21
55.7526
 31
0.0
  0
LINE
  8
0
 62
     169
 10
110.968
 20
55.7526
 30
0.0
 11
109.694
 21
51.7384
 31
0.0
  0
LINE
  8
0
 62
     169
 10
109.694
 20
51.7384
 30
0.0
 11
107.261
 21
48.0067
 31
0.0
  0
LINE
  8
0
 62
     169
 10
107.261
 20
48.0067
 30
0.0
 11
106.589
 21
47.275
 31
0.0
  0
LINE
  8
0
 62
     169
 10
106.589
 20
47.275
 30
0.0
 11
106.113
 21
46.7596
 31
0.0
  0
LINE
  8
0
 62
     169
 10
106.113
 20
46.7596
 30
0.0
 11
104.502
 21
45.3831
 31
0.0
  0
LINE
  8
0
 62
     169
 10
104.502
 20
45.3831
 30
0.0
 11
101.851
 21
43.633
 31
0.0
  0
LINE
  8
0
 62
     169
 10
101.851
 20
43.633
 30
0.0
 11
98.5767
 21
41.9943
 31
0.0
  0
LINE
  8
0
 62
     169
 10
98.5767
 20
41.9943
 30
0.0
 11
95.6208
 21
40.7885
 31
0.0
  0
LINE
  8
0
 62
     169
 10
95.6208
 20
40.7885
 30
0.0
 11
94.6203
 21
40.4329
 31
0.0
  0
LINE
  8
0
 62
     169
 10
94.6203
 20
40.4329
 30
0.0
 11
94.3681
 21
40.3447
 31
0.0
  0
LINE
  8
0
 62
     169
 10
94.3681
 20
40.3447
 30
0.0
 11
93.6212
 21
40.0554
 31
0.0
  0
LINE
  8
0
 62
     169
 10
93.6212
 20
40.0554
 30
0.0
 11
92.8261
 21
39.7083
 31
0.0
  0
LINE
  8
0
 62
     169
 10
92.8261
 20
39.7083
 30
0.0
 11
92.3149
 21
39.4324
 31
0.0
  0
LINE
  8
0
 62
     169
 10
92.3149
 20
39.4324
 30
0.0
 11
92.159
 21
39.2783
 31
0.0
  0
LINE
  8
0
 62
     169
 10
92.159
 20
39.2783
 30
0.0
 11
92.1688
 21
39.2631
 31
0.0
  0
LINE
  8
0
 62
     169
 10
92.1688
 20
39.2631
 30
0.0
 11
92.2295
 21
39.164
 31
0.0
  0
LINE
  8
0
 62
     169
 10
92.2295
 20
39.164
 30
0.0
 11
93.2903
 21
39.0592
 31
0.0
  0
LINE
  8
0
 62
     169
 10
93.2903
 20
39.0592
 30
0.0
 11
95.6772
 21
39.0342
 31
0.0
  0
LINE
  8
0
 62
     169
 10
95.6772
 20
39.0342
 30
0.0
 11
98.4155
 21
39.1679
 31
0.0
  0
LINE
  8
0
 62
     169
 10
98.4155
 20
39.1679
 30
0.0
 11
100.062
 21
39.3291
 31
0.0
  0
LINE
  8
0
 62
     169
 10
100.062
 20
39.3291
 30
0.0
 11
100.593
 21
39.4409
 31
0.0
  0
LINE
  8
0
 62
     169
 10
100.593
 20
39.4409
 30
0.0
 11
100.784
 21
39.4822
 31
0.0
  0
LINE
  8
0
 62
     169
 10
100.784
 20
39.4822
 30
0.0
 11
101.363
 21
39.5912
 31
0.0
  0
LINE
  8
0
 62
     169
 10
101.363
 20
39.5912
 30
0.0
 11
102.016
 21
39.6917
 31
0.0
  0
LINE
  8
0
 62
     169
 10
102.016
 20
39.6917
 30
0.0
 11
102.483
 21
39.7344
 31
0.0
  0
LINE
  8
0
 62
     169
 10
102.483
 20
39.7344
 30
0.0
 11
102.674
 21
39.7302
 31
0.0
  0
LINE
  8
0
 62
     169
 10
102.674
 20
39.7302
 30
0.0
 11
102.694
 21
39.7097
 31
0.0
  0
LINE
  8
0
 62
     169
 10
102.694
 20
39.7097
 30
0.0
 11
102.708
 21
39.697
 31
0.0
  0
LINE
  8
0
 62
     169
 10
102.708
 20
39.697
 30
0.0
 11
102.595
 21
39.4974
 31
0.0
  0
LINE
  8
0
 62
     169
 10
102.595
 20
39.4974
 30
0.0
 11
102.22
 21
39.0246
 31
0.0
  0
LINE
  8
0
 62
     169
 10
102.22
 20
39.0246
 30
0.0
 11
101.628
 21
38.3603
 31
0.0
  0
LINE
  8
0
 62
     169
 10
101.628
 20
38.3603
 30
0.0
 11
101.068
 21
37.7694
 31
0.0
  0
LINE
  8
0
 62
     169
 10
101.068
 20
37.7694
 30
0.0
 11
100.879
 21
37.5765
 31
0.0
  0
LINE
  8
0
 62
     169
 10
100.879
 20
37.5765
 30
0.0
 11
100.055
 21
36.7411
 31
0.0
  0
LINE
  8
0
 62
     169
 10
100.055
 20
36.7411
 30
0.0
 11
97.2841
 21
34.5295
 31
0.0
  0
LINE
  8
0
 62
     169
 10
97.2841
 20
34.5295
 30
0.0
 11
92.9929
 21
32.0752
 31
0.0
  0
LINE
  8
0
 62
     169
 10
92.9929
 20
32.0752
 30
0.0
 11
87.7341
 21
30.0867
 31
0.0
  0
LINE
  8
0
 62
     169
 10
87.7341
 20
30.0867
 30
0.0
 11
82.8753
 21
28.7817
 31
0.0
  0
LINE
  8
0
 62
     169
 10
82.8753
 20
28.7817
 30
0.0
 11
81.238
 21
28.4358
 31
0.0
  0
LINE
  8
0
 62
     169
 10
81.238
 20
28.4358
 30
0.0
 11
80.899
 21
28.3656
 31
0.0
  0
LINE
  8
0
 62
     169
 10
80.899
 20
28.3656
 30
0.0
 11
79.8834
 21
28.1423
 31
0.0
  0
LINE
  8
0
 62
     169
 10
79.8834
 20
28.1423
 30
0.0
 11
78.7548
 21
27.8819
 31
0.0
  0
LINE
  8
0
 62
     169
 10
78.7548
 20
27.8819
 30
0.0
 11
77.9695
 21
27.6834
 31
0.0
  0
LINE
  8
0
 62
     169
 10
77.9695
 20
27.6834
 30
0.0
 11
77.6647
 21
27.5939
 31
0.0
  0
LINE
  8
0
 62
     169
 10
77.6647
 20
27.5939
 30
0.0
 11
77.6471
 21
27.5759
 31
0.0
  0
LINE
  8
0
 62
     169
 10
77.6471
 20
27.5759
 30
0.0
 11
77.6182
 21
27.5483
 31
0.0
  0
LINE
  8
0
 62
     169
 10
77.6182
 20
27.5483
 30
0.0
 11
77.6083
 21
27.3871
 31
0.0
  0
LINE
  8
0
 62
     169
 10
77.6083
 20
27.3871
 30
0.0
 11
77.9378
 21
27.1749
 31
0.0
  0
LINE
  8
0
 62
     169
 10
77.9378
 20
27.1749
 30
0.0
 11
78.7231
 21
26.8993
 31
0.0
  0
LINE
  8
0
 62
     169
 10
78.7231
 20
26.8993
 30
0.0
 11
79.7207
 21
26.6113
 31
0.0
  0
LINE
  8
0
 62
     169
 10
79.7207
 20
26.6113
 30
0.0
 11
80.0559
 21
26.5204
 31
0.0
  0
LINE
  8
0
 62
     169
 10
80.0559
 20
26.5204
 30
0.0
 11
80.3741
 21
26.4349
 31
0.0
  0
LINE
  8
0
 62
     169
 10
80.3741
 20
26.4349
 30
0.0
 11
81.3456
 21
26.2227
 31
0.0
  0
LINE
  8
0
 62
     169
 10
81.3456
 20
26.2227
 30
0.0
 11
82.7045
 21
26.0367
 31
0.0
  0
LINE
  8
0
 62
     169
 10
82.7045
 20
26.0367
 30
0.0
 11
84.4021
 21
25.9416
 31
0.0
  0
LINE
  8
0
 62
     169
 10
84.4021
 20
25.9416
 30
0.0
 11
86.1342
 21
25.9112
 31
0.0
  0
LINE
  8
0
 62
     169
 10
86.1342
 20
25.9112
 30
0.0
 11
86.7131
 21
25.9085
 31
0.0
  0
LINE
  8
0
 62
     169
 10
86.7131
 20
25.9085
 30
0.0
 11
87.1442
 21
25.9071
 31
0.0
  0
LINE
  8
0
 62
     169
 10
87.1442
 20
25.9071
 30
0.0
 11
88.4382
 21
25.8864
 31
0.0
  0
LINE
  8
0
 62
     169
 10
88.4382
 20
25.8864
 30
0.0
 11
89.8507
 21
25.8382
 31
0.0
  0
LINE
  8
0
 62
     169
 10
89.8507
 20
25.8382
 30
0.0
 11
90.8057
 21
25.7693
 31
0.0
  0
LINE
  8
0
 62
     169
 10
90.8057
 20
25.7693
 30
0.0
 11
91.1571
 21
25.7087
 31
0.0
  0
LINE
  8
0
 62
     169
 10
91.1571
 20
25.7087
 30
0.0
 11
91.1571
 21
25.688
 31
0.0
  0
LINE
  8
0
 62
     169
 10
91.1571
 20
25.688
 30
0.0
 11
91.1571
 21
25.6453
 31
0.0
  0
LINE
  8
0
 62
     169
 10
91.1571
 20
25.6453
 30
0.0
 11
91.04
 21
25.5157
 31
0.0
  0
LINE
  8
0
 62
     169
 10
91.04
 20
25.5157
 30
0.0
 11
90.7217
 21
25.1974
 31
0.0
  0
LINE
  8
0
 62
     169
 10
90.7217
 20
25.1974
 30
0.0
 11
90.2504
 21
24.7785
 31
0.0
  0
LINE
  8
0
 62
     169
 10
90.2504
 20
24.7785
 30
0.0
 11
89.8204
 21
24.4189
 31
0.0
  0
LINE
  8
0
 62
     169
 10
89.8204
 20
24.4189
 30
0.0
 11
89.6758
 21
24.3031
 31
0.0
  0
LINE
  8
0
 62
     169
 10
89.6758
 20
24.3031
 30
0.0
 11
88.6795
 21
23.5107
 31
0.0
  0
LINE
  8
0
 62
     169
 10
88.6795
 20
23.5107
 30
0.0
 11
85.4837
 21
21.3872
 31
0.0
  0
LINE
  8
0
 62
     169
 10
85.4837
 20
21.3872
 30
0.0
 11
80.5946
 21
18.6586
 31
0.0
  0
LINE
  8
0
 62
     169
 10
80.5946
 20
18.6586
 30
0.0
 11
75.5068
 21
16.3697
 31
0.0
  0
LINE
  8
0
 62
     169
 10
75.5068
 20
16.3697
 30
0.0
 11
71.9349
 21
15.0881
 31
0.0
  0
LINE
  8
0
 62
     169
 10
71.9349
 20
15.0881
 30
0.0
 11
70.7168
 21
14.7684
 31
0.0
  0
LINE
  8
0
 62
     169
 10
70.7168
 20
14.7684
 30
0.0
 11
70.273
 21
14.6527
 31
0.0
  0
LINE
  8
0
 62
     169
 10
70.273
 20
14.6527
 30
0.0
 11
68.9349
 21
14.3426
 31
0.0
  0
LINE
  8
0
 62
     169
 10
68.9349
 20
14.3426
 30
0.0
 11
66.9618
 21
13.9375
 31
0.0
  0
LINE
  8
0
 62
     169
 10
66.9618
 20
13.9375
 30
0.0
 11
64.9235
 21
13.5695
 31
0.0
  0
LINE
  8
0
 62
     169
 10
64.9235
 20
13.5695
 30
0.0
 11
62.9447
 21
13.2581
 31
0.0
  0
LINE
  8
0
 62
     169
 10
62.9447
 20
13.2581
 30
0.0
 11
61.1505
 21
13.0211
 31
0.0
  0
LINE
  8
0
 62
     169
 10
61.1505
 20
13.0211
 30
0.0
 11
59.6678
 21
12.8764
 31
0.0
  0
LINE
  8
0
 62
     169
 10
59.6678
 20
12.8764
 30
0.0
 11
58.6218
 21
12.8405
 31
0.0
  0
LINE
  8
0
 62
     169
 10
58.6218
 20
12.8405
 30
0.0
 11
58.2097
 21
12.8612
 31
0.0
  0
LINE
  8
0
 62
     169
 10
58.2097
 20
12.8612
 30
0.0
 11
58.1381
 21
12.9329
 31
0.0
  0
LINE
  8
0
 62
     169
 10
53.0186
 20
12.9329
 30
0.0
 11
53.0186
 21
26.1786
 31
0.0
  0
LINE
  8
0
 62
     169
 10
53.0186
 20
26.1786
 30
0.0
 11
52.7322
 21
26.231
 31
0.0
  0
LINE
  8
0
 62
     169
 10
52.7322
 20
26.231
 30
0.0
 11
51.8432
 21
26.2158
 31
0.0
  0
LINE
  8
0
 62
     169
 10
51.8432
 20
26.2158
 30
0.0
 11
50.6952
 21
25.9774
 31
0.0
  0
LINE
  8
0
 62
     169
 10
50.6952
 20
25.9774
 30
0.0
 11
49.5625
 21
25.5943
 31
0.0
  0
LINE
  8
0
 62
     169
 10
49.5625
 20
25.5943
 30
0.0
 11
48.7165
 21
25.2843
 31
0.0
  0
LINE
  8
0
 62
     169
 10
48.7165
 20
25.2843
 30
0.0
 11
48.4311
 21
25.1919
 31
0.0
  0
LINE
  8
0
 62
     169
 10
48.4311
 20
25.1919
 30
0.0
 11
48.1584
 21
25.3022
 31
0.0
  0
LINE
  8
0
 62
     169
 10
48.1584
 20
25.3022
 30
0.0
 11
47.4003
 21
25.7735
 31
0.0
  0
LINE
  8
0
 62
     169
 10
47.4003
 20
25.7735
 30
0.0
 11
46.6506
 21
26.5576
 31
0.0
  0
LINE
  8
0
 62
     169
 10
46.6506
 20
26.5576
 30
0.0
 11
46.149
 21
27.5346
 31
0.0
  0
LINE
  8
0
 62
     169
 10
46.149
 20
27.5346
 30
0.0
 11
45.908
 21
28.4
 31
0.0
  0
LINE
  8
0
 62
     169
 10
45.908
 20
28.4
 30
0.0
 11
45.8639
 21
28.6935
 31
0.0
  0
LINE
  8
0
 62
     169
 10
45.8639
 20
28.6935
 30
0.0
 11
45.817
 21
28.9939
 31
0.0
  0
LINE
  8
0
 62
     169
 10
45.817
 20
28.9939
 30
0.0
 11
45.919
 21
29.9324
 31
0.0
  0
LINE
  8
0
 62
     169
 10
45.919
 20
29.9324
 30
0.0
 11
46.4164
 21
31.0651
 31
0.0
  0
LINE
  8
0
 62
     169
 10
46.4164
 20
31.0651
 30
0.0
 11
47.2793
 21
31.9581
 31
0.0
  0
LINE
  8
0
 62
     169
 10
47.2793
 20
31.9581
 30
0.0
 11
48.1295
 21
32.4073
 31
0.0
  0
LINE
  8
0
 62
     169
 10
48.1295
 20
32.4073
 30
0.0
 11
48.4311
 21
32.4749
 31
0.0
  0
LINE
  8
0
 62
     169
 10
48.4311
 20
32.4749
 30
0.0
 11
48.5468
 21
32.479
 31
0.0
  0
LINE
  8
0
 62
     169
 10
48.5468
 20
32.479
 30
0.0
 11
48.901
 21
32.3825
 31
0.0
  0
LINE
  8
0
 62
     169
 10
48.901
 20
32.3825
 30
0.0
 11
49.4386
 21
32.1262
 31
0.0
  0
LINE
  8
0
 62
     169
 10
49.4386
 20
32.1262
 30
0.0
 11
50.0048
 21
31.7789
 31
0.0
  0
LINE
  8
0
 62
     169
 10
50.0048
 20
31.7789
 30
0.0
 11
50.5587
 21
31.4096
 31
0.0
  0
LINE
  8
0
 62
     169
 10
50.5587
 20
31.4096
 30
0.0
 11
51.0604
 21
31.0885
 31
0.0
  0
LINE
  8
0
 62
     169
 10
51.0604
 20
31.0885
 30
0.0
 11
51.4685
 21
30.8846
 31
0.0
  0
LINE
  8
0
 62
     169
 10
51.4685
 20
30.8846
 30
0.0
 11
51.744
 21
30.8708
 31
0.0
  0
LINE
  8
0
 62
     169
 10
51.744
 20
30.8708
 30
0.0
 11
51.8446
 21
31.0541
 31
0.0
  0
LINE
  8
0
 62
     169
 10
51.8446
 20
31.0541
 30
0.0
 11
51.8446
 21
31.1147
 31
0.0
  0
LINE
  8
0
 62
     169
 10
51.8446
 20
31.1147
 30
0.0
 11
51.8446
 21
44.7795
 31
0.0
  0
LINE
  8
0
 62
     169
 10
51.8446
 20
44.7795
 30
0.0
 11
51.5345
 21
44.8649
 31
0.0
  0
LINE
  8
0
 62
     169
 10
51.5345
 20
44.8649
 30
0.0
 11
49.9717
 21
45.0508
 31
0.0
  0
LINE
  8
0
 62
     169
 10
49.9717
 20
45.0508
 30
0.0
 11
48.3955
 21
45.1679
 31
0.0
  0
LINE
  8
0
 62
     169
 10
48.3955
 20
45.1679
 30
0.0
 11
48.0797
 21
45.2176
 31
0.0
  0
LINE
  8
0
 62
     169
 10
48.0797
 20
45.2176
 30
0.0
 11
47.1054
 21
45.3665
 31
0.0
  0
LINE
  8
0
 62
     169
 10
47.1054
 20
45.3665
 30
0.0
 11
44.2281
 21
46.0887
 31
0.0
  0
LINE
  8
0
 62
     169
 10
44.2281
 20
46.0887
 30
0.0
 11
40.1507
 21
47.5174
 31
0.0
  0
LINE
  8
0
 62
     169
 10
40.1507
 20
47.5174
 30
0.0
 11
36.1086
 21
49.397
 31
0.0
  0
LINE
  8
0
 62
     169
 10
36.1086
 20
49.397
 30
0.0
 11
33.2672
 21
51.0148
 31
0.0
  0
LINE
  8
0
 62
     169
 10
33.2672
 20
51.0148
 30
0.0
 11
32.3674
 21
51.6213
 31
0.0
  0
LINE
  8
0
 62
     169
 10
32.3674
 20
51.6213
 30
0.0
 11
30.5304
 21
52.8588
 31
0.0
  0
LINE
  8
0
 62
     169
 10
30.5304
 20
52.8588
 30
0.0
 11
25.4799
 21
57.2505
 31
0.0
  0
LINE
  8
0
 62
     169
 10
25.4799
 20
57.2505
 30
0.0
 11
20.1001
 21
63.8362
 31
0.0
  0
LINE
  8
0
 62
     169
 10
20.1001
 20
63.8362
 30
0.0
 11
16.2471
 21
71.3507
 31
0.0
  0
LINE
  8
0
 62
     169
 10
16.2471
 20
71.3507
 30
0.0
 11
14.3082
 21
77.6249
 31
0.0
  0
LINE
  8
0
 62
     169
 10
14.3082
 20
77.6249
 30
0.0
 11
13.9402
 21
79.7638
 31
0.0
  0
LINE
  8
0
 62
     169
 10
13.9402
 20
79.7638
 30
0.0
 11
13.8148
 21
80.4884
 31
0.0
  0
LINE
  8
0
 62
     169
 10
13.8148
 20
80.4884
 30
0.0
 11
13.6412
 21
82.6989
 31
0.0
  0
LINE
  8
0
 62
     169
 10
13.6412
 20
82.6989
 30
0.0
 11
13.5144
 21
86.5036
 31
0.0
  0
LINE
  8
0
 62
     169
 10
13.5144
 20
86.5036
 30
0.0
 11
13.5682
 21
90.3206
 31
0.0
  0
LINE
  8
0
 62
     169
 10
13.5682
 20
90.3206
 30
0.0
 11
13.7018
 21
92.5558
 31
0.0
  0
LINE
  8
0
 62
     169
 10
13.7018
 20
92.5558
 30
0.0
 11
13.8121
 21
93.2903
 31
0.0
  0
LINE
  8
0
 62
     169
 10
13.8121
 20
93.2903
 30
0.0
 11
13.9471
 21
94.1959
 31
0.0
  0
LINE
  8
0
 62
     169
 10
13.9471
 20
94.1959
 30
0.0
 11
14.5094
 21
96.8872
 31
0.0
  0
LINE
  8
0
 62
     169
 10
14.5094
 20
96.8872
 30
0.0
 11
15.496
 21
100.478
 31
0.0
  0
LINE
  8
0
 62
     169
 10
15.496
 20
100.478
 30
0.0
 11
16.6977
 21
103.835
 31
0.0
  0
LINE
  8
0
 62
     169
 10
16.6977
 20
103.835
 30
0.0
 11
17.6664
 21
106.029
 31
0.0
  0
LINE
  8
0
 62
     169
 10
17.6664
 20
106.029
 30
0.0
 11
18.044
 21
106.729
 31
0.0
  0
LINE
  8
0
 62
     169
 10
18.044
 20
106.729
 30
0.0
 11
18.1708
 21
106.966
 31
0.0
  0
LINE
  8
0
 62
     169
 10
18.1708
 20
106.966
 30
0.0
 11
18.5277
 21
107.688
 31
0.0
  0
LINE
  8
0
 62
     169
 10
18.5277
 20
107.688
 30
0.0
 11
18.7868
 21
108.348
 31
0.0
  0
LINE
  8
0
 62
     169
 10
18.7868
 20
108.348
 30
0.0
 11
18.8157
 21
108.707
 31
0.0
  0
LINE
  8
0
 62
     169
 10
18.8157
 20
108.707
 30
0.0
 11
18.6132
 21
108.765
 31
0.0
  0
LINE
  8
0
 62
     169
 10
18.6132
 20
108.765
 30
0.0
 11
18.1777
 21
108.522
 31
0.0
  0
LINE
  8
0
 62
     169
 10
18.1777
 20
108.522
 30
0.0
 11
17.5052
 21
107.976
 31
0.0
  0
LINE
  8
0
 62
     169
 10
17.5052
 20
107.976
 30
0.0
 11
16.5943
 21
107.127
 31
0.0
  0
LINE
  8
0
 62
     169
 10
16.5943
 20
107.127
 30
0.0
 11
15.7275
 21
106.266
 31
0.0
  0
LINE
  8
0
 62
     169
 10
15.7275
 20
106.266
 30
0.0
 11
15.4437
 21
105.974
 31
0.0
  0
LINE
  8
0
 62
     169
 10
15.4437
 20
105.974
 30
0.0
 11
14.2393
 21
104.739
 31
0.0
  0
LINE
  8
0
 62
     169
 10
14.2393
 20
104.739
 30
0.0
 11
11.0064
 21
100.663
 31
0.0
  0
LINE
  8
0
 62
     169
 10
11.0064
 20
100.663
 30
0.0
 11
7.87411
 21
95.0793
 31
0.0
  0
LINE
  8
0
 62
     169
 10
7.87411
 20
95.0793
 30
0.0
 11
5.949
 21
88.9991
 31
0.0
  0
LINE
  8
0
 62
     169
 10
5.949
 20
88.9991
 30
0.0
 11
5.20347
 21
83.9033
 31
0.0
  0
LINE
  8
0
 62
     169
 10
5.20347
 20
83.9033
 30
0.0
 11
5.13457
 21
82.1972
 31
0.0
  0
LINE
  8
0
 62
     169
 10
5.13457
 20
82.1972
 30
0.0
 11
5.11115
 21
81.6225
 31
0.0
  0
LINE
  8
0
 62
     169
 10
5.11115
 20
81.6225
 30
0.0
 11
5.06843
 21
79.8961
 31
0.0
  0
LINE
  8
0
 62
     169
 10
5.06843
 20
79.8961
 30
0.0
 11
5.11803
 21
78.1279
 31
0.0
  0
LINE
  8
0
 62
     169
 10
5.11803
 20
78.1279
 30
0.0
 11
5.31922
 21
76.3845
 31
0.0
  0
LINE
  8
0
 62
     169
 10
5.31922
 20
76.3845
 30
0.0
 11
5.6031
 21
74.7102
 31
0.0
  0
LINE
  8
0
 62
     169
 10
5.6031
 20
74.7102
 30
0.0
 11
5.70784
 21
74.1535
 31
0.0
  0
LINE
  8
0
 62
     169
 10
5.70784
 20
74.1535
 30
0.0
 11
5.78086
 21
73.7581
 31
0.0
  0
LINE
  8
0
 62
     169
 10
5.78086
 20
73.7581
 30
0.0
 11
6.00826
 21
72.5703
 31
0.0
  0
LINE
  8
0
 62
     169
 10
6.00826
 20
72.5703
 30
0.0
 11
6.2811
 21
71.1771
 31
0.0
  0
LINE
  8
0
 62
     169
 10
6.2811
 20
71.1771
 30
0.0
 11
6.49609
 21
70.1255
 31
0.0
  0
LINE
  8
0
 62
     169
 10
6.49609
 20
70.1255
 30
0.0
 11
6.59804
 21
69.6556
 31
0.0
  0
LINE
  8
0
 62
     169
 10
6.59804
 20
69.6556
 30
0.0
 11
6.62284
 21
69.5674
 31
0.0
  0
LINE
  8
0
 62
     169
 10
6.62284
 20
69.5674
 30
0.0
 11
6.6573
 21
69.4422
 31
0.0
  0
LINE
  8
0
 62
     169
 10
6.6573
 20
69.4422
 30
0.0
 11
6.67247
 21
69.0383
 31
0.0
  0
LINE
  8
0
 62
     169
 10
6.67247
 20
69.0383
 30
0.0
 11
6.44507
 21
68.9197
 31
0.0
  0
LINE
  8
0
 62
     169
 10
6.44507
 20
68.9197
 30
0.0
 11
5.9986
 21
69.154
 31
0.0
  0
LINE
  8
0
 62
     169
 10
5.9986
 20
69.154
 30
0.0
 11
5.39916
 21
69.6778
 31
0.0
  0
LINE
  8
0
 62
     169
 10
5.39916
 20
69.6778
 30
0.0
 11
4.70323
 21
70.4314
 31
0.0
  0
LINE
  8
0
 62
     169
 10
4.70323
 20
70.4314
 30
0.0
 11
3.97563
 21
71.355
 31
0.0
  0
LINE
  8
0
 62
     169
 10
3.97563
 20
71.355
 30
0.0
 11
3.27835
 21
72.3868
 31
0.0
  0
LINE
  8
0
 62
     169
 10
3.27835
 20
72.3868
 30
0.0
 11
2.80844
 21
73.1905
 31
0.0
  0
LINE
  8
0
 62
     169
 10
2.80844
 20
73.1905
 30
0.0
 11
2.67064
 21
73.466
 31
0.0
  0
LINE
  8
0
 62
     169
 10
2.67064
 20
73.466
 30
0.0
 11
2.56039
 21
73.6865
 31
0.0
  0
LINE
  8
0
 62
     169
 10
2.56039
 20
73.6865
 30
0.0
 11
2.26963
 21
74.3687
 31
0.0
  0
LINE
  8
0
 62
     169
 10
2.26963
 20
74.3687
 30
0.0
 11
1.88929
 21
75.4063
 31
0.0
  0
LINE
  8
0
 62
     169
 10
1.88929
 20
75.4063
 30
0.0
 11
1.56959
 21
76.4522
 31
0.0
  0
LINE
  8
0
 62
     169
 10
1.56959
 20
76.4522
 30
0.0
 11
1.39733
 21
77.1454
 31
0.0
  0
LINE
  8
0
 62
     169
 10
1.39733
 20
77.1454
 30
0.0
 11
1.35599
 21
77.3783
 31
0.0
  0
LINE
  8
0
 62
     169
 10
1.35599
 20
77.3783
 30
0.0
 11
1.305
 21
77.6647
 31
0.0
  0
LINE
  8
0
 62
     169
 10
1.305
 20
77.6647
 30
0.0
 11
1.11345
 21
78.5153
 31
0.0
  0
LINE
  8
0
 62
     169
 10
1.11345
 20
78.5153
 30
0.0
 11
0.881944
 21
79.182
 31
0.0
  0
LINE
  8
0
 62
     169
 10
0.881944
 20
79.182
 30
0.0
 11
0.671103
 21
79.3983
 31
0.0
  0
LINE
  8
0
 62
     169
 10
0.671103
 20
79.3983
 30
0.0
 11
0.48369
 21
79.1792
 31
0.0
  0
LINE
  8
0
 62
     169
 10
0.48369
 20
79.1792
 30
0.0
 11
0.329351
 21
78.5442
 31
0.0
  0
LINE
  8
0
 62
     169
 10
0.329351
 20
78.5442
 30
0.0
 11
0.213596
 21
77.5063
 31
0.0
  0
LINE
  8
0
 62
     169
 10
0.213596
 20
77.5063
 30
0.0
 11
0.143316
 21
76.0843
 31
0.0
  0
LINE
  8
0
 62
     169
 10
0.143316
 20
76.0843
 30
0.0
 11
0.122645
 21
74.742
 31
0.0
  0
LINE
  8
0
 62
     169
 10
0.122645
 20
74.742
 30
0.0
 11
0.125402
 21
74.2943
 31
0.0
  0
LINE
  8
0
 62
     169
 10
0.125402
 20
74.2943
 30
0.0
 11
0.128157
 21
73.5803
 31
0.0
  0
LINE
  8
0
 62
     169
 10
0.128157
 20
73.5803
 30
0.0
 11
0.256315
 21
71.4361
 31
0.0
  0
LINE
  8
0
 62
     169
 10
0.256315
 20
71.4361
 30
0.0
 11
0.643544
 21
68.7998
 31
0.0
  0
LINE
  8
0
 62
     169
 10
0.643544
 20
68.7998
 30
0.0
 11
1.32567
 21
66.2037
 31
0.0
  0
LINE
  8
0
 62
     169
 10
1.32567
 20
66.2037
 30
0.0
 11
2.06017
 21
64.1339
 31
0.0
  0
LINE
  8
0
 62
     169
 10
2.06017
 20
64.1339
 30
0.0
 11
2.33991
 21
63.4587
 31
0.0
  0
LINE
  8
0
 62
     169
 10
2.33991
 20
63.4587
 30
0.0
 11
2.57142
 21
62.8978
 31
0.0
  0
LINE
  8
0
 62
     169
 10
2.57142
 20
62.8978
 30
0.0
 11
3.35966
 21
61.2525
 31
0.0
  0
LINE
  8
0
 62
     169
 10
3.35966
 20
61.2525
 30
0.0
 11
4.62333
 21
58.9153
 31
0.0
  0
LINE
  8
0
 62
     169
 10
4.62333
 20
58.9153
 30
0.0
 11
5.9793
 21
56.7034
 31
0.0
  0
LINE
  8
0
 62
     169
 10
5.9793
 20
56.7034
 30
0.0
 11
6.93431
 21
55.3145
 31
0.0
  0
LINE
  8
0
 62
     169
 10
6.93431
 20
55.3145
 30
0.0
 11
7.28292
 21
54.8749
 31
0.0
  0
LINE
  8
0
 62
     169
 10
7.28292
 20
54.8749
 30
0.0
 11
7.4731
 21
54.6336
 31
0.0
  0
LINE
  8
0
 62
     169
 10
7.4731
 20
54.6336
 30
0.0
 11
8.01882
 21
53.8882
 31
0.0
  0
LINE
  8
0
 62
     169
 10
8.01882
 20
53.8882
 30
0.0
 11
8.3578
 21
53.2638
 31
0.0
  0
LINE
  8
0
 62
     169
 10
8.3578
 20
53.2638
 30
0.0
 11
8.32337
 21
52.9399
 31
0.0
  0
LINE
  8
0
 62
     169
 10
8.32337
 20
52.9399
 30
0.0
 11
8.02982
 21
52.8479
 31
0.0
  0
LINE
  8
0
 62
     169
 10
8.02982
 20
52.8479
 30
0.0
 11
7.93337
 21
52.8479
 31
0.0
  0
LINE
  8
0
 62
     169
 10
7.93337
 20
52.8479
 30
0.0
 11
7.54338
 21
52.8507
 31
0.0
  0
LINE
  8
0
 62
     169
 10
7.54338
 20
52.8507
 30
0.0
 11
6.3445
 21
53.3647
 31
0.0
  0
LINE
  8
0
 62
     169
 10
6.3445
 20
53.3647
 30
0.0
 11
4.29673
 21
54.6283
 31
0.0
  0
LINE
  8
0
 62
     169
 10
4.29673
 20
54.6283
 30
0.0
 11
2.3592
 21
56.2282
 31
0.0
  0
LINE
  8
0
 62
     169
 10
2.3592
 20
56.2282
 30
0.0
 11
1.33256
 21
57.3278
 31
0.0
  0
LINE
  8
0
 62
     169
 10
1.33256
 20
57.3278
 30
0.0
 11
1.10519
 21
57.755
 31
0.0
  0
LINE
  8
0
 62
     169
 10
1.10519
 20
57.755
 30
0.0
 11
1.05006
 21
57.857
 31
0.0
  0
LINE
  8
0
 62
     169
 10
1.05006
 20
57.857
 30
0.0
 11
0.706935
 21
58.2747
 31
0.0
  0
LINE
  8
0
 62
     169
 10
0.706935
 20
58.2747
 30
0.0
 11
0.403765
 21
58.4895
 31
0.0
  0
LINE
  8
0
 62
     169
 10
0.403765
 20
58.4895
 30
0.0
 11
0.303168
 21
58.4895
 31
0.0
  0
LINE
  8
0
 62
     169
 10
0.303168
 20
58.4895
 30
0.0
 11
0.253559
 21
58.4895
 31
0.0
  0
LINE
  8
0
 62
     169
 10
0.253559
 20
58.4895
 30
0.0
 11
0.106109
 21
58.4137
 31
0.0
  0
LINE
  8
0
 62
     169
 10
0.106109
 20
58.4137
 30
0.0
 11
0.0110243
 21
58.1325
 31
0.0
  0
LINE
  8
0
 62
     169
 10
0.0110243
 20
58.1325
 30
0.0
 11
0.0110243
 21
57.5635
 31
0.0
  0
LINE
  8
0
 62
     169
 10
0.0110243
 20
57.5635
 30
0.0
 11
0.07028
 21
56.8593
 31
0.0
  0
LINE
  8
0
 62
     169
 10
0.07028
 20
56.8593
 30
0.0
 11
0.0950846
 21
56.6251
 31
0.0
  0
LINE
  8
0
 62
     169
 10
0.0950846
 20
56.6251
 30
0.0
 11
0.187413
 21
55.7526
 31
0.0
  0
LINE
  8
0
 62
     169
 10
0.187413
 20
55.7526
 30
0.0
 11
1.46072
 21
51.7384
 31
0.0
  0
LINE
  8
0
 62
     169
 10
1.46072
 20
51.7384
 30
0.0
 11
3.89435
 21
48.0067
 31
0.0
  0
LINE
  8
0
 62
     169
 10
3.89435
 20
48.0067
 30
0.0
 11
4.56819
 21
47.275
 31
0.0
  0
LINE
  8
0
 62
     169
 10
4.56819
 20
47.275
 30
0.0
 11
5.04225
 21
46.761
 31
0.0
  0
LINE
  8
0
 62
     169
 10
5.04225
 20
46.761
 30
0.0
 11
6.6518
 21
45.3831
 31
0.0
  0
LINE
  8
0
 62
     169
 10
6.6518
 20
45.3831
 30
0.0
 11
9.30314
 21
43.633
 31
0.0
  0
LINE
  8
0
 62
     169
 10
9.30314
 20
43.633
 30
0.0
 11
12.5773
 21
41.9943
 31
0.0
  0
LINE
  8
0
 62
     169
 10
12.5773
 20
41.9943
 30
0.0
 11
15.5333
 21
40.7885
 31
0.0
  0
LINE
  8
0
 62
     169
 10
15.5333
 20
40.7885
 30
0.0
 11
16.5351
 21
40.4329
 31
0.0
  0
LINE
  8
0
 62
     169
 10
16.5351
 20
40.4329
 30
0.0
 11
16.7859
 21
40.3447
 31
0.0
  0
LINE
  8
0
 62
     169
 10
16.7859
 20
40.3447
 30
0.0
 11
17.5341
 21
40.0554
 31
0.0
  0
LINE
  8
0
 62
     169
 10
17.5341
 20
40.0554
 30
0.0
 11
18.3293
 21
39.7083
 31
0.0
  0
LINE
  8
0
 62
     169
 10
18.3293
 20
39.7083
 30
0.0
 11
18.8406
 21
39.4324
 31
0.0
  0
LINE
  8
0
 62
     169
 10
18.8406
 20
39.4324
 30
0.0
 11
18.9963
 21
39.2769
 31
0.0
  0
LINE
  8
0
 62
     169
 10
18.9963
 20
39.2769
 30
0.0
 11
18.988
 21
39.2631
 31
0.0
  0
LINE
  8
0
 62
     169
 10
18.988
 20
39.2631
 30
0.0
 11
18.926
 21
39.164
 31
0.0
  0
LINE
  8
0
 62
     169
 10
18.926
 20
39.164
 30
0.0
 11
17.8649
 21
39.0592
 31
0.0
  0
LINE
  8
0
 62
     169
 10
17.8649
 20
39.0592
 30
0.0
 11
15.4781
 21
39.0342
 31
0.0
  0
LINE
  8
0
 62
     169
 10
15.4781
 20
39.0342
 30
0.0
 11
12.7386
 21
39.1679
 31
0.0
  0
LINE
  8
0
 62
     169
 10
12.7386
 20
39.1679
 30
0.0
 11
11.0932
 21
39.3291
 31
0.0
  0
LINE
  8
0
 62
     169
 10
11.0932
 20
39.3291
 30
0.0
 11
10.5627
 21
39.4409
 31
0.0
  0
LINE
  8
0
 62
     169
 10
10.5627
 20
39.4409
 30
0.0
 11
10.3697
 21
39.4822
 31
0.0
  0
LINE
  8
0
 62
     169
 10
10.3697
 20
39.4822
 30
0.0
 11
9.79096
 21
39.5912
 31
0.0
  0
LINE
  8
0
 62
     169
 10
9.79096
 20
39.5912
 30
0.0
 11
9.13917
 21
39.6917
 31
0.0
  0
LINE
  8
0
 62
     169
 10
9.13917
 20
39.6917
 30
0.0
 11
8.67198
 21
39.7344
 31
0.0
  0
LINE
  8
0
 62
     169
 10
8.67198
 20
39.7344
 30
0.0
 11
8.48184
 21
39.7302
 31
0.0
  0
LINE
  8
0
 62
     169
 10
8.48184
 20
39.7302
 30
0.0
 11
8.46254
 21
39.7097
 31
0.0
  0
LINE
  8
0
 62
     169
 10
8.46254
 20
39.7097
 30
0.0
 11
8.44875
 21
39.6956
 31
0.0
  0
LINE
  8
0
 62
     169
 10
8.44875
 20
39.6956
 30
0.0
 11
8.56036
 21
39.4974
 31
0.0
  0
LINE
  8
0
 62
     169
 10
8.56036
 20
39.4974
 30
0.0
 11
8.93519
 21
39.0246
 31
0.0
  0
LINE
  8
0
 62
     169
 10
8.93519
 20
39.0246
 30
0.0
 11
9.52775
 21
38.3603
 31
0.0
  0
LINE
  8
0
 62
     169
 10
9.52775
 20
38.3603
 30
0.0
 11
10.0873
 21
37.7694
 31
0.0
  0
LINE
  8
0
 62
     169
 10
10.0873
 20
37.7694
 30
0.0
 11
10.2774
 21
37.5765
 31
0.0
  0
LINE
  8
0
 62
     169
 10
10.2774
 20
37.5765
 30
0.0
 11
11.1001
 21
36.7411
 31
0.0
  0
LINE
  8
0
 62
     169
 10
11.1001
 20
36.7411
 30
0.0
 11
13.8713
 21
34.5295
 31
0.0
  0
LINE
  8
0
 62
     169
 10
13.8713
 20
34.5295
 30
0.0
 11
18.1626
 21
32.0752
 31
0.0
  0
LINE
  8
0
 62
     169
 10
18.1626
 20
32.0752
 30
0.0
 11
23.4198
 21
30.0867
 31
0.0
  0
LINE
  8
0
 62
     169
 10
23.4198
 20
30.0867
 30
0.0
 11
28.2801
 21
28.7817
 31
0.0
  0
LINE
  8
0
 62
     169
 10
28.2801
 20
28.7817
 30
0.0
 11
29.9186
 21
28.4358
 31
0.0
  0
LINE
  8
0
 62
     169
 10
29.9186
 20
28.4358
 30
0.0
 11
30.2562
 21
28.3656
 31
0.0
  0
LINE
  8
0
 62
     169
 10
30.2562
 20
28.3656
 30
0.0
 11
31.2718
 21
28.1423
 31
0.0
  0
LINE
  8
0
 62
     169
 10
31.2718
 20
28.1423
 30
0.0
 11
32.4005
 21
27.8819
 31
0.0
  0
LINE
  8
0
 62
     169
 10
32.4005
 20
27.8819
 30
0.0
 11
33.1859
 21
27.6834
 31
0.0
  0
LINE
  8
0
 62
     169
 10
33.1859
 20
27.6834
 30
0.0
 11
33.4918
 21
27.5939
 31
0.0
  0
LINE
  8
0
 62
     169
 10
33.4918
 20
27.5939
 30
0.0
 11
33.5098
 21
27.5759
 31
0.0
  0
LINE
  8
0
 62
     169
 10
33.5098
 20
27.5759
 30
0.0
 11
33.5373
 21
27.5483
 31
0.0
  0
LINE
  8
0
 62
     169
 10
33.5373
 20
27.5483
 30
0.0
 11
33.547
 21
27.3871
 31
0.0
  0
LINE
  8
0
 62
     169
 10
33.547
 20
27.3871
 30
0.0
 11
33.2176
 21
27.1749
 31
0.0
  0
LINE
  8
0
 62
     169
 10
33.2176
 20
27.1749
 30
0.0
 11
32.4321
 21
26.8993
 31
0.0
  0
LINE
  8
0
 62
     169
 10
32.4321
 20
26.8993
 30
0.0
 11
31.4331
 21
26.6113
 31
0.0
  0
LINE
  8
0
 62
     169
 10
31.4331
 20
26.6113
 30
0.0
 11
31.0996
 21
26.5204
 31
0.0
  0
LINE
  8
0
 62
     169
 10
31.0996
 20
26.5204
 30
0.0
 11
30.7799
 21
26.4349
 31
0.0
  0
LINE
  8
0
 62
     169
 10
30.7799
 20
26.4349
 30
0.0
 11
29.8083
 21
26.2227
 31
0.0
  0
LINE
  8
0
 62
     169
 10
29.8083
 20
26.2227
 30
0.0
 11
28.451
 21
26.0367
 31
0.0
  0
LINE
  8
0
 62
     169
 10
28.451
 20
26.0367
 30
0.0
 11
26.7532
 21
25.9416
 31
0.0
  0
LINE
  8
0
 62
     169
 10
26.7532
 20
25.9416
 30
0.0
 11
25.021
 21
25.9112
 31
0.0
  0
LINE
  8
0
 62
     169
 10
25.021
 20
25.9112
 30
0.0
 11
24.4437
 21
25.9085
 31
0.0
  0
LINE
  8
0
 62
     169
 10
24.4437
 20
25.9085
 30
0.0
 11
24.0109
 21
25.9071
 31
0.0
  0
LINE
  8
0
 62
     169
 10
24.0109
 20
25.9071
 30
0.0
 11
22.7169
 21
25.8864
 31
0.0
  0
LINE
  8
0
 62
     169
 10
22.7169
 20
25.8864
 30
0.0
 11
21.3045
 21
25.8382
 31
0.0
  0
LINE
  8
0
 62
     169
 10
21.3045
 20
25.8382
 30
0.0
 11
20.3495
 21
25.7693
 31
0.0
  0
LINE
  8
0
 62
     169
 10
20.3495
 20
25.7693
 30
0.0
 11
19.9981
 21
25.7101
 31
0.0
  0
LINE
  8
0
 62
     169
 10
19.9981
 20
25.7101
 30
0.0
 11
19.9981
 21
25.688
 31
0.0
  0
LINE
  8
0
 62
     169
 10
19.9981
 20
25.688
 30
0.0
 11
19.9981
 21
25.6453
 31
0.0
  0
LINE
  8
0
 62
     169
 10
19.9981
 20
25.6453
 30
0.0
 11
20.1138
 21
25.5157
 31
0.0
  0
LINE
  8
0
 62
     169
 10
20.1138
 20
25.5157
 30
0.0
 11
20.4322
 21
25.1974
 31
0.0
  0
LINE
  8
0
 62
     169
 10
20.4322
 20
25.1974
 30
0.0
 11
20.9035
 21
24.7785
 31
0.0
  0
LINE
  8
0
 62
     169
 10
20.9035
 20
24.7785
 30
0.0
 11
21.3334
 21
24.4202
 31
0.0
  0
LINE
  8
0
 62
     169
 10
21.3334
 20
24.4202
 30
0.0
 11
21.4795
 21
24.3031
 31
0.0
  0
LINE
  8
0
 62
     169
 10
21.4795
 20
24.3031
 30
0.0
 11
22.4758
 21
23.5107
 31
0.0
  0
LINE
  8
0
 62
     169
 10
22.4758
 20
23.5107
 30
0.0
 11
25.6701
 21
21.3872
 31
0.0
  0
LINE
  8
0
 62
     169
 10
25.6701
 20
21.3872
 30
0.0
 11
30.5594
 21
18.6586
 31
0.0
  0
LINE
  8
0
 62
     169
 10
30.5594
 20
18.6586
 30
0.0
 11
35.6485
 21
16.3697
 31
0.0
  0
LINE
  8
0
 62
     169
 10
35.6485
 20
16.3697
 30
0.0
 11
39.2204
 21
15.0881
 31
0.0
  0
LINE
  8
0
 62
     169
 10
39.2204
 20
15.0881
 30
0.0
 11
40.44
 21
14.7684
 31
0.0
  0
LINE
  8
0
 62
     169
 10
40.44
 20
14.7684
 30
0.0
 11
40.8824
 21
14.6527
 31
0.0
  0
LINE
  8
0
 62
     169
 10
40.8824
 20
14.6527
 30
0.0
 11
42.2204
 21
14.3426
 31
0.0
  0
LINE
  8
0
 62
     169
 10
42.2204
 20
14.3426
 30
0.0
 11
44.1925
 21
13.9375
 31
0.0
  0
LINE
  8
0
 62
     169
 10
44.1925
 20
13.9375
 30
0.0
 11
46.2319
 21
13.5695
 31
0.0
  0
LINE
  8
0
 62
     169
 10
46.2319
 20
13.5695
 30
0.0
 11
48.2106
 21
13.2581
 31
0.0
  0
LINE
  8
0
 62
     169
 10
48.2106
 20
13.2581
 30
0.0
 11
50.0034
 21
13.0211
 31
0.0
  0
LINE
  8
0
 62
     169
 10
50.0034
 20
13.0211
 30
0.0
 11
51.4862
 21
12.8764
 31
0.0
  0
LINE
  8
0
 62
     169
 10
51.4862
 20
12.8764
 30
0.0
 11
52.5336
 21
12.8405
 31
0.0
  0
LINE
  8
0
 62
     169
 10
52.5336
 20
12.8405
 30
0.0
 11
52.947
 21
12.8612
 31
0.0
  0
LINE
  8
0
 62
     169
 10
52.947
 20
12.8612
 30
0.0
 11
53.0186
 21
12.9329
 31
0.0
  0
LINE
  8
0
 62
     0
 10
59.3686
 20
46.2139
 30
0.0
 11
59.3189
 21
46.3419
 31
0.0
  0
LINE
  8
0
 62
     0
 10
59.3189
 20
46.3419
 30
0.0
 11
59.2875
 21
46.7706
 31
0.0
  0
LINE
  8
0
 62
     0
 10
59.2875
 20
46.7706
 30
0.0
 11
59.6346
 21
47.1593
 31
0.0
  0
LINE
  8
0
 62
     0
 10
59.6346
 20
47.1593
 30
0.0
 11
60.5374
 21
47.45
 31
0.0
  0
LINE
  8
0
 62
     0
 10
60.5374
 20
47.45
 30
0.0
 11
61.7224
 21
47.6553
 31
0.0
  0
LINE
  8
0
 62
     0
 10
61.7224
 20
47.6553
 30
0.0
 11
62.1192
 21
47.709
 31
0.0
  0
LINE
  8
0
 62
     0
 10
62.1192
 20
47.709
 30
0.0
 11
63.0495
 21
47.836
 31
0.0
  0
LINE
  8
0
 62
     0
 10
63.0495
 20
47.836
 30
0.0
 11
65.811
 21
48.4628
 31
0.0
  0
LINE
  8
0
 62
     0
 10
65.811
 20
48.4628
 30
0.0
 11
69.5096
 21
49.699
 31
0.0
  0
LINE
  8
0
 62
     0
 10
69.5096
 20
49.699
 30
0.0
 11
73.1559
 21
51.3789
 31
0.0
  0
LINE
  8
0
 62
     0
 10
73.1559
 20
51.3789
 30
0.0
 11
76.6932
 21
53.4652
 31
0.0
  0
LINE
  8
0
 62
     0
 10
76.6932
 20
53.4652
 30
0.0
 11
80.0654
 21
55.9209
 31
0.0
  0
LINE
  8
0
 62
     0
 10
80.0654
 20
55.9209
 30
0.0
 11
83.2143
 21
58.7072
 31
0.0
  0
LINE
  8
0
 62
     0
 10
83.2143
 20
58.7072
 30
0.0
 11
86.082
 21
61.7883
 31
0.0
  0
LINE
  8
0
 62
     0
 10
86.082
 20
61.7883
 30
0.0
 11
88.0251
 21
64.2606
 31
0.0
  0
LINE
  8
0
 62
     0
 10
88.0251
 20
64.2606
 30
0.0
 11
88.6121
 21
65.1245
 31
0.0
  0
LINE
  8
0
 62
     0
 10
88.6121
 20
65.1245
 30
0.0
 11
89.1357
 21
65.8992
 31
0.0
  0
LINE
  8
0
 62
     0
 10
89.1357
 20
65.8992
 30
0.0
 11
90.5411
 21
68.3341
 31
0.0
  0
LINE
  8
0
 62
     0
 10
90.5411
 20
68.3341
 30
0.0
 11
92.1812
 21
71.8178
 31
0.0
  0
LINE
  8
0
 62
     0
 10
92.1812
 20
71.8178
 30
0.0
 11
93.4956
 21
75.4944
 31
0.0
  0
LINE
  8
0
 62
     0
 10
93.4956
 20
75.4944
 30
0.0
 11
94.2605
 21
78.3237
 31
0.0
  0
LINE
  8
0
 62
     0
 10
94.2605
 20
78.3237
 30
0.0
 11
94.452
 21
79.2787
 31
0.0
  0
LINE
  8
0
 62
     0
 10
94.452
 20
79.2787
 30
0.0
 11
94.6231
 21
80.1356
 31
0.0
  0
LINE
  8
0
 62
     0
 10
94.6231
 20
80.1356
 30
0.0
 11
94.8641
 21
82.7581
 31
0.0
  0
LINE
  8
0
 62
     0
 10
94.8641
 20
82.7581
 30
0.0
 11
94.9745
 21
87.019
 31
0.0
  0
LINE
  8
0
 62
     0
 10
94.9745
 20
87.019
 30
0.0
 11
94.7872
 21
91.2922
 31
0.0
  0
LINE
  8
0
 62
     0
 10
94.7872
 20
91.2922
 30
0.0
 11
94.4961
 21
93.9451
 31
0.0
  0
LINE
  8
0
 62
     0
 10
94.4961
 20
93.9451
 30
0.0
 11
94.3116
 21
94.809
 31
0.0
  0
LINE
  8
0
 62
     0
 10
94.3116
 20
94.809
 30
0.0
 11
93.883
 21
96.8015
 31
0.0
  0
LINE
  8
0
 62
     0
 10
93.883
 20
96.8015
 30
0.0
 11
91.893
 21
102.627
 31
0.0
  0
LINE
  8
0
 62
     0
 10
91.893
 20
102.627
 30
0.0
 11
88.1902
 21
109.451
 31
0.0
  0
LINE
  8
0
 62
     0
 10
88.1902
 20
109.451
 30
0.0
 11
83.1617
 21
115.343
 31
0.0
  0
LINE
  8
0
 62
     0
 10
83.1617
 20
115.343
 30
0.0
 11
78.4627
 21
119.261
 31
0.0
  0
LINE
  8
0
 62
     0
 10
78.4627
 20
119.261
 30
0.0
 11
76.7652
 21
120.364
 31
0.0
  0
LINE
  8
0
 62
     0
 10
76.7652
 20
120.364
 30
0.0
 11
75.6144
 21
121.112
 31
0.0
  0
LINE
  8
0
 62
     0
 10
75.6144
 20
121.112
 30
0.0
 11
69.7509
 21
124.024
 31
0.0
  0
LINE
  8
0
 62
     0
 10
69.7509
 20
124.024
 30
0.0
 11
63.6432
 21
125.877
 31
0.0
  0
LINE
  8
0
 62
     0
 10
63.6432
 20
125.877
 30
0.0
 11
62.3715
 21
126.093
 31
0.0
  0
LINE
  8
0
 62
     0
 10
62.3715
 20
126.093
 30
0.0
 11
61.9386
 21
126.168
 31
0.0
  0
LINE
  8
0
 62
     0
 10
61.9386
 20
126.168
 30
0.0
 11
60.6474
 21
126.416
 31
0.0
  0
LINE
  8
0
 62
     0
 10
60.6474
 20
126.416
 30
0.0
 11
59.6967
 21
126.701
 31
0.0
  0
LINE
  8
0
 62
     0
 10
59.6967
 20
126.701
 30
0.0
 11
59.3203
 21
127.043
 31
0.0
  0
LINE
  8
0
 62
     0
 10
59.3203
 20
127.043
 30
0.0
 11
59.2956
 21
127.416
 31
0.0
  0
LINE
  8
0
 62
     0
 10
59.2956
 20
127.416
 30
0.0
 11
59.3203
 21
127.533
 31
0.0
  0
LINE
  8
0
 62
     0
 10
59.3203
 20
127.533
 30
0.0
 11
59.3439
 21
127.651
 31
0.0
  0
LINE
  8
0
 62
     0
 10
59.3439
 20
127.651
 30
0.0
 11
59.775
 21
127.926
 31
0.0
  0
LINE
  8
0
 62
     0
 10
59.775
 20
127.926
 30
0.0
 11
60.8404
 21
128.031
 31
0.0
  0
LINE
  8
0
 62
     0
 10
60.8404
 20
128.031
 30
0.0
 11
62.3976
 21
127.876
 31
0.0
  0
LINE
  8
0
 62
     0
 10
62.3976
 20
127.876
 30
0.0
 11
64.3336
 21
127.489
 31
0.0
  0
LINE
  8
0
 62
     0
 10
64.3336
 20
127.489
 30
0.0
 11
66.5289
 21
126.898
 31
0.0
  0
LINE
  8
0
 62
     0
 10
66.5289
 20
126.898
 30
0.0
 11
68.8689
 21
126.129
 31
0.0
  0
LINE
  8
0
 62
     0
 10
68.8689
 20
126.129
 30
0.0
 11
71.2378
 21
125.21
 31
0.0
  0
LINE
  8
0
 62
     0
 10
71.2378
 20
125.21
 30
0.0
 11
72.9576
 21
124.449
 31
0.0
  0
LINE
  8
0
 62
     0
 10
72.9576
 20
124.449
 30
0.0
 11
73.5182
 21
124.17
 31
0.0
  0
LINE
  8
0
 62
     0
 10
73.5182
 20
124.17
 30
0.0
 11
74.5973
 21
123.633
 31
0.0
  0
LINE
  8
0
 62
     0
 10
74.5973
 20
123.633
 30
0.0
 11
77.7187
 21
121.784
 31
0.0
  0
LINE
  8
0
 62
     0
 10
77.7187
 20
121.784
 30
0.0
 11
81.5728
 21
118.984
 31
0.0
  0
LINE
  8
0
 62
     0
 10
81.5728
 20
118.984
 30
0.0
 11
85.0593
 21
115.799
 31
0.0
  0
LINE
  8
0
 62
     0
 10
85.0593
 20
115.799
 30
0.0
 11
88.1532
 21
112.261
 31
0.0
  0
LINE
  8
0
 62
     0
 10
88.1532
 20
112.261
 30
0.0
 11
90.8293
 21
108.398
 31
0.0
  0
LINE
  8
0
 62
     0
 10
90.8293
 20
108.398
 30
0.0
 11
93.0674
 21
104.24
 31
0.0
  0
LINE
  8
0
 62
     0
 10
93.0674
 20
104.24
 30
0.0
 11
94.8436
 21
99.8195
 31
0.0
  0
LINE
  8
0
 62
     0
 10
94.8436
 20
99.8195
 30
0.0
 11
95.8755
 21
96.3429
 31
0.0
  0
LINE
  8
0
 62
     0
 10
95.8755
 20
96.3429
 30
0.0
 11
96.1334
 21
95.1646
 31
0.0
  0
LINE
  8
0
 62
     0
 10
96.1334
 20
95.1646
 30
0.0
 11
96.2092
 21
94.8133
 31
0.0
  0
LINE
  8
0
 62
     0
 10
96.2092
 20
94.8133
 30
0.0
 11
96.387
 21
93.7426
 31
0.0
  0
LINE
  8
0
 62
     0
 10
96.387
 20
93.7426
 30
0.0
 11
96.5454
 21
92.1163
 31
0.0
  0
LINE
  8
0
 62
     0
 10
96.5454
 20
92.1163
 30
0.0
 11
96.6241
 21
90.0081
 31
0.0
  0
LINE
  8
0
 62
     0
 10
96.6241
 20
90.0081
 30
0.0
 11
96.6431
 21
87.854
 31
0.0
  0
LINE
  8
0
 62
     0
 10
96.6431
 20
87.854
 30
0.0
 11
96.6431
 21
87.1361
 31
0.0
  0
LINE
  8
0
 62
     0
 10
96.6431
 20
87.1361
 30
0.0
 11
96.6417
 21
86.348
 31
0.0
  0
LINE
  8
0
 62
     0
 10
96.6417
 20
86.348
 30
0.0
 11
96.6156
 21
83.9819
 31
0.0
  0
LINE
  8
0
 62
     0
 10
96.6156
 20
83.9819
 30
0.0
 11
96.5094
 21
81.8473
 31
0.0
  0
LINE
  8
0
 62
     0
 10
96.5094
 20
81.8473
 30
0.0
 11
96.2713
 21
80.1028
 31
0.0
  0
LINE
  8
0
 62
     0
 10
96.2713
 20
80.1028
 30
0.0
 11
95.9584
 21
78.6102
 31
0.0
  0
LINE
  8
0
 62
     0
 10
95.9584
 20
78.6102
 30
0.0
 11
95.8441
 21
78.1156
 31
0.0
  0
LINE
  8
0
 62
     0
 10
95.8441
 20
78.1156
 30
0.0
 11
95.6814
 21
77.4196
 31
0.0
  0
LINE
  8
0
 62
     0
 10
95.6814
 20
77.4196
 30
0.0
 11
95.1371
 21
75.3442
 31
0.0
  0
LINE
  8
0
 62
     0
 10
95.1371
 20
75.3442
 30
0.0
 11
94.3875
 21
72.9449
 31
0.0
  0
LINE
  8
0
 62
     0
 10
94.3875
 20
72.9449
 30
0.0
 11
93.5302
 21
70.7291
 31
0.0
  0
LINE
  8
0
 62
     0
 10
93.5302
 20
70.7291
 30
0.0
 11
92.7724
 21
69.0563
 31
0.0
  0
LINE
  8
0
 62
     0
 10
92.7724
 20
69.0563
 30
0.0
 11
92.4994
 21
68.5091
 31
0.0
  0
LINE
  8
0
 62
     0
 10
92.4994
 20
68.5091
 30
0.0
 11
91.9565
 21
67.4218
 31
0.0
  0
LINE
  8
0
 62
     0
 10
91.9565
 20
67.4218
 30
0.0
 11
90.0836
 21
64.2772
 31
0.0
  0
LINE
  8
0
 62
     0
 10
90.0836
 20
64.2772
 30
0.0
 11
87.2684
 21
60.4326
 31
0.0
  0
LINE
  8
0
 62
     0
 10
87.2684
 20
60.4326
 30
0.0
 11
84.0715
 21
56.9916
 31
0.0
  0
LINE
  8
0
 62
     0
 10
84.0715
 20
56.9916
 30
0.0
 11
80.5134
 21
53.9694
 31
0.0
  0
LINE
  8
0
 62
     0
 10
80.5134
 20
53.9694
 30
0.0
 11
76.6149
 21
51.3803
 31
0.0
  0
LINE
  8
0
 62
     0
 10
76.6149
 20
51.3803
 30
0.0
 11
72.3953
 21
49.24
 31
0.0
  0
LINE
  8
0
 62
     0
 10
72.3953
 20
49.24
 30
0.0
 11
67.8751
 21
47.5643
 31
0.0
  0
LINE
  8
0
 62
     0
 10
67.8751
 20
47.5643
 30
0.0
 11
64.2881
 21
46.6012
 31
0.0
  0
LINE
  8
0
 62
     0
 10
64.2881
 20
46.6012
 30
0.0
 11
63.077
 21
46.367
 31
0.0
  0
LINE
  8
0
 62
     0
 10
63.077
 20
46.367
 30
0.0
 11
62.7821
 21
46.3102
 31
0.0
  0
LINE
  8
0
 62
     0
 10
62.7821
 20
46.3102
 30
0.0
 11
61.8987
 21
46.1409
 31
0.0
  0
LINE
  8
0
 62
     0
 10
61.8987
 20
46.1409
 30
0.0
 11
61.0182
 21
45.9782
 31
0.0
  0
LINE
  8
0
 62
     0
 10
61.0182
 20
45.9782
 30
0.0
 11
60.3857
 21
45.8763
 31
0.0
  0
LINE
  8
0
 62
     0
 10
60.3857
 20
45.8763
 30
0.0
 11
59.9585
 21
45.8322
 31
0.0
  0
LINE
  8
0
 62
     0
 10
59.9585
 20
45.8322
 30
0.0
 11
59.6882
 21
45.8474
 31
0.0
  0
LINE
  8
0
 62
     0
 10
59.6882
 20
45.8474
 30
0.0
 11
59.5313
 21
45.9161
 31
0.0
  0
LINE
  8
0
 62
     0
 10
59.5313
 20
45.9161
 30
0.0
 11
59.4388
 21
46.0403
 31
0.0
  0
LINE
  8
0
 62
     0
 10
59.4388
 20
46.0403
 30
0.0
 11
59.3852
 21
46.1712
 31
0.0
  0
LINE
  8
0
 62
     0
 10
59.3852
 20
46.1712
 30
0.0
 11
59.3686
 21
46.2139
 31
0.0
  0
LINE
  8
0
 62
     0
 10
51.7867
 20
46.2139
 30
0.0
 11
51.8351
 21
46.3419
 31
0.0
  0
LINE
  8
0
 62
     0
 10
51.8351
 20
46.3419
 30
0.0
 11
51.8679
 21
46.7706
 31
0.0
  0
LINE
  8
0
 62
     0
 10
51.8679
 20
46.7706
 30
0.0
 11
51.5193
 21
47.1593
 31
0.0
  0
LINE
  8
0
 62
     0
 10
51.5193
 20
47.1593
 30
0.0
 11
50.618
 21
47.45
 31
0.0
  0
LINE
  8
0
 62
     0
 10
50.618
 20
47.45
 30
0.0
 11
49.433
 21
47.6553
 31
0.0
  0
LINE
  8
0
 62
     0
 10
49.433
 20
47.6553
 30
0.0
 11
49.0361
 21
47.709
 31
0.0
  0
LINE
  8
0
 62
     0
 10
49.0361
 20
47.709
 30
0.0
 11
48.1044
 21
47.836
 31
0.0
  0
LINE
  8
0
 62
     0
 10
48.1044
 20
47.836
 30
0.0
 11
45.3429
 21
48.4628
 31
0.0
  0
LINE
  8
0
 62
     0
 10
45.3429
 20
48.4628
 30
0.0
 11
41.6458
 21
49.699
 31
0.0
  0
LINE
  8
0
 62
     0
 10
41.6458
 20
49.699
 30
0.0
 11
37.9995
 21
51.3789
 31
0.0
  0
LINE
  8
0
 62
     0
 10
37.9995
 20
51.3789
 30
0.0
 11
34.462
 21
53.4652
 31
0.0
  0
LINE
  8
0
 62
     0
 10
34.462
 20
53.4652
 30
0.0
 11
31.0899
 21
55.9209
 31
0.0
  0
LINE
  8
0
 62
     0
 10
31.0899
 20
55.9209
 30
0.0
 11
27.9411
 21
58.7072
 31
0.0
  0
LINE
  8
0
 62
     0
 10
27.9411
 20
58.7072
 30
0.0
 11
25.0734
 21
61.7883
 31
0.0
  0
LINE
  8
0
 62
     0
 10
25.0734
 20
61.7883
 30
0.0
 11
23.129
 21
64.2606
 31
0.0
  0
LINE
  8
0
 62
     0
 10
23.129
 20
64.2606
 30
0.0
 11
22.5433
 21
65.1245
 31
0.0
  0
LINE
  8
0
 62
     0
 10
22.5433
 20
65.1245
 30
0.0
 11
22.0183
 21
65.8992
 31
0.0
  0
LINE
  8
0
 62
     0
 10
22.0183
 20
65.8992
 30
0.0
 11
20.6127
 21
68.3341
 31
0.0
  0
LINE
  8
0
 62
     0
 10
20.6127
 20
68.3341
 30
0.0
 11
18.9728
 21
71.8178
 31
0.0
  0
LINE
  8
0
 62
     0
 10
18.9728
 20
71.8178
 30
0.0
 11
17.6582
 21
75.4944
 31
0.0
  0
LINE
  8
0
 62
     0
 10
17.6582
 20
75.4944
 30
0.0
 11
16.8947
 21
78.3237
 31
0.0
  0
LINE
  8
0
 62
     0
 10
16.8947
 20
78.3237
 30
0.0
 11
16.7032
 21
79.2787
 31
0.0
  0
LINE
  8
0
 62
     0
 10
16.7032
 20
79.2787
 30
0.0
 11
16.531
 21
80.1356
 31
0.0
  0
LINE
  8
0
 62
     0
 10
16.531
 20
80.1356
 30
0.0
 11
16.2898
 21
82.7581
 31
0.0
  0
LINE
  8
0
 62
     0
 10
16.2898
 20
82.7581
 30
0.0
 11
16.1796
 21
87.019
 31
0.0
  0
LINE
  8
0
 62
     0
 10
16.1796
 20
87.019
 30
0.0
 11
16.3669
 21
91.2922
 31
0.0
  0
LINE
  8
0
 62
     0
 10
16.3669
 20
91.2922
 30
0.0
 11
16.6577
 21
93.9451
 31
0.0
  0
LINE
  8
0
 62
     0
 10
16.6577
 20
93.9451
 30
0.0
 11
16.8438
 21
94.809
 31
0.0
  0
LINE
  8
0
 62
     0
 10
16.8438
 20
94.809
 30
0.0
 11
17.2709
 21
96.8015
 31
0.0
  0
LINE
  8
0
 62
     0
 10
17.2709
 20
96.8015
 30
0.0
 11
19.2622
 21
102.627
 31
0.0
  0
LINE
  8
0
 62
     0
 10
19.2622
 20
102.627
 30
0.0
 11
22.965
 21
109.451
 31
0.0
  0
LINE
  8
0
 62
     0
 10
22.965
 20
109.451
 30
0.0
 11
27.9935
 21
115.343
 31
0.0
  0
LINE
  8
0
 62
     0
 10
27.9935
 20
115.343
 30
0.0
 11
32.6926
 21
119.261
 31
0.0
  0
LINE
  8
0
 62
     0
 10
32.6926
 20
119.261
 30
0.0
 11
34.3917
 21
120.364
 31
0.0
  0
LINE
  8
0
 62
     0
 10
34.3917
 20
120.364
 30
0.0
 11
35.5424
 21
121.112
 31
0.0
  0
LINE
  8
0
 62
     0
 10
35.5424
 20
121.112
 30
0.0
 11
41.4045
 21
124.024
 31
0.0
  0
LINE
  8
0
 62
     0
 10
41.4045
 20
124.024
 30
0.0
 11
47.5121
 21
125.877
 31
0.0
  0
LINE
  8
0
 62
     0
 10
47.5121
 20
125.877
 30
0.0
 11
48.7853
 21
126.093
 31
0.0
  0
LINE
  8
0
 62
     0
 10
48.7853
 20
126.093
 30
0.0
 11
49.2167
 21
126.168
 31
0.0
  0
LINE
  8
0
 62
     0
 10
49.2167
 20
126.168
 30
0.0
 11
50.5079
 21
126.416
 31
0.0
  0
LINE
  8
0
 62
     0
 10
50.5079
 20
126.416
 30
0.0
 11
51.4586
 21
126.701
 31
0.0
  0
LINE
  8
0
 62
     0
 10
51.4586
 20
126.701
 30
0.0
 11
51.8351
 21
127.043
 31
0.0
  0
LINE
  8
0
 62
     0
 10
51.8351
 20
127.043
 30
0.0
 11
51.8583
 21
127.416
 31
0.0
  0
LINE
  8
0
 62
     0
 10
51.8583
 20
127.416
 30
0.0
 11
51.8351
 21
127.533
 31
0.0
  0
LINE
  8
0
 62
     0
 10
51.8351
 20
127.533
 30
0.0
 11
51.81
 21
127.651
 31
0.0
  0
LINE
  8
0
 62
     0
 10
51.81
 20
127.651
 30
0.0
 11
51.3789
 21
127.926
 31
0.0
  0
LINE
  8
0
 62
     0
 10
51.3789
 20
127.926
 30
0.0
 11
50.3135
 21
128.031
 31
0.0
  0
LINE
  8
0
 62
     0
 10
50.3135
 20
128.031
 30
0.0
 11
48.7564
 21
127.876
 31
0.0
  0
LINE
  8
0
 62
     0
 10
48.7564
 20
127.876
 30
0.0
 11
46.8217
 21
127.489
 31
0.0
  0
LINE
  8
0
 62
     0
 10
46.8217
 20
127.489
 30
0.0
 11
44.625
 21
126.898
 31
0.0
  0
LINE
  8
0
 62
     0
 10
44.625
 20
126.898
 30
0.0
 11
42.285
 21
126.129
 31
0.0
  0
LINE
  8
0
 62
     0
 10
42.285
 20
126.129
 30
0.0
 11
39.9161
 21
125.21
 31
0.0
  0
LINE
  8
0
 62
     0
 10
39.9161
 20
125.21
 30
0.0
 11
38.1963
 21
124.448
 31
0.0
  0
LINE
  8
0
 62
     0
 10
38.1963
 20
124.448
 30
0.0
 11
37.6372
 21
124.17
 31
0.0
  0
LINE
  8
0
 62
     0
 10
37.6372
 20
124.17
 30
0.0
 11
36.5566
 21
123.633
 31
0.0
  0
LINE
  8
0
 62
     0
 10
36.5566
 20
123.633
 30
0.0
 11
33.4353
 21
121.784
 31
0.0
  0
LINE
  8
0
 62
     0
 10
33.4353
 20
121.784
 30
0.0
 11
29.581
 21
118.984
 31
0.0
  0
LINE
  8
0
 62
     0
 10
29.581
 20
118.984
 30
0.0
 11
26.0946
 21
115.799
 31
0.0
  0
LINE
  8
0
 62
     0
 10
26.0946
 20
115.799
 30
0.0
 11
23.0022
 21
112.261
 31
0.0
  0
LINE
  8
0
 62
     0
 10
23.0022
 20
112.261
 30
0.0
 11
20.3247
 21
108.398
 31
0.0
  0
LINE
  8
0
 62
     0
 10
20.3247
 20
108.398
 30
0.0
 11
18.0867
 21
104.24
 31
0.0
  0
LINE
  8
0
 62
     0
 10
18.0867
 20
104.24
 30
0.0
 11
16.3118
 21
99.8195
 31
0.0
  0
LINE
  8
0
 62
     0
 10
16.3118
 20
99.8195
 30
0.0
 11
15.2797
 21
96.3429
 31
0.0
  0
LINE
  8
0
 62
     0
 10
15.2797
 20
96.3429
 30
0.0
 11
15.0234
 21
95.1646
 31
0.0
  0
LINE
  8
0
 62
     0
 10
15.0234
 20
95.1646
 30
0.0
 11
14.9462
 21
94.8133
 31
0.0
  0
LINE
  8
0
 62
     0
 10
14.9462
 20
94.8133
 30
0.0
 11
14.7684
 21
93.7426
 31
0.0
  0
LINE
  8
0
 62
     0
 10
14.7684
 20
93.7426
 30
0.0
 11
14.61
 21
92.1163
 31
0.0
  0
LINE
  8
0
 62
     0
 10
14.61
 20
92.1163
 30
0.0
 11
14.5314
 21
90.0081
 31
0.0
  0
LINE
  8
0
 62
     0
 10
14.5314
 20
90.0081
 30
0.0
 11
14.5121
 21
87.854
 31
0.0
  0
LINE
  8
0
 62
     0
 10
14.5121
 20
87.854
 30
0.0
 11
14.5135
 21
87.1361
 31
0.0
  0
LINE
  8
0
 62
     0
 10
14.5135
 20
87.1361
 30
0.0
 11
14.5149
 21
86.348
 31
0.0
  0
LINE
  8
0
 62
     0
 10
14.5149
 20
86.348
 30
0.0
 11
14.5397
 21
83.9819
 31
0.0
  0
LINE
  8
0
 62
     0
 10
14.5397
 20
83.9819
 30
0.0
 11
14.6458
 21
81.8473
 31
0.0
  0
LINE
  8
0
 62
     0
 10
14.6458
 20
81.8473
 30
0.0
 11
14.8842
 21
80.1028
 31
0.0
  0
LINE
  8
0
 62
     0
 10
14.8842
 20
80.1028
 30
0.0
 11
15.197
 21
78.6102
 31
0.0
  0
LINE
  8
0
 62
     0
 10
15.197
 20
78.6102
 30
0.0
 11
15.3128
 21
78.1156
 31
0.0
  0
LINE
  8
0
 62
     0
 10
15.3128
 20
78.1156
 30
0.0
 11
15.4754
 21
77.4196
 31
0.0
  0
LINE
  8
0
 62
     0
 10
15.4754
 20
77.4196
 30
0.0
 11
16.0183
 21
75.3442
 31
0.0
  0
LINE
  8
0
 62
     0
 10
16.0183
 20
75.3442
 30
0.0
 11
16.7666
 21
72.9449
 31
0.0
  0
LINE
  8
0
 62
     0
 10
16.7666
 20
72.9449
 30
0.0
 11
17.6251
 21
70.7291
 31
0.0
  0
LINE
  8
0
 62
     0
 10
17.6251
 20
70.7291
 30
0.0
 11
18.383
 21
69.0563
 31
0.0
  0
LINE
  8
0
 62
     0
 10
18.383
 20
69.0563
 30
0.0
 11
18.6559
 21
68.5091
 31
0.0
  0
LINE
  8
0
 62
     0
 10
18.6559
 20
68.5091
 30
0.0
 11
19.1988
 21
67.4218
 31
0.0
  0
LINE
  8
0
 62
     0
 10
19.1988
 20
67.4218
 30
0.0
 11
21.0702
 21
64.2772
 31
0.0
  0
LINE
  8
0
 62
     0
 10
21.0702
 20
64.2772
 30
0.0
 11
23.8855
 21
60.4326
 31
0.0
  0
LINE
  8
0
 62
     0
 10
23.8855
 20
60.4326
 30
0.0
 11
27.0826
 21
56.9916
 31
0.0
  0
LINE
  8
0
 62
     0
 10
27.0826
 20
56.9916
 30
0.0
 11
30.6407
 21
53.9694
 31
0.0
  0
LINE
  8
0
 62
     0
 10
30.6407
 20
53.9694
 30
0.0
 11
34.5392
 21
51.3803
 31
0.0
  0
LINE
  8
0
 62
     0
 10
34.5392
 20
51.3803
 30
0.0
 11
38.7586
 21
49.24
 31
0.0
  0
LINE
  8
0
 62
     0
 10
38.7586
 20
49.24
 30
0.0
 11
43.2788
 21
47.5643
 31
0.0
  0
LINE
  8
0
 62
     0
 10
43.2788
 20
47.5643
 30
0.0
 11
46.8672
 21
46.6012
 31
0.0
  0
LINE
  8
0
 62
     0
 10
46.8672
 20
46.6012
 30
0.0
 11
48.0797
 21
46.367
 31
0.0
  0
LINE
  8
0
 62
     0
 10
48.0797
 20
46.367
 30
0.0
 11
48.3732
 21
46.3102
 31
0.0
  0
LINE
  8
0
 62
     0
 10
48.3732
 20
46.3102
 30
0.0
 11
49.2566
 21
46.1409
 31
0.0
  0
LINE
  8
0
 62
     0
 10
49.2566
 20
46.1409
 30
0.0
 11
50.1371
 21
45.9782
 31
0.0
  0
LINE
  8
0
 62
     0
 10
50.1371
 20
45.9782
 30
0.0
 11
50.7697
 21
45.8763
 31
0.0
  0
LINE
  8
0
 62
     0
 10
50.7697
 20
45.8763
 30
0.0
 11
51.1969
 21
45.8322
 31
0.0
  0
LINE
  8
0
 62
     0
 10
51.1969
 20
45.8322
 30
0.0
 11
51.4657
 21
45.8474
 31
0.0
  0
LINE
  8
0
 62
     0
 10
51.4657
 20
45.8474
 30
0.0
 11
51.6241
 21
45.9161
 31
0.0
  0
LINE
  8
0
 62
     0
 10
51.6241
 20
45.9161
 30
0.0
 11
51.7151
 21
46.0403
 31
0.0
  0
LINE
  8
0
 62
     0
 10
51.7151
 20
46.0403
 30
0.0
 11
51.7701
 21
46.1712
 31
0.0
  0
LINE
  8
0
 62
     0
 10
51.7701
 20
46.1712
 30
0.0
 11
51.7867
 21
46.2139
 31
0.0
  0
ENDSEC
  0
EOF
